<svg xmlns="http://www.w3.org/2000/svg" width="208.663" height="203.275" viewBox="0 0 208.663 203.275">
  <g id="asian_family-pana" data-name="asian family-pana" transform="translate(-16.58 -24.484)">
    <g id="freepik--background-complete--inject-28" transform="translate(16.917 24.484)">
      <path id="Path_24161" data-name="Path 24161" d="M60.325,88.133a10.064,10.064,0,0,0-1.2-2.492,3.431,3.431,0,0,0-2.245-1.473,2.1,2.1,0,0,0-2.245,1.257,13.147,13.147,0,0,0-1.4-5.717,5.473,5.473,0,0,0-4.81-2.937,5.609,5.609,0,0,0-4.343,3.144A16.679,16.679,0,0,0,42.595,85.3a2.021,2.021,0,0,0-2.937.243A5.822,5.822,0,0,0,38.58,88.69H60.774Z" transform="translate(-29.037 -53.285)" fill="#f5f5f5"/>
      <path id="Path_24162" data-name="Path 24162" d="M219.767,79.532a10.985,10.985,0,0,0-1.289-2.695,3.678,3.678,0,0,0-2.425-1.567,2.245,2.245,0,0,0-2.4,1.347,14.112,14.112,0,0,0-1.5-6.126A5.841,5.841,0,0,0,207,67.349a6.027,6.027,0,0,0-4.657,3.368,17.906,17.906,0,0,0-1.59,5.753c-.754-.93-2.353-.638-3.144.265a6.288,6.288,0,0,0-1.159,3.346h23.8Z" transform="translate(-116.009 -48.094)" fill="#f5f5f5"/>
      <path id="Path_24163" data-name="Path 24163" d="M423.79,85.6a6.085,6.085,0,0,0-.723-1.5,2.079,2.079,0,0,0-1.347-.9,1.262,1.262,0,0,0-1.347.754,7.823,7.823,0,0,0-.844-3.431,3.286,3.286,0,0,0-2.883-1.765,3.377,3.377,0,0,0-2.609,1.886,10.011,10.011,0,0,0-.9,3.22,1.214,1.214,0,0,0-1.76.148,3.472,3.472,0,0,0-.647,1.877h13.334Z" transform="translate(-234.057 -54.385)" fill="#f5f5f5"/>
      <path id="Path_24164" data-name="Path 24164" d="M158.06,31.615a5.977,5.977,0,0,0-.723-1.5,2.057,2.057,0,0,0-1.347-.9,1.257,1.257,0,0,0-1.347.759,7.877,7.877,0,0,0-.84-3.431,3.28,3.28,0,0,0-2.888-1.765,3.382,3.382,0,0,0-2.614,1.891,10.069,10.069,0,0,0-.9,3.224,1.211,1.211,0,0,0-1.76.148A3.516,3.516,0,0,0,145,31.915h13.338Z" transform="translate(-87.665 -24.647)" fill="#f5f5f5"/>
      <path id="Path_24165" data-name="Path 24165" d="M360.324,38.418a12.526,12.526,0,0,0-1.478-3.063,4.208,4.208,0,0,0-2.78-1.8,2.573,2.573,0,0,0-2.744,1.545,16.047,16.047,0,0,0-1.72-7.015,6.676,6.676,0,0,0-5.9-3.593,6.9,6.9,0,0,0-5.335,3.853,20.469,20.469,0,0,0-1.819,6.593c-.867-1.064-2.695-.732-3.593.3a7.237,7.237,0,0,0-1.325,3.831H360.9Z" transform="translate(-191.582 -24.484)" fill="#f5f5f5"/>
      <rect id="Rectangle_150006" data-name="Rectangle 150006" width="7.253" height="24.929" transform="translate(63.25 110.654) rotate(180)" fill="#ebebeb"/>
      <path id="Path_24166" data-name="Path 24166" d="M144.821,132.676s-.355-.234.449-1.266-.449-1.581-.449-1.581c-3.427,1.98-8.209,0-8.209,0s5.641-1.742,6.355-3.4c.53-1.24-.409-1.379-.9-1.347.575-.058,1.819-.26,2.2-.925.5-.871-1.464-1.9-1.464-1.9a1.513,1.513,0,0,0,0-1.347c-.319-.871-7.675-2.138-7.675-2.138a2.916,2.916,0,0,0,2.928-1.9s3.642.081,4.491-1.347-.57-1.823-3-3.009-7.783-5.618-7.783-5.618,3.355-.319,4.284-1.109.067-.948.067-.948c4,.4,2.645-1.742,2.645-1.742a17.874,17.874,0,0,1-8.214-5.3,9.845,9.845,0,0,0,3.786-1.738c1.284-1.186-1.069-1.5-1.069-1.5s4.711-.633,2-2.376c-2.066-1.32-5.362-3.1-6.391-3.638a9.86,9.86,0,0,0,3.678-.081c3-1.347,0-3.323,0-3.323-3.5-1.98-8.641-6.965-8.641-6.965s2.569,1.347,3.853.952-1.428-1.98-1.428-1.98,1.347.4,1.931,0-1.5-2.214-1.5-2.214c-3.081-2-6.871-7.248-8.461-9.5-1.585,2.245-5.389,7.5-8.461,9.5,0,0-2.07,1.8-1.5,2.214s1.927,0,1.927,0-2.695,1.585-1.428,1.98,3.853-.952,3.853-.952-5.138,4.985-8.636,6.965c0,0-3,1.976,0,3.323a9.834,9.834,0,0,0,3.674.081c-1.028.534-4.325,2.317-6.386,3.638-2.695,1.742,2,2.376,2,2.376s-2.358.314-1.073,1.5a9.771,9.771,0,0,0,3.786,1.738,17.874,17.874,0,0,1-8.214,5.3s-1.347,2.138,2.645,1.742c0,0-.858.157.072.948s4.284,1.109,4.284,1.109-5.358,4.433-7.783,5.618-3.858,1.581-3,3.009,4.491,1.347,4.491,1.347a2.916,2.916,0,0,0,2.928,1.9s-7.352,1.266-7.675,2.138a1.531,1.531,0,0,0,0,1.347s-1.963,1.028-1.464,1.9c.382.665,1.63.867,2.205.925-.512,0-1.451.13-.9,1.347.714,1.662,6.355,3.4,6.355,3.4s-4.783,1.98-8.209,0a.994.994,0,0,0-.427,1.581c.786,1.028.427,1.266.427,1.266s-1.8-1.347-1,.714,4.94,3.323,4.94,3.323-2.358.4-1.644,1.662,3.714,2.771,7,3.085a26.833,26.833,0,0,0,7.711-.867s-3,1.581-.93,2.452,4.428-1.109,4.428-1.109-.449,2.025,1.284,1.347a11.7,11.7,0,0,0,3.144-2.039s.534,2.982,1.6,2.268c1.069.714,1.6-2.268,1.6-2.268a11.7,11.7,0,0,0,3.144,2.039c1.716.7,1.284-1.347,1.284-1.347s2.358,1.98,4.428,1.109-.93-2.452-.93-2.452a26.661,26.661,0,0,0,7.711.867c3.283-.319,6.287-1.819,7-3.085s-1.639-1.662-1.639-1.662,4.141-1.266,4.94-3.323S144.821,132.676,144.821,132.676Z" transform="translate(-57.697 -47.036)" fill="#ebebeb"/>
      <path id="Path_24167" data-name="Path 24167" d="M175.362,109.749l-.112-.049A.319.319,0,0,1,175.362,109.749Z" transform="translate(-104.33 -71.43)"/>
      <rect id="Rectangle_150007" data-name="Rectangle 150007" width="7.253" height="24.929" transform="translate(128.126 110.654) rotate(180)" fill="#ebebeb"/>
      <path id="Path_24168" data-name="Path 24168" d="M289.245,132.659s-.359-.234.427-1.266a.993.993,0,0,0-.427-1.581c-3.427,1.98-8.214,0-8.214,0s5.641-1.742,6.355-3.4c.534-1.239-.4-1.379-.9-1.347.575-.058,1.823-.26,2.205-.925.5-.871-1.464-1.9-1.464-1.9a1.531,1.531,0,0,0,0-1.347c-.323-.871-7.679-2.138-7.679-2.138a2.916,2.916,0,0,0,2.928-1.9s3.642.081,4.491-1.347-.57-1.823-3-3.009-7.783-5.618-7.783-5.618,3.355-.319,4.284-1.109.072-.948.072-.948c4,.4,2.641-1.742,2.641-1.742a17.874,17.874,0,0,1-8.214-5.317,9.874,9.874,0,0,0,3.786-1.738c1.289-1.186-1.073-1.5-1.073-1.5s4.711-.633,2-2.376c-2.061-1.32-5.362-3.1-6.386-3.638a9.841,9.841,0,0,0,3.674-.081c3-1.347,0-3.323,0-3.323-3.5-1.98-8.641-6.965-8.641-6.965s2.573,1.347,3.858.952-1.428-1.98-1.428-1.98,1.347.4,1.927,0-1.5-2.214-1.5-2.214c-3.076-2-6.871-7.248-8.456-9.5-1.59,2.245-5.389,7.5-8.461,9.5,0,0-2.07,1.8-1.5,2.214s1.927,0,1.927,0-2.695,1.585-1.428,1.98,3.858-.952,3.858-.952-5.147,4.985-8.65,6.965c0,0-3,1.976,0,3.323a9.841,9.841,0,0,0,3.674.081c-1.024.534-4.325,2.317-6.386,3.638-2.695,1.742,2,2.376,2,2.376s-2.353.314-1.069,1.5a9.763,9.763,0,0,0,3.781,1.738,17.874,17.874,0,0,1-8.209,5.3s-1.347,2.138,2.641,1.742c0,0-.853.157.072.948s4.284,1.109,4.284,1.109-5.353,4.433-7.783,5.618-3.853,1.581-3,3.009,4.491,1.347,4.491,1.347a2.916,2.916,0,0,0,2.928,1.9s-7.356,1.266-7.675,2.138a1.513,1.513,0,0,0,0,1.347s-1.963,1.028-1.464,1.9c.377.665,1.626.867,2.2.925-.507,0-1.451.13-.9,1.347.714,1.662,6.355,3.4,6.355,3.4s-4.783,1.98-8.209,0a1.006,1.006,0,0,0-.449,1.581c.768,1.028.449,1.266.449,1.266s-1.8-1.347-1,.714,4.94,3.323,4.94,3.323-2.358.4-1.644,1.662,3.714,2.771,7,3.085a26.875,26.875,0,0,0,7.715-.867s-3,1.581-.93,2.452,4.428-1.109,4.428-1.109-.449,2.025,1.284,1.347a11.726,11.726,0,0,0,3.144-2.039s.534,2.982,1.608,2.268c1.069.714,1.6-2.268,1.6-2.268a11.7,11.7,0,0,0,3.144,2.039c1.711.7,1.284-1.347,1.284-1.347s2.353,1.98,4.428,1.109-.93-2.452-.93-2.452a26.66,26.66,0,0,0,7.711.867c3.283-.319,6.287-1.819,7-3.085s-1.644-1.662-1.644-1.662,4.141-1.266,4.94-3.323S289.245,132.659,289.245,132.659Z" transform="translate(-137.245 -47.02)" fill="#ebebeb"/>
      <path id="Path_24169" data-name="Path 24169" d="M319.862,109.749l-.112-.049a.359.359,0,0,1,.112.049Z" transform="translate(-183.936 -71.43)"/>
      <rect id="Rectangle_150008" data-name="Rectangle 150008" width="5.317" height="18.278" transform="translate(169.141 110.654) rotate(180)" fill="#ebebeb"/>
      <path id="Path_24170" data-name="Path 24170" d="M384.165,169.544s-.26-.175.314-.93a.732.732,0,0,0-.314-1.163c-2.51,1.451-6.018,0-6.018,0s4.136-1.275,4.657-2.492c.391-.9-.3-1.01-.674-1.006.422-.04,1.347-.193,1.617-.678.364-.638-1.073-1.392-1.073-1.392a1.123,1.123,0,0,0,0-.984c-.234-.642-5.627-1.567-5.627-1.567a2.14,2.14,0,0,0,2.147-1.392s2.668.058,3.3-.988-.418-1.347-2.2-2.205a45.89,45.89,0,0,1-5.708-4.118s2.461-.234,3.144-.813.054-.7.054-.7c2.933.287,1.936-1.275,1.936-1.275a13.123,13.123,0,0,1-6.018-3.889,7.2,7.2,0,0,0,2.775-1.275c.943-.871-.786-1.1-.786-1.1s3.454-.449,1.464-1.738c-1.513-.97-3.93-2.277-4.684-2.668a7.268,7.268,0,0,0,2.695-.058c2.2-.988,0-2.439,0-2.439a42.711,42.711,0,0,1-6.332-5.106s1.882.988,2.825.7-1.046-1.451-1.046-1.451,1,.292,1.415,0-1.1-1.626-1.1-1.626c-2.245-1.464-5.039-5.313-6.2-6.965-1.163,1.653-3.943,5.5-6.2,6.965,0,0-1.518,1.347-1.1,1.626s1.415,0,1.415,0-1.989,1.159-1.046,1.451,2.825-.7,2.825-.7a42.711,42.711,0,0,1-6.332,5.106s-2.2,1.451,0,2.439a7.268,7.268,0,0,0,2.695.058c-.754.391-3.171,1.7-4.684,2.668-1.989,1.275,1.464,1.738,1.464,1.738s-1.725.234-.786,1.1a7.175,7.175,0,0,0,2.775,1.275,13.122,13.122,0,0,1-6.018,3.889s-1,1.563,1.936,1.275c0,0-.629.117.054.7s3.144.813,3.144.813a47.218,47.218,0,0,1-5.7,4.118c-1.778.871-2.829,1.159-2.2,2.205s3.3.988,3.3.988a2.146,2.146,0,0,0,2.147,1.392s-5.389.925-5.627,1.567a1.123,1.123,0,0,0,0,.984s-1.437.754-1.073,1.392c.278.485,1.195.638,1.617.678-.377,0-1.064.094-.674,1.006.525,1.217,4.657,2.492,4.657,2.492s-3.5,1.451-6.018,0a.732.732,0,0,0-.314,1.163c.575.754.314.93.314.93s-1.307-.988-.732.521,3.593,2.434,3.593,2.434-1.729.292-1.2,1.222,2.721,2.03,5.129,2.245a20.845,20.845,0,0,0,5.663-.606s-2.2,1.163-.678,1.8,3.242-.813,3.242-.813-.314,1.486.943.975a8.609,8.609,0,0,0,2.295-1.509s.391,2.187,1.177,1.666c.786.521,1.177-1.666,1.177-1.666a8.61,8.61,0,0,0,2.3,1.5c1.257.512.943-.975.943-.975s1.724,1.451,3.242.813-.678-1.8-.678-1.8a19.632,19.632,0,0,0,5.654.642c2.407-.229,4.608-1.347,5.129-2.245s-1.2-1.222-1.2-1.222,3.036-.925,3.593-2.434S384.165,169.544,384.165,169.544Z" transform="translate(-197.518 -77.226)" fill="#ebebeb"/>
      <path id="Path_24171" data-name="Path 24171" d="M406.571,152.746l-.081-.036A.22.22,0,0,1,406.571,152.746Z" transform="translate(-231.722 -95.125)"/>
      <rect id="Rectangle_150009" data-name="Rectangle 150009" width="5.317" height="18.278" transform="translate(189.966 110.654) rotate(180)" fill="#e0e0e0"/>
      <path id="Path_24172" data-name="Path 24172" d="M430.514,169.544s-.265-.175.314-.93a.732.732,0,0,0-.314-1.163c-2.515,1.451-6.022,0-6.022,0s4.136-1.275,4.662-2.492c.391-.9-.3-1.01-.674-1.006.422-.04,1.347-.193,1.612-.678.368-.638-1.069-1.392-1.069-1.392a1.123,1.123,0,0,0,0-.984c-.238-.642-5.632-1.567-5.632-1.567a2.14,2.14,0,0,0,2.147-1.392s2.672.058,3.3-.988-.422-1.347-2.2-2.205a45.748,45.748,0,0,1-5.7-4.118s2.457-.234,3.144-.813.054-.7.054-.7c2.928.287,1.936-1.275,1.936-1.275a13.154,13.154,0,0,1-6.022-3.889,7.2,7.2,0,0,0,2.775-1.275c.943-.871-.786-1.1-.786-1.1s3.458-.449,1.469-1.738c-1.513-.97-3.934-2.277-4.684-2.668a7.268,7.268,0,0,0,2.695-.058c2.2-.988,0-2.439,0-2.439a42.84,42.84,0,0,1-6.337-5.106s1.886.988,2.829.7-1.046-1.451-1.046-1.451.992.292,1.41,0-1.1-1.626-1.1-1.626c-2.245-1.464-5.039-5.313-6.2-6.965-1.163,1.653-3.948,5.5-6.2,6.965,0,0-1.518,1.347-1.1,1.626s1.415,0,1.415,0-1.99,1.159-1.051,1.451,2.829-.7,2.829-.7a42.583,42.583,0,0,1-6.337,5.106s-2.2,1.451,0,2.439a7.274,7.274,0,0,0,2.695.058c-.75.391-3.171,1.7-4.68,2.668-1.99,1.275,1.464,1.738,1.464,1.738s-1.729.234-.786,1.1a7.2,7.2,0,0,0,2.775,1.275,13.122,13.122,0,0,1-6.022,3.889s-.992,1.563,1.94,1.275c0,0-.629.117.049.7s3.144.813,3.144.813a47.373,47.373,0,0,1-5.708,4.118c-1.778.871-2.825,1.159-2.2,2.205s3.3.988,3.3.988a2.14,2.14,0,0,0,2.147,1.392s-5.389.925-5.627,1.567a1.1,1.1,0,0,0,0,.984s-1.442.754-1.073,1.392c.278.485,1.19.638,1.612.678-.373,0-1.06.094-.669,1.006.521,1.217,4.657,2.492,4.657,2.492s-3.507,1.451-6.018,0a.732.732,0,0,0-.323,1.172c.575.754.314.93.314.93s-1.311-.988-.737.521,3.615,2.434,3.615,2.434-1.729.292-1.2,1.222,2.721,2.03,5.129,2.245a20.649,20.649,0,0,0,5.659-.615s-2.2,1.163-.683,1.8,3.247-.813,3.247-.813-.314,1.487.943.975a8.7,8.7,0,0,0,2.3-1.5s.391,2.187,1.177,1.666c.781.521,1.177-1.666,1.177-1.666a8.609,8.609,0,0,0,2.3,1.5c1.253.512.939-.975.939-.975s1.729,1.451,3.247.813-.678-1.8-.678-1.8a19.589,19.589,0,0,0,5.65.642c2.407-.229,4.608-1.347,5.133-2.245s-1.2-1.222-1.2-1.222,3.036-.925,3.593-2.434S430.514,169.544,430.514,169.544Z" transform="translate(-223.042 -77.226)" fill="#e0e0e0"/>
      <path id="Path_24173" data-name="Path 24173" d="M452.9,152.746l-.081-.036a.318.318,0,0,1,.081.036Z" transform="translate(-257.245 -95.125)" fill="#e0e0e0"/>
      <rect id="Rectangle_150010" data-name="Rectangle 150010" width="4.563" height="15.691" transform="translate(19.095 110.448) rotate(180)" fill="#ebebeb"/>
      <path id="Path_24174" data-name="Path 24174" d="M51.452,183.425s-.225-.153.269-.8a.629.629,0,0,0-.269-1c-2.156,1.248-5.169,0-5.169,0s3.552-1.1,4-2.142c.337-.781-.256-.867-.579-.858.364-.04,1.15-.166,1.388-.584.314-.548-.921-1.195-.921-1.195a.97.97,0,0,0,0-.849c-.2-.548-4.832-1.347-4.832-1.347a1.837,1.837,0,0,0,1.841-1.2s2.295.049,2.834-.844-.359-1.145-1.891-1.9a40.461,40.461,0,0,1-4.9-3.53,7.5,7.5,0,0,0,2.695-.7c.584-.5.045-.6.045-.6,2.519.251,1.662-1.1,1.662-1.1a11.25,11.25,0,0,1-5.165-3.337,6.146,6.146,0,0,0,2.38-1.1c.808-.75-.674-.948-.674-.948s2.964-.4,1.257-1.491c-1.3-.835-3.373-1.954-4.042-2.29a6.171,6.171,0,0,0,2.313-.054c1.886-.844,0-2.088,0-2.088a37.2,37.2,0,0,1-5.412-4.388s1.617.849,2.425.6-.9-1.248-.9-1.248.853.251,1.213,0-.943-1.392-.943-1.392c-1.936-1.262-4.325-4.563-5.322-5.982-1,1.419-3.391,4.72-5.326,5.982,0,0-1.3,1.145-.943,1.392s1.213,0,1.213,0-1.707,1-.9,1.248,2.425-.6,2.425-.6a36.373,36.373,0,0,1-5.438,4.388s-1.886,1.244,0,2.088a6.171,6.171,0,0,0,2.313.054c-.647.337-2.721,1.455-4.042,2.29-1.707,1.1,1.257,1.491,1.257,1.491s-1.482.2-.674.948a6.22,6.22,0,0,0,2.38,1.1,11.25,11.25,0,0,1-5.165,3.337s-.858,1.347,1.662,1.1c0,0-.539.1.045.6a7.6,7.6,0,0,0,2.695.7,40.229,40.229,0,0,1-4.9,3.534c-1.527.745-2.394,1-1.873,1.9s2.834.844,2.834.844a1.837,1.837,0,0,0,1.841,1.2s-4.63.795-4.832,1.347a.97.97,0,0,0,0,.849s-1.235.647-.9,1.195c.238.418,1.024.543,1.388.584-.323,0-.9.076-.579.858.449,1.046,4,2.142,4,2.142s-3.013,1.248-5.169,0a.629.629,0,0,0-.269,1c.494.647.269.8.269.8s-1.123-.849-.629.449,3.1,2.093,3.1,2.093-1.482.251-1.033,1.046,2.34,1.742,4.406,1.945a16.708,16.708,0,0,0,4.855-.548s-1.891,1-.584,1.545,2.784-.7,2.784-.7-.269,1.275.808.84a7.473,7.473,0,0,0,1.98-1.284s.337,1.877,1.01,1.428c.669.449,1.006-1.428,1.006-1.428a7.473,7.473,0,0,0,1.98,1.284c1.078.449.808-.84.808-.84s1.482,1.248,2.784.7-.584-1.545-.584-1.545a16.879,16.879,0,0,0,4.855.548c2.066-.2,3.956-1.145,4.406-1.945S49,185.971,49,185.971s2.6-.795,3.1-2.093S51.452,183.425,51.452,183.425Z" transform="translate(-17.33 -88.718)" fill="#e0e0e0"/>
      <path id="Path_24175" data-name="Path 24175" d="M70.672,169H70.6A.207.207,0,0,1,70.672,169Z" transform="translate(-46.677 -104.095)"/>
      <path id="Path_24176" data-name="Path 24176" d="M192.13,260.853a4.576,4.576,0,0,1,1.922,1.8,4.522,4.522,0,0,1,.817,2.51,8,8,0,0,0-2.739-4.32Z" transform="translate(-113.629 -154.695)" fill="#e0e0e0"/>
      <path id="Path_24177" data-name="Path 24177" d="M201.1,254.85c.072,0-.251,1.545-.292,3.467s.2,3.462.126,3.476a3.593,3.593,0,0,1-.22-1.006,15.4,15.4,0,0,1,.121-4.94,3.839,3.839,0,0,1,.265-1Z" transform="translate(-118.279 -151.395)" fill="#e0e0e0"/>
      <path id="Path_24178" data-name="Path 24178" d="M208.607,258.4a25.143,25.143,0,0,0-1.464,2.6,24.4,24.4,0,0,0-.9,2.843,2.55,2.55,0,0,1,.072-.9,9.485,9.485,0,0,1,1.711-3.9A2.841,2.841,0,0,1,208.607,258.4Z" transform="translate(-121.398 -153.35)" fill="#e0e0e0"/>
      <path id="Path_24179" data-name="Path 24179" d="M221.82,296.31a5.344,5.344,0,0,1,2.739,4.325,11.03,11.03,0,0,0-1.015-2.385,11.169,11.169,0,0,0-1.725-1.94Z" transform="translate(-129.985 -174.235)" fill="#e0e0e0"/>
      <path id="Path_24180" data-name="Path 24180" d="M230.79,290.29c.072,0-.251,1.549-.292,3.467s.2,3.467.126,3.476a3.593,3.593,0,0,1-.22-1.006,15.461,15.461,0,0,1-.139-2.474,15.67,15.67,0,0,1,.26-2.47A3.7,3.7,0,0,1,230.79,290.29Z" transform="translate(-134.635 -170.919)" fill="#e0e0e0"/>
      <path id="Path_24181" data-name="Path 24181" d="M238.3,293.85a25.149,25.149,0,0,0-1.464,2.6,24.5,24.5,0,0,0-.9,2.838,2.551,2.551,0,0,1,.072-.9,9.547,9.547,0,0,1,.629-2.048,9.691,9.691,0,0,1,1.082-1.855A2.641,2.641,0,0,1,238.3,293.85Z" transform="translate(-137.755 -172.88)" fill="#e0e0e0"/>
      <path id="Path_24182" data-name="Path 24182" d="M79.34,320.47a5.353,5.353,0,0,1,2.739,4.32,8.07,8.07,0,0,0-2.739-4.32Z" transform="translate(-51.492 -187.545)" fill="#e0e0e0"/>
      <path id="Path_24183" data-name="Path 24183" d="M88.35,314.45c.067,0-.251,1.545-.292,3.462s.193,3.467.121,3.48a3.921,3.921,0,0,1-.216-1.006,15.526,15.526,0,0,1-.139-2.479,15.157,15.157,0,0,1,.256-2.466A3.52,3.52,0,0,1,88.35,314.45Z" transform="translate(-56.164 -184.229)" fill="#e0e0e0"/>
      <path id="Path_24184" data-name="Path 24184" d="M95.82,318a25.148,25.148,0,0,0-1.464,2.6,26.129,26.129,0,0,0-.9,2.843,2.641,2.641,0,0,1,.076-.9,9.4,9.4,0,0,1,1.707-3.9A2.7,2.7,0,0,1,95.82,318Z" transform="translate(-59.264 -186.185)" fill="#e0e0e0"/>
      <path id="Path_24185" data-name="Path 24185" d="M302.63,350a5.326,5.326,0,0,1,2.739,4.32,11.227,11.227,0,0,0-1.015-2.385A11.03,11.03,0,0,0,302.63,350Z" transform="translate(-174.504 -203.814)" fill="#e0e0e0"/>
      <path id="Path_24186" data-name="Path 24186" d="M311.6,344c.072,0-.251,1.549-.292,3.467s.2,3.467.126,3.476a3.462,3.462,0,0,1-.22-1,15.53,15.53,0,0,1-.139-2.479,15.093,15.093,0,0,1,.256-2.465,3.655,3.655,0,0,1,.269-1Z" transform="translate(-179.154 -200.508)" fill="#e0e0e0"/>
      <path id="Path_24187" data-name="Path 24187" d="M319.064,347.51a25.149,25.149,0,0,0-1.464,2.6,26.135,26.135,0,0,0-.921,2.843,2.793,2.793,0,0,1,.076-.9,9.256,9.256,0,0,1,.629-2.052,9.512,9.512,0,0,1,1.078-1.85A2.7,2.7,0,0,1,319.064,347.51Z" transform="translate(-182.24 -202.442)" fill="#e0e0e0"/>
      <path id="Path_24188" data-name="Path 24188" d="M166.49,412.59a5.353,5.353,0,0,1,2.739,4.32A8.084,8.084,0,0,0,166.49,412.59Z" transform="translate(-99.504 -238.295)" fill="#e0e0e0"/>
      <path id="Path_24189" data-name="Path 24189" d="M175.456,406.57c.072,0-.247,1.545-.287,3.462s.193,3.467.121,3.476a3.787,3.787,0,0,1-.216-1,15.566,15.566,0,0,1,.117-4.94A3.839,3.839,0,0,1,175.456,406.57Z" transform="translate(-104.154 -234.979)" fill="#e0e0e0"/>
      <path id="Path_24190" data-name="Path 24190" d="M182.943,410.12a24.207,24.207,0,0,0-1.464,2.6,24.994,24.994,0,0,0-.921,2.843,2.64,2.64,0,0,1,.076-.9,9.332,9.332,0,0,1,1.707-3.9A2.578,2.578,0,0,1,182.943,410.12Z" transform="translate(-107.248 -236.934)" fill="#e0e0e0"/>
      <path id="Path_24191" data-name="Path 24191" d="M243.37,467.48a5.344,5.344,0,0,1,2.739,4.32,11.228,11.228,0,0,0-1.015-2.385A11.03,11.03,0,0,0,243.37,467.48Z" transform="translate(-141.857 -268.534)" fill="#e0e0e0"/>
      <path id="Path_24192" data-name="Path 24192" d="M252.35,461.46c.072,0-.251,1.545-.292,3.467s.2,3.462.126,3.476a3.593,3.593,0,0,1-.22-1.006,15.4,15.4,0,0,1,.121-4.94A3.629,3.629,0,0,1,252.35,461.46Z" transform="translate(-146.513 -265.218)" fill="#e0e0e0"/>
      <path id="Path_24193" data-name="Path 24193" d="M259.847,465a25.543,25.543,0,0,0-1.464,2.6,24.5,24.5,0,0,0-.9,2.838,2.551,2.551,0,0,1,.072-.9,9.332,9.332,0,0,1,1.711-3.9,2.73,2.73,0,0,1,.579-.642Z" transform="translate(-149.627 -267.168)" fill="#e0e0e0"/>
      <path id="Path_24194" data-name="Path 24194" d="M458.05,462.2a5.389,5.389,0,0,1,2.74,4.325,11.3,11.3,0,0,0-1.019-2.385A11.479,11.479,0,0,0,458.05,462.2Z" transform="translate(-260.126 -265.626)" fill="#e0e0e0"/>
      <path id="Path_24195" data-name="Path 24195" d="M467.014,456.18c.072,0-.247,1.549-.287,3.467s.193,3.467.121,3.476a3.956,3.956,0,0,1-.22-1.006,14.989,14.989,0,0,1-.135-2.474,15.224,15.224,0,0,1,.256-2.47,3.916,3.916,0,0,1,.265-.992Z" transform="translate(-264.774 -262.309)" fill="#e0e0e0"/>
      <path id="Path_24196" data-name="Path 24196" d="M474.5,459.74a24.213,24.213,0,0,0-1.464,2.6,24.686,24.686,0,0,0-.921,2.843,2.721,2.721,0,0,1,.072-.9,9.6,9.6,0,0,1,.633-2.048,9.29,9.29,0,0,1,1.078-1.85,2.577,2.577,0,0,1,.6-.647Z" transform="translate(-267.871 -264.27)" fill="#e0e0e0"/>
      <path id="Path_24197" data-name="Path 24197" d="M27,453.84a5.28,5.28,0,0,1,2.739,4.307,11.129,11.129,0,0,0-1.015-2.385A11.169,11.169,0,0,0,27,453.84Z" transform="translate(-22.657 -261.02)" fill="#e0e0e0"/>
      <path id="Path_24198" data-name="Path 24198" d="M35.95,447.82c.072,0-.251,1.549-.292,3.467s.2,3.467.126,3.476a3.53,3.53,0,0,1-.22-1.006,15.43,15.43,0,0,1-.139-2.475,15.673,15.673,0,0,1,.256-2.483A3.7,3.7,0,0,1,35.95,447.82Z" transform="translate(-27.296 -257.704)" fill="#e0e0e0"/>
      <path id="Path_24199" data-name="Path 24199" d="M43.458,451.38a25.154,25.154,0,0,0-1.464,2.6,24.1,24.1,0,0,0-.9,2.843,2.578,2.578,0,0,1,.072-.9,9.431,9.431,0,0,1,1.675-3.889A2.618,2.618,0,0,1,43.458,451.38Z" transform="translate(-30.416 -259.665)" fill="#e0e0e0"/>
      <path id="Path_24200" data-name="Path 24200" d="M434,327.77a5.389,5.389,0,0,1,2.74,4.32,11.15,11.15,0,0,0-1.015-2.38A10.96,10.96,0,0,0,434,327.77Z" transform="translate(-246.877 -191.567)" fill="#e0e0e0"/>
      <path id="Path_24201" data-name="Path 24201" d="M442.97,321.75c.072,0-.251,1.549-.292,3.467s.2,3.467.126,3.476a3.592,3.592,0,0,1-.22-1.006,15.46,15.46,0,0,1-.139-2.475,15.22,15.22,0,0,1,.247-2.452A3.592,3.592,0,0,1,442.97,321.75Z" transform="translate(-251.527 -188.251)" fill="#e0e0e0"/>
      <path id="Path_24202" data-name="Path 24202" d="M450.453,325.31a25.151,25.151,0,0,0-1.464,2.6,26.25,26.25,0,0,0-.921,2.838,2.64,2.64,0,0,1,.076-.9,9.3,9.3,0,0,1,.629-2.048,9.472,9.472,0,0,1,1.078-1.855A2.5,2.5,0,0,1,450.453,325.31Z" transform="translate(-254.622 -190.212)" fill="#e0e0e0"/>
      <path id="Path_24203" data-name="Path 24203" d="M24.51,334.86a5.307,5.307,0,0,1,2.739,4.307,11.119,11.119,0,0,0-1.019-2.385,11.7,11.7,0,0,0-1.72-1.922Z" transform="translate(-21.286 -195.473)" fill="#e0e0e0"/>
      <path id="Path_24204" data-name="Path 24204" d="M33.479,328.84c.067,0-.251,1.549-.292,3.467s.193,3.467.121,3.476a3.849,3.849,0,0,1-.216-1,15.014,15.014,0,0,1-.139-2.479,15.22,15.22,0,0,1,.256-2.47A3.651,3.651,0,0,1,33.479,328.84Z" transform="translate(-25.934 -192.156)" fill="#e0e0e0"/>
      <path id="Path_24205" data-name="Path 24205" d="M40.99,332.4a25.15,25.15,0,0,0-1.464,2.6,24.7,24.7,0,0,0-.9,2.843,2.641,2.641,0,0,1,.076-.9,9.332,9.332,0,0,1,1.707-3.9A2.577,2.577,0,0,1,40.99,332.4Z" transform="translate(-29.058 -194.118)" fill="#e0e0e0"/>
      <path id="Path_24206" data-name="Path 24206" d="M453.69,260.52a5.344,5.344,0,0,1,2.739,4.325A8.034,8.034,0,0,0,453.69,260.52Z" transform="translate(-257.725 -154.518)" fill="#e0e0e0"/>
      <path id="Path_24207" data-name="Path 24207" d="M462.66,254.5c.072,0-.251,1.549-.292,3.467s.2,3.467.126,3.476a3.522,3.522,0,0,1-.22-1,15.53,15.53,0,0,1-.139-2.479,15.744,15.744,0,0,1,.256-2.47A3.591,3.591,0,0,1,462.66,254.5Z" transform="translate(-262.374 -151.202)" fill="#e0e0e0"/>
      <path id="Path_24208" data-name="Path 24208" d="M470.168,258.06a25.152,25.152,0,0,0-1.464,2.6,24.109,24.109,0,0,0-.9,2.843,2.578,2.578,0,0,1,.072-.9,9.283,9.283,0,0,1,1.711-3.9A2.619,2.619,0,0,1,470.168,258.06Z" transform="translate(-265.494 -153.163)" fill="#e0e0e0"/>
    </g>
    <g id="freepik--Floor--inject-28" transform="translate(16.58 134.86)">
      <path id="Path_24209" data-name="Path 24209" d="M222.641,270.377c0,.063-46.131.117-103.026.117S16.58,270.44,16.58,270.377s46.122-.117,103.035-.117S222.641,270.314,222.641,270.377Z" transform="translate(-16.58 -270.26)" fill="#263238"/>
    </g>
    <g id="freepik--Plants--inject-28" transform="translate(25.607 163.854)">
      <path id="Path_24210" data-name="Path 24210" d="M173.12,340.84a5.353,5.353,0,0,1,2.739,4.32,11.119,11.119,0,0,0-1.019-2.385,11.331,11.331,0,0,0-1.72-1.936Z" transform="translate(-111.846 -338.136)" fill="#263238"/>
      <path id="Path_24211" data-name="Path 24211" d="M182.091,334.82c.067,0-.251,1.545-.292,3.462s.193,3.467.121,3.48a3.92,3.92,0,0,1-.216-1.006,15.566,15.566,0,0,1,.117-4.94,3.521,3.521,0,0,1,.269-1Z" transform="translate(-116.496 -334.82)" fill="#263238"/>
      <path id="Path_24212" data-name="Path 24212" d="M189.572,338.37a14.985,14.985,0,0,0-2.385,5.443,2.641,2.641,0,0,1,.076-.9,9.332,9.332,0,0,1,1.707-3.9A2.694,2.694,0,0,1,189.572,338.37Z" transform="translate(-119.591 -336.776)" fill="#263238"/>
      <path id="Path_24213" data-name="Path 24213" d="M301.37,416.29a4.572,4.572,0,0,1,1.922,1.8,4.523,4.523,0,0,1,.817,2.51,10.959,10.959,0,0,0-1.015-2.385,11.377,11.377,0,0,0-1.725-1.922Z" transform="translate(-182.5 -379.703)" fill="#263238"/>
      <path id="Path_24214" data-name="Path 24214" d="M310.351,410.27c.072,0-.251,1.549-.292,3.467s.2,3.467.126,3.476a3.723,3.723,0,0,1-.22-1,15.425,15.425,0,0,1,.121-4.94A4,4,0,0,1,310.351,410.27Z" transform="translate(-187.156 -376.386)" fill="#263238"/>
      <path id="Path_24215" data-name="Path 24215" d="M317.847,413.83a26.177,26.177,0,0,0-1.464,2.6,24.105,24.105,0,0,0-.9,2.843,2.551,2.551,0,0,1,.072-.9,9.431,9.431,0,0,1,1.711-3.9A2.721,2.721,0,0,1,317.847,413.83Z" transform="translate(-190.269 -378.347)" fill="#263238"/>
      <path id="Path_24216" data-name="Path 24216" d="M36.68,395.37a5.276,5.276,0,0,1,2.739,4.325A11.227,11.227,0,0,0,38.4,397.31a11.03,11.03,0,0,0-1.725-1.94Z" transform="translate(-36.68 -368.177)" fill="#263238"/>
      <path id="Path_24217" data-name="Path 24217" d="M45.65,389.34c.072,0-.251,1.549-.292,3.467s.2,3.467.126,3.476a3.463,3.463,0,0,1-.22-1,15.4,15.4,0,0,1,.121-4.94A3.773,3.773,0,0,1,45.65,389.34Z" transform="translate(-41.33 -364.855)" fill="#263238"/>
      <path id="Path_24218" data-name="Path 24218" d="M53.157,392.9a25.15,25.15,0,0,0-1.464,2.6,24.4,24.4,0,0,0-.9,2.843,2.551,2.551,0,0,1,.072-.9,9.431,9.431,0,0,1,1.711-3.9,2.618,2.618,0,0,1,.579-.642Z" transform="translate(-44.449 -366.817)" fill="#263238"/>
      <path id="Path_24219" data-name="Path 24219" d="M429.45,395.47a5.389,5.389,0,0,1,2.74,4.325,10.918,10.918,0,0,0-1.019-2.385A11.478,11.478,0,0,0,429.45,395.47Z" transform="translate(-253.06 -368.233)" fill="#263238"/>
      <path id="Path_24220" data-name="Path 24220" d="M438.414,389.45c.072,0-.247,1.549-.287,3.467s.193,3.467.121,3.476a3.922,3.922,0,0,1-.216-1.006,14.958,14.958,0,0,1-.139-2.475,15.223,15.223,0,0,1,.256-2.47A3.917,3.917,0,0,1,438.414,389.45Z" transform="translate(-257.709 -364.916)" fill="#263238"/>
      <path id="Path_24221" data-name="Path 24221" d="M445.9,393a15.008,15.008,0,0,0-2.385,5.438,2.64,2.64,0,0,1,.076-.9,9.3,9.3,0,0,1,.629-2.048,9.472,9.472,0,0,1,1.078-1.855,2.5,2.5,0,0,1,.6-.638Z" transform="translate(-260.805 -366.872)" fill="#263238"/>
    </g>
    <g id="freepik--speech-bubble--inject-28" transform="translate(136.355 43.862)">
      <path id="Path_24222" data-name="Path 24222" d="M302.224,85.447l-2.47.166a9.97,9.97,0,1,1,2.313-2.726h0Z" transform="translate(-283.382 -67.799)" fill="#fff"/>
      <path id="Path_24223" data-name="Path 24223" d="M302.126,85.281V84.63c-.022-.449-.049-1.1-.09-1.918a.045.045,0,0,0-.045-.045.049.049,0,0,0-.031,0h0l.072.058a9.988,9.988,0,0,0-.606-11.012,10.226,10.226,0,0,0-3-2.695,9.759,9.759,0,0,0-4.145-1.347,10.266,10.266,0,0,0-4.6.651,9.844,9.844,0,0,0-3.961,2.825,10.042,10.042,0,0,0-2.2,4.379,10.248,10.248,0,0,0,.09,4.711,9.768,9.768,0,0,0,1.994,3.9,10.352,10.352,0,0,0,3.144,2.533,9.929,9.929,0,0,0,3.489,1.06,10.275,10.275,0,0,0,3.189-.166,9.929,9.929,0,0,0,4.28-2.084h-.027l1.841-.148.449-.045h.153a.862.862,0,0,0-.171,0h-.481l-1.823.1h-.022a9.961,9.961,0,0,1-4.253,2.007,10.279,10.279,0,0,1-3.144.139,9.88,9.88,0,0,1-3.418-1.06,10.2,10.2,0,0,1-3.076-2.5,9.579,9.579,0,0,1-1.94-3.822,10.078,10.078,0,0,1-.081-4.563,9.88,9.88,0,0,1,2.151-4.28,9.66,9.66,0,0,1,3.867-2.757,9.992,9.992,0,0,1,4.491-.642,9.593,9.593,0,0,1,4.042,1.3,10.024,10.024,0,0,1,2.982,2.623,9.88,9.88,0,0,1,.687,10.846.049.049,0,0,0,0,.067.058.058,0,0,0,.058,0h0l-.076-.031c.058.813.1,1.442.135,1.891q.027.31.04.5a1.713,1.713,0,0,0,.04.171Z" transform="translate(-283.285 -67.633)" fill="#263238"/>
      <path id="Path_24224" data-name="Path 24224" d="M294.979,84.057a3.032,3.032,0,0,1,.781-1.662,2.933,2.933,0,0,1,1.531-.948,2.439,2.439,0,0,1,1.855.364,2.4,2.4,0,0,1,.772.858,2.353,2.353,0,0,1,.705-.768,2.425,2.425,0,0,1,1.85-.364,2.933,2.933,0,0,1,1.531.943,3.045,3.045,0,0,1,.79,1.657,3.759,3.759,0,0,1-.449,2.29,5.277,5.277,0,0,1-1.8,1.7c-1.181.714-2.744,1.608-2.744,1.608s-1.32-.984-2.506-1.7a5.259,5.259,0,0,1-1.8-1.7,3.71,3.71,0,0,1-.525-2.286Z" transform="translate(-289.718 -75.216)" fill="#ff725e"/>
    </g>
    <g id="freepik--Characters--inject-28" transform="translate(40.57 34.825)">
      <path id="Path_24225" data-name="Path 24225" d="M325.51,181.46l-1.738,18.723-.292,8.349.063,10.913,3.5,1.055c1.518-5.811,2.748-11.227,3.534-16.068l2.847-18.812-.561-2.03Z" transform="translate(-209.644 -121.304)" fill="#ffbf9d"/>
      <path id="Path_24226" data-name="Path 24226" d="M312.129,276.38s-1.186,1.024-1.976,1.855a10.366,10.366,0,0,0-1.433,3.256l-3.081,2.353,3.629,3.409,4-3.862.925-2.9Z" transform="translate(-199.816 -173.596)" fill="#ffbf9d"/>
      <path id="Path_24227" data-name="Path 24227" d="M324.729,246.285l-1.6,8.223a8.273,8.273,0,0,1,.49,3.418s-.476,4.042-.692,5.349-.552,2.443-1.473,1.909-.988-1.374-.449-3.714l-.207-1.383-.822.759-1.235,3.629s1.747,3.171,1.347,3.8-.826.377-.826.377l-.525.26L315.77,265l.1-5.277,3.445-6.674-.063-10.558" transform="translate(-205.397 -154.926)" fill="#ffbf9d"/>
      <path id="Path_24228" data-name="Path 24228" d="M322.924,281.352c.844-.207.207-1.927-.341-2.659-.184-.247-.472-.481-.763-.4a.6.6,0,0,0-.377.606c0,.256.26.449.377.669-.058-.18-.256-.305-.377-.449a.507.507,0,0,0-.5-.193c-.278.076-.373.449-.368.719a3.252,3.252,0,0,0,.265,1.28c-.049-.2,0,0-.121-.166a.476.476,0,0,0-.9.153,1.306,1.306,0,0,0,0,.575,7.216,7.216,0,0,0,1.271,3.022,1.455,1.455,0,0,0,.876-1.226,1.347,1.347,0,0,0,.975-.723,1.32,1.32,0,0,0-.031-1.208" transform="translate(-207.611 -174.643)" fill="#ffbf9d"/>
      <path id="Path_24229" data-name="Path 24229" d="M322.773,281.263a.486.486,0,0,1,.1.144,1.307,1.307,0,0,1,.117.5,1.347,1.347,0,0,1-.229.79,1.415,1.415,0,0,1-.9.6l.085-.094a1.576,1.576,0,0,1-.93,1.347l-.09.036-.058-.081a7.293,7.293,0,0,1-1.082-2.111,5.836,5.836,0,0,1-.274-1.307.8.8,0,0,1,.328-.714.552.552,0,0,1,.449-.072.732.732,0,0,1,.359.225c.045.045.081.1.085.1h-.09c.171,0,.162.1.171.09a.186.186,0,0,1,0,.04l.022.076-.287.081a5.617,5.617,0,0,1-.243-.871,2.488,2.488,0,0,0-.027-.449,1.294,1.294,0,0,1,.081-.449.62.62,0,0,1,.355-.382.584.584,0,0,1,.512.072.755.755,0,0,1,.18.157c.036.045.081.085.126.135a.9.9,0,0,1,.269.359l-.247.108c-.076-.153-.229-.287-.332-.494a.746.746,0,0,1,.049-.665.6.6,0,0,1,.557-.314.844.844,0,0,1,.521.265,3.894,3.894,0,0,1,.8,1.567,1.531,1.531,0,0,1-.027,1.141.418.418,0,0,1-.35.216c0-.027.157-.045.274-.256A1.5,1.5,0,0,0,323,280a3.961,3.961,0,0,0-.8-1.451.633.633,0,0,0-.377-.189.346.346,0,0,0-.323.2.481.481,0,0,0-.031.427c.063.139.22.274.332.481l-.247.1a.776.776,0,0,0-.2-.247,1.534,1.534,0,0,1-.148-.148.45.45,0,0,0-.121-.1.283.283,0,0,0-.449.175,1.8,1.8,0,0,0-.027.768,5.327,5.327,0,0,0,.234.822l-.283.076v-.067h.126l.031.139h0a.18.18,0,0,1-.157-.054c-.067-.072-.081-.1-.108-.126a.323.323,0,0,0-.422-.1.53.53,0,0,0-.2.449,5.718,5.718,0,0,0,.251,1.226,7.185,7.185,0,0,0,1,1.976l-.148-.04a1.347,1.347,0,0,0,.817-1.123v-.081h.076a1.244,1.244,0,0,0,.822-.49,1.276,1.276,0,0,0,.247-.7A2.012,2.012,0,0,0,322.773,281.263Z" transform="translate(-207.459 -174.554)" fill="#ff9a6c"/>
      <path id="Path_24230" data-name="Path 24230" d="M321.912,283.855c.054-.054.566.386.925,1.127a2.286,2.286,0,0,1,.319,1.424,12.66,12.66,0,0,1-.584-1.293A8.675,8.675,0,0,1,321.912,283.855Z" transform="translate(-208.776 -177.711)" fill="#ff9a6c"/>
      <path id="Path_24231" data-name="Path 24231" d="M323.761,280.144c.058-.054.525.368.925,1.024a2.6,2.6,0,0,1,.507,1.284,5.216,5.216,0,0,1-.759-1.132A4.791,4.791,0,0,1,323.761,280.144Z" transform="translate(-209.795 -175.667)" fill="#ff9a6c"/>
      <path id="Path_24232" data-name="Path 24232" d="M316.279,287.659l-.584-.75-.31-.409a1.347,1.347,0,0,1-.216-.539c0-1.455.054-2.695.09-3.615a7.726,7.726,0,0,1,.13-1.486,7.476,7.476,0,0,1,.076,1.491c0,1.015,0,2.245,0,3.566a1.024,1.024,0,0,0,.166.418l.3.4.57.763.952,1.307a6.818,6.818,0,0,1,.813,1.248,7.852,7.852,0,0,1-.979-1.123" transform="translate(-205.066 -176.064)" fill="#ff9a6c"/>
      <path id="Path_24233" data-name="Path 24233" d="M420.8,258.936a3.319,3.319,0,0,1-.979,1.9,7.844,7.844,0,0,0-1.347,2.618s-.786,3.669-.984,4.859-.242,2.286.714,2.093,1.266-.9,1.5-3.094l.593-1.141.485.9V270.6s-2.457,2.245-2.308,2.906.606.57.606.57l.377.382,3.741-2.524,1.478-4.621-.247-6,.175-6.822-4.253,1.1Z" transform="translate(-261.371 -161.537)" fill="#ffbf9d"/>
      <path id="Path_24234" data-name="Path 24234" d="M409.986,159.562s3.593-1.195,4.356,2.924,2.326,14.658,2.537,16.374a55.894,55.894,0,0,0,2,9.615c1.406,4.841.934,17.618.934,17.618H416.03s-3.727-10.926-4.491-16.549-2.192-8.034-1.841-10.329-.9-8.084-.9-8.084Z" transform="translate(-256.648 -109.152)" fill="#ffbf9d"/>
      <path id="Path_24235" data-name="Path 24235" d="M341.4,417.774l.5,8.69s-9.076,3.4-9.143,5.016l17.663-.319-.193-13.572Z" transform="translate(-214.751 -251.39)" fill="#263238"/>
      <path id="Path_24236" data-name="Path 24236" d="M364.18,435.49a.687.687,0,0,1,.516.777.7.7,0,0,1-.8.494.656.656,0,1,1,.355-1.253" transform="translate(-231.603 -261.233)" fill="#e0e0e0"/>
      <path id="Path_24237" data-name="Path 24237" d="M350.371,446.187l-.076-1.347-16.908.817s-.781.341-.678.871Z" transform="translate(-214.723 -266.402)" fill="#455a64"/>
      <path id="Path_24238" data-name="Path 24238" d="M352.439,437.092c0,.081.449.112.867.368s.66.6.741.566-.058-.507-.584-.813S352.421,437,352.439,437.092Z" transform="translate(-225.598 -262.085)" fill="#fff"/>
      <path id="Path_24239" data-name="Path 24239" d="M348.35,438.851c0,.081.355.216.656.557s.391.71.481.705.13-.449-.251-.9S348.35,438.775,348.35,438.851Z" transform="translate(-223.345 -263.081)" fill="#fff"/>
      <path id="Path_24240" data-name="Path 24240" d="M345.22,441.929c.076,0,.189-.4-.04-.844s-.638-.62-.674-.552.22.31.4.678S345.135,441.925,345.22,441.929Z" transform="translate(-221.226 -264.021)" fill="#fff"/>
      <path id="Path_24241" data-name="Path 24241" d="M352.7,432.379c.036.076.449-.045.921-.022s.871.162.9.09-.328-.359-.9-.377S352.651,432.316,352.7,432.379Z" transform="translate(-225.738 -259.366)" fill="#fff"/>
      <path id="Path_24242" data-name="Path 24242" d="M391.59,415.93l.283,10.527,2.735,8.241a1.082,1.082,0,0,1-.808,1.383h0a1.154,1.154,0,0,1-1-.22c-1.756-1.446-8.191-6.786-8.169-7.558.027-.9-1.069-11.079-1.069-11.079Z" transform="translate(-242.743 -250.475)" fill="#263238"/>
      <path id="Path_24243" data-name="Path 24243" d="M395.066,450.388,385.86,441.9l.022.449a1.571,1.571,0,0,0,.449,1.028c.737.745,2.825,2.757,7.688,6.795a1.159,1.159,0,0,0,1.037.22Z" transform="translate(-244.01 -264.782)" fill="#455a64"/>
      <path id="Path_24244" data-name="Path 24244" d="M400.224,449.294c.067.022.287-.543.925-.876a3.516,3.516,0,0,1,1.253-.3c0-.027-.135-.1-.4-.121a1.837,1.837,0,0,0-1.684.9C400.207,449.128,400.2,449.285,400.224,449.294Z" transform="translate(-251.916 -268.139)" fill="#fff"/>
      <path id="Path_24245" data-name="Path 24245" d="M402.139,452.883a10.121,10.121,0,0,1,.952-.507,10.666,10.666,0,0,1,1.064-.193,1.3,1.3,0,0,0-1.145-.022C402.372,452.376,402.071,452.861,402.139,452.883Z" transform="translate(-252.973 -270.367)" fill="#fff"/>
      <path id="Path_24246" data-name="Path 24246" d="M396.79,445.363a11.976,11.976,0,0,1,1.415-.876,12.272,12.272,0,0,1,1.612-.449,2.591,2.591,0,0,0-1.711.247A2.506,2.506,0,0,0,396.79,445.363Z" transform="translate(-250.031 -265.933)" fill="#fff"/>
      <path id="Path_24247" data-name="Path 24247" d="M396,439.307c.031.058.624-.216,1.415-.292s1.428.076,1.446,0a2.245,2.245,0,0,0-1.469-.238,2.214,2.214,0,0,0-1.392.53Z" transform="translate(-249.596 -263.043)" fill="#fff"/>
      <path id="Path_24248" data-name="Path 24248" d="M395.608,432.369a5.612,5.612,0,0,1,1.464-.337,5.958,5.958,0,0,1,1.477.265c0-.022-.108-.148-.368-.269a2.456,2.456,0,0,0-1.109-.229,2.547,2.547,0,0,0-1.1.278C395.711,432.216,395.59,432.338,395.608,432.369Z" transform="translate(-249.379 -259.217)" fill="#fff"/>
      <path id="Path_24249" data-name="Path 24249" d="M366.678,99.057a26.53,26.53,0,0,0-4.733-13.437l-20.061,2.964c-1.7,3.741-.9,12-1.4,15.606a9.485,9.485,0,0,1-2.4,5.389h5s.337-2.519.647-2.695.723,2.717.723,2.717l22.747-.485S366.862,101.329,366.678,99.057Z" transform="translate(-217.688 -68.505)" fill="#263238"/>
      <path id="Path_24250" data-name="Path 24250" d="M366.041,80.081a12.494,12.494,0,0,0-9.826-4.513,13.32,13.32,0,0,0-4.666,1,6.943,6.943,0,0,0-3.871,2.739,11.633,11.633,0,0,0-2.111,5.389,16.688,16.688,0,0,0,.49,5.524,21.861,21.861,0,0,0,3.175,6.449l3.386.305a32.732,32.732,0,0,0,8.358-.714,10.727,10.727,0,0,0,6.7-4.715C369.607,88.142,368.6,83.018,366.041,80.081Z" transform="translate(-221.784 -62.966)" fill="#263238"/>
      <path id="Path_24251" data-name="Path 24251" d="M362.614,82.819l-6.849-2.479-1.76.26c-3.979.139-6.584,4.612-6.507,7.837A57.292,57.292,0,0,0,348.477,99a6.864,6.864,0,0,0,5.838,5.564s-.027,6.1,0,7.886l10.329-1.073-.189-26.8a1.886,1.886,0,0,0-1.841-1.76Z" transform="translate(-222.875 -65.596)" fill="#ffbf9d"/>
      <path id="Path_24252" data-name="Path 24252" d="M364.383,117.417a1.118,1.118,0,0,0-.409-.683,1.154,1.154,0,0,0-1.406-.036,1.545,1.545,0,0,0-.539,1.469h0a1.406,1.406,0,0,0,1.024.552h.189a1.266,1.266,0,0,0,.84-.364A1.127,1.127,0,0,0,364.383,117.417Z" transform="translate(-230.868 -85.504)" fill="#ff9a6c"/>
      <path id="Path_24253" data-name="Path 24253" d="M352.27,107.287a.687.687,0,0,0,.723.633.656.656,0,0,0,.651-.678.687.687,0,0,0-.719-.633.66.66,0,0,0-.656.678Z" transform="translate(-225.505 -80.067)" fill="#263238"/>
      <path id="Path_24254" data-name="Path 24254" d="M350.849,102.779c.072.072.62-.045,1.347.117s1.213.5,1.3.449-.027-.13-.238-.283a2.852,2.852,0,0,0-1.028-.449,2.623,2.623,0,0,0-1.082-.027C350.912,102.667,350.809,102.748,350.849,102.779Z" transform="translate(-224.718 -77.827)" fill="#263238"/>
      <path id="Path_24255" data-name="Path 24255" d="M358.959,107.256a5.016,5.016,0,0,0-1.213-.112c-.189,0-.373,0-.413-.148a.952.952,0,0,1,.076-.57c.135-.449.278-.961.449-1.482a24.518,24.518,0,0,0,.925-3.853,24.562,24.562,0,0,0-1.23,3.772c-.144.516-.283,1.015-.409,1.486a1.078,1.078,0,0,0-.036.745.476.476,0,0,0,.332.251,1.159,1.159,0,0,0,.323,0A4.518,4.518,0,0,0,358.959,107.256Z" transform="translate(-228.143 -77.027)" fill="#263238"/>
      <path id="Path_24256" data-name="Path 24256" d="M362.68,131.174a13.612,13.612,0,0,0,6.988-2.524s-1.585,3.867-6.974,3.826Z" transform="translate(-231.24 -92.21)" fill="#ff9a6c"/>
      <path id="Path_24257" data-name="Path 24257" d="M363.548,115.54c-.121,0-.049.8-.687,1.433s-1.5.611-1.491.723.2.139.561.117a2.012,2.012,0,0,0,1.253-.557,1.761,1.761,0,0,0,.525-1.195C363.71,115.746,363.6,115.531,363.548,115.54Z" transform="translate(-230.518 -84.988)" fill="#263238"/>
      <path id="Path_24258" data-name="Path 24258" d="M350.677,95.569c.139.171.7,0,1.347,0s1.226.126,1.347-.049c.058-.085-.031-.251-.274-.413a2.1,2.1,0,0,0-2.187.04C350.695,95.313,350.618,95.484,350.677,95.569Z" transform="translate(-224.617 -73.573)" fill="#263238"/>
      <path id="Path_24259" data-name="Path 24259" d="M368.118,106.907a.692.692,0,0,1-.629.728.665.665,0,0,1-.741-.584.692.692,0,0,1,.629-.728.66.66,0,0,1,.741.584Z" transform="translate(-233.481 -79.907)" fill="#263238"/>
      <path id="Path_24260" data-name="Path 24260" d="M369.069,101.78c-.063.081-.611.081-1.293.368s-1.118.678-1.208.66,0-.117.2-.3a3.207,3.207,0,0,1,.948-.588,2.811,2.811,0,0,1,1.046-.234C368.988,101.69,369.1,101.744,369.069,101.78Z" transform="translate(-233.362 -77.358)" fill="#263238"/>
      <path id="Path_24261" data-name="Path 24261" d="M367.932,94.838c-.139.175-.719.031-1.4.054s-1.262.175-1.406,0c-.063-.081.022-.251.269-.422a2.245,2.245,0,0,1,2.245-.049C367.905,94.587,367.991,94.753,367.932,94.838Z" transform="translate(-232.576 -73.201)" fill="#263238"/>
      <path id="Path_24262" data-name="Path 24262" d="M383.848,107.912c-.031-.4.346-1.374.732-1.469,1.037-.256,2.933-.337,3.18,2.326.341,3.638-3.382,3.229-3.4,3.144S383.964,109.287,383.848,107.912Z" transform="translate(-242.9 -79.911)" fill="#ffbf9d"/>
      <path id="Path_24263" data-name="Path 24263" d="M386.986,111.946a.936.936,0,0,0,.18.076.62.62,0,0,0,.476-.031,1.573,1.573,0,0,0,.593-1.478,2.147,2.147,0,0,0-.26-.9.745.745,0,0,0-.521-.449.328.328,0,0,0-.359.211c-.04.1,0,.175-.027.184s-.085-.054-.072-.207a.422.422,0,0,1,.126-.243.494.494,0,0,1,.314-.112.9.9,0,0,1,.714.5,2.2,2.2,0,0,1,.314,1,1.655,1.655,0,0,1-.777,1.657.692.692,0,0,1-.593-.045C386.986,112.036,386.954,111.955,386.986,111.946Z" transform="translate(-244.624 -81.385)" fill="#ff9a6c"/>
      <path id="Path_24264" data-name="Path 24264" d="M370.224,91.425l-.9.988c-4.123-3.7-12.242-13.024-11.789-12.485a11.65,11.65,0,0,1,5.7-.8c2.991.413,8.676,1.725,8.7,5.236A18.265,18.265,0,0,1,370.224,91.425Z" transform="translate(-228.397 -64.888)" fill="#263238"/>
      <path id="Path_24265" data-name="Path 24265" d="M338.285,236a33.292,33.292,0,0,0-4.792,19.311c.894,10.778,5.236,31.481,5.236,31.481a152.269,152.269,0,0,1,1.347,17.964l1.469,20.775h9.431s.6-23.182,0-28.055.247-11.007.377-15.04l.669-25.266.759-20.272Z" transform="translate(-215.108 -151.35)" fill="#263238"/>
      <path id="Path_24266" data-name="Path 24266" d="M390.807,234.4a46.018,46.018,0,0,1,3.2,19.01c-.472,10.828-4.118,31.715-4.118,31.715s.117,17.021-.862,26.263c-.813,7.711-1.271,12.911-1.271,12.911l-9.121-.031s-1.513-23.142-1.1-28.037c.319-3.844.386-5.726-.13-8.38a46.842,46.842,0,0,1-.795-5.964L374.9,256l.265-20.528Z" transform="translate(-237.972 -150.469)" fill="#263238"/>
      <path id="Path_24267" data-name="Path 24267" d="M352.6,142.646l4.572-.323,10.464-.063,9.781,2.178-5.394,9.646-9.117,3.229-7.087-1.675-4.06-4.9Z" transform="translate(-225.224 -99.708)" fill="#ffbf9d"/>
      <path id="Path_24268" data-name="Path 24268" d="M364.842,166.129l.5-22.005-5.762-.9s-3.04,4.536-6.947,5.421a12.238,12.238,0,0,1-7.257-1.127c-3.93-2.771-3.242-4.855-3.242-4.855s-5.479-.305-7.715.355a7.79,7.79,0,0,0-4.576,5.174l2.133,3.921,2.075,12.548h0l1.873,7.9s-3.543,16.167-3.189,17.151c.256.728,10.89,6.058,35.388.1,1.069-.26-3.063-14.461-4.1-16.922Z" transform="translate(-213.148 -99.892)" fill="#ff725e"/>
      <path id="Path_24269" data-name="Path 24269" d="M416.327,167.9l-3.189-16.064C411.625,147.98,408.2,146,406.4,146h0l-.822,21.556.9,2.38Z" transform="translate(-254.874 -101.769)" fill="#ff725e"/>
      <path id="Path_24270" data-name="Path 24270" d="M325.78,155.96l-3.31,17.492,9.884,1.06-3.588-18.552Z" transform="translate(-209.088 -107.256)" fill="#ff725e"/>
      <path id="Path_24271" data-name="Path 24271" d="M372.069,208.744a4.155,4.155,0,0,1-.732-.225c-.449-.157-1.141-.409-1.958-.746a48.156,48.156,0,0,1-11.847-7.033c-.687-.557-1.23-1.024-1.594-1.347a5.21,5.21,0,0,1-.548-.534,4.108,4.108,0,0,1,.615.449c.382.314.939.759,1.639,1.293a56.356,56.356,0,0,0,11.807,7.01c.808.355,1.464.633,1.922.817a4.016,4.016,0,0,1,.7.314Z" transform="translate(-227.224 -130.89)" fill="#263238"/>
      <path id="Path_24272" data-name="Path 24272" d="M334.991,167a.723.723,0,0,1,.058.207c.036.166.076.364.126.6.1.557.247,1.307.422,2.214.359,1.909.84,4.491,1.374,7.316s1,5.447,1.307,7.329c.157.939.278,1.7.35,2.245.036.243.063.449.085.611a.725.725,0,0,1,0,.216,1.1,1.1,0,0,1-.058-.211l-.126-.6c-.1-.561-.247-1.311-.422-2.219-.359-1.9-.84-4.491-1.374-7.316s-1-5.447-1.307-7.325c-.157-.943-.278-1.7-.35-2.245-.036-.243-.058-.449-.081-.606A.657.657,0,0,1,334.991,167Z" transform="translate(-215.982 -113.338)" fill="#263238"/>
      <path id="Path_24273" data-name="Path 24273" d="M408.494,162.65c.063,0-.449,4.635-1.114,10.329s-1.28,10.329-1.347,10.329.449-4.635,1.114-10.329S408.431,162.641,408.494,162.65Z" transform="translate(-255.12 -110.941)" fill="#263238"/>
      <path id="Path_24274" data-name="Path 24274" d="M121.652,88.592l-.269-22.3c-.251-5.546,2.771-10.329,8.322-10.41h.512a9.92,9.92,0,0,1,9.512,9.525c.189,4.805.332,10.123.2,12.691-.287,5.322-5.645,5.928-5.645,5.928s-.031,3.238-.031,4.8l1.253,3.651-8.411,2.079Z" transform="translate(-98.299 -52.121)" fill="#ffbf9d"/>
      <path id="Path_24275" data-name="Path 24275" d="M141.7,115.735a12.858,12.858,0,0,1-6.844-2.335s1.5,4.069,6.831,3.813Z" transform="translate(-105.732 -83.809)" fill="#ff9a6c"/>
      <path id="Path_24276" data-name="Path 24276" d="M156.048,87.468a.759.759,0,0,1-.763.737.728.728,0,0,1-.754-.719.759.759,0,0,1,.763-.737.728.728,0,0,1,.754.719Z" transform="translate(-116.568 -69.127)" fill="#263238"/>
      <path id="Path_24277" data-name="Path 24277" d="M155.94,80.844c-.072.081-.665.112-1.419.449s-1.248.728-1.347.714,0-.117.229-.3a4.2,4.2,0,0,1,1.06-.624,3.633,3.633,0,0,1,1.15-.287C155.872,80.759,155.976,80.808,155.94,80.844Z" transform="translate(-115.8 -65.84)" fill="#263238"/>
      <path id="Path_24278" data-name="Path 24278" d="M139.829,87.474a.763.763,0,0,1-.754.741.728.728,0,0,1-.754-.719.763.763,0,0,1,.763-.737.732.732,0,0,1,.745.714Z" transform="translate(-107.638 -69.133)" fill="#263238"/>
      <path id="Path_24279" data-name="Path 24279" d="M138.254,82.513a14.239,14.239,0,0,0-1.347-.588c-.763-.238-1.428-.216-1.5-.287s.09-.094.373-.108a3.817,3.817,0,0,1,1.222.175,3.409,3.409,0,0,1,1.064.525C138.254,82.4,138.3,82.5,138.254,82.513Z" transform="translate(-106.027 -66.251)" fill="#263238"/>
      <path id="Path_24280" data-name="Path 24280" d="M147.447,87.84a5.111,5.111,0,0,1,1.347-.184c.211,0,.413-.049.449-.189a1.055,1.055,0,0,0-.121-.624c-.175-.516-.359-1.055-.548-1.617a26.879,26.879,0,0,1-1.217-4.217,26.766,26.766,0,0,1,1.549,4.109c.184.566.359,1.1.525,1.626a1.177,1.177,0,0,1,.076.822.53.53,0,0,1-.355.292,1.54,1.54,0,0,1-.359.036A5.537,5.537,0,0,1,147.447,87.84Z" transform="translate(-112.611 -65.965)" fill="#263238"/>
      <path id="Path_24281" data-name="Path 24281" d="M137.855,75.107c-.117.2-.9-.049-1.868-.108s-1.8.054-1.864-.166c-.04-.1.13-.283.476-.449a3.26,3.26,0,0,1,2.847.207C137.769,74.806,137.909,75.008,137.855,75.107Z" transform="translate(-105.323 -62.186)" fill="#263238"/>
      <path id="Path_24282" data-name="Path 24282" d="M155.756,75.819c-.175.18-.835-.031-1.635-.063s-1.482.09-1.635-.112c-.067-.094.045-.278.346-.449a2.735,2.735,0,0,1,2.636.139C155.747,75.536,155.851,75.729,155.756,75.819Z" transform="translate(-115.432 -62.611)" fill="#263238"/>
      <path id="Path_24283" data-name="Path 24283" d="M117.526,87.6c-.09-.04-3.593-1.231-3.647,2.412s3.633,2.924,3.638,2.82S117.526,87.6,117.526,87.6Z" transform="translate(-94.173 -69.477)" fill="#ffbf9d"/>
      <path id="Path_24284" data-name="Path 24284" d="M117.548,92.883a1.508,1.508,0,0,1-.171.09.651.651,0,0,1-.476,0,1.565,1.565,0,0,1-.71-1.415,2.034,2.034,0,0,1,.184-.9.741.741,0,0,1,.494-.49.323.323,0,0,1,.373.18c.049.1.027.175.045.18s.081-.058.049-.211a.4.4,0,0,0-.139-.229.476.476,0,0,0-.35-.094.9.9,0,0,0-.669.557,2.129,2.129,0,0,0-.229,1.015,1.635,1.635,0,0,0,.9,1.581.665.665,0,0,0,.579-.09C117.543,92.968,117.561,92.887,117.548,92.883Z" transform="translate(-95.313 -70.913)" fill="#ff9a6c"/>
      <path id="Path_24285" data-name="Path 24285" d="M136.966,59.181a8.209,8.209,0,0,1-6.453-1.235,10.873,10.873,0,0,1-1.464-1.379c-.808-.921-1.442-2.066-2.528-2.618-1.406-.719-3.1-.225-4.594.274l.063-.054a6.615,6.615,0,0,0-2.079,1.464A20.717,20.717,0,0,1,118.3,65.985a1.1,1.1,0,0,1-.593.606c-.853.337-.593-.795-1.226-1.01a5.389,5.389,0,0,0-1.689-.094c-.337-.9-.534-3.409-.817-4.76a6.287,6.287,0,0,1-1.567-3.633,8.128,8.128,0,0,1,.651-2.784c.925-1.751,1.46-2.65,2.879-3.144h.031a3.84,3.84,0,0,1,3.862.409,4.994,4.994,0,0,1,3.822-3.849,12.406,12.406,0,0,1,6.6.593,12.048,12.048,0,0,1,3.732,2.834h0c.184.184.364.373.552.57l.045.049a3.247,3.247,0,0,0,1.379.427,1.967,1.967,0,0,0,1.864-.763c.166-.184.377-.413.611-.337a.494.494,0,0,1,.283.35,2.286,2.286,0,0,1-.683,2.268,3.943,3.943,0,0,1-.988.678,2.573,2.573,0,0,0,1.469.817,1.85,1.85,0,0,1,1.231.786,1.253,1.253,0,0,1,.234.71C139.984,58.252,138.453,58.957,136.966,59.181Z" transform="translate(-93.364 -47.509)" fill="#263238"/>
      <path id="Path_24286" data-name="Path 24286" d="M149.327,59.75l-.04.036-.135.1a2.162,2.162,0,0,1-.229.139,2.218,2.218,0,0,1-.328.166,4.653,4.653,0,0,1-2.286.386A6.036,6.036,0,0,1,143.1,59.35a10.491,10.491,0,0,1-2.726-3.215c-.382-.651-.692-1.316-1.033-1.931a7.06,7.06,0,0,0-1.172-1.639,3.624,3.624,0,0,0-1.527-.948,2.515,2.515,0,0,0-.808-.1,2.811,2.811,0,0,0-.741.135,3.081,3.081,0,0,0-1.733,1.428,3.629,3.629,0,0,0-.283.8.517.517,0,0,1,0-.058.6.6,0,0,1,.027-.162,2.7,2.7,0,0,1,.211-.6,2.977,2.977,0,0,1,.624-.822,3.144,3.144,0,0,1,1.141-.692,2.951,2.951,0,0,1,.763-.144,2.618,2.618,0,0,1,.844.1,3.678,3.678,0,0,1,1.576.966,7.117,7.117,0,0,1,1.2,1.662c.346.62.656,1.28,1.033,1.927a10.522,10.522,0,0,0,2.695,3.189,6.018,6.018,0,0,0,3.144,1.231,4.868,4.868,0,0,0,2.245-.341A7.05,7.05,0,0,0,149.327,59.75Z" transform="translate(-104.75 -49.649)" fill="#455a64"/>
      <path id="Path_24287" data-name="Path 24287" d="M163.5,64.747a.9.9,0,0,1-.18.112,4.17,4.17,0,0,1-.57.283,5.764,5.764,0,0,1-.9.283,6.767,6.767,0,0,1-1.15.139,6.175,6.175,0,0,1-1.15-.094,4.9,4.9,0,0,1-.9-.247,3.664,3.664,0,0,1-.584-.256,1.055,1.055,0,0,1-.2-.121c0-.022.305.135.808.3a6.541,6.541,0,0,0,.9.216,6.881,6.881,0,0,0,1.132.081,6.705,6.705,0,0,0,1.127-.126,5.969,5.969,0,0,0,.9-.256C163.2,64.891,163.488,64.725,163.5,64.747Z" transform="translate(-118.408 -57.005)" fill="#455a64"/>
      <path id="Path_24288" data-name="Path 24288" d="M120.973,70.92a1,1,0,0,1,.049.346,6.454,6.454,0,0,1,0,.952,3.144,3.144,0,0,1-.112.669.377.377,0,0,1-.364.269.71.71,0,0,1-.4-.2l-1.3-1.2.193-.112.184.781c.175.737.337,1.433.485,2.075l.081.346-.256-.243a8.447,8.447,0,0,1-1.446-1.8,3.094,3.094,0,0,1-.391-.795,13.307,13.307,0,0,0,1.981,2.421l-.175.1c-.157-.638-.323-1.347-.5-2.07-.063-.265-.126-.53-.189-.781l-.09-.382.283.269,1.28,1.222a.517.517,0,0,0,.278.162.2.2,0,0,0,.189-.144,3.448,3.448,0,0,0,.126-.62C120.973,71.405,120.941,70.92,120.973,70.92Z" transform="translate(-96.273 -60.406)" fill="#455a64"/>
      <path id="Path_24289" data-name="Path 24289" d="M143.415,99.569c-.058,0-2.789-1.069-2.789-1.069s-.786,1.576.166,2.3a1.644,1.644,0,0,0,2.3-.166,7.04,7.04,0,0,0,.319-1.069Z" transform="translate(-108.741 -75.6)" fill="#ff9a6c"/>
      <path id="Path_24290" data-name="Path 24290" d="M142.583,100.762a2.788,2.788,0,0,1-.386.121,2.659,2.659,0,0,1-1.064-.063h0a1.563,1.563,0,0,1-.795-.593,1.513,1.513,0,0,1-.1-1.15,3.094,3.094,0,0,1,.26-.7l-.139.049c.831.31,1.558.575,2.079.754a4.09,4.09,0,0,0,.853.247,3.781,3.781,0,0,0-.8-.386c-.507-.216-1.226-.507-2.048-.826l-.094-.036-.045.085a2.86,2.86,0,0,0-.292.759A1.486,1.486,0,0,0,141.078,101h0a2.47,2.47,0,0,0,1.136,0C142.493,100.91,142.592,100.794,142.583,100.762Z" transform="translate(-108.519 -75.424)" fill="#263238"/>
      <path id="Path_24291" data-name="Path 24291" d="M84.411,229.53s-3.171,3.925-4.7,19.041-5.254,15.13-2.847,21.314,32.51,6.081,36.574,3.278c9.112-6.287,5.614-39.426,5.614-39.426l-16.405,3.117Z" transform="translate(-73.345 -147.786)" fill="#455a64"/>
      <path id="Path_24292" data-name="Path 24292" d="M170.321,160.72s1.9,19.244,2.016,21.238.427,14.425.93,21.97l-4.882-.539s-4.2-20.209-4.19-20.6-1.406-19.693-1.406-19.693Z" transform="translate(-121.119 -109.878)" fill="#ffbf9d"/>
      <path id="Path_24293" data-name="Path 24293" d="M188.17,278.63s5.542,11.42,6.912,11.878,11.227-4.154,11.227-4.154l1.639-8.084s-1.347.507-3.445,1.347-7.769,3.5-7.769,3.5L191.1,276.2Z" transform="translate(-135.101 -173.497)" fill="#ffbf9d"/>
      <path id="Path_24294" data-name="Path 24294" d="M184.738,265.42s1.181,1.024,1.972,1.855a8.86,8.86,0,0,1,1.347,2.946L190.172,273l-3.144,3.525-.984-2.272-2.474-1.8-.921-2.9Z" transform="translate(-132.06 -167.558)" fill="#ffbf9d"/>
      <path id="Path_24295" data-name="Path 24295" d="M173.049,236.087c.072.135.9,6.35.543,7.006a6.9,6.9,0,0,0-.449,3.144s.476,4.042.692,5.349.552,2.443,1.473,1.909.988-1.374.449-3.714l.207-1.383.822.759,1.235,3.633s-1.742,3.166-1.347,3.8.822.377.822.377l.525.292,2.969-3.916-.1-5.277-2.362-6.094-.359-9.076-5.838-3.144Z" transform="translate(-126.374 -147.907)" fill="#ffbf9d"/>
      <path id="Path_24296" data-name="Path 24296" d="M180.108,270.392c-.844-.207-.207-1.927.341-2.659a.767.767,0,0,1,.763-.4.6.6,0,0,1,.377.606c0,.256-.26.449-.377.669.058-.18.256-.305.377-.449a.512.512,0,0,1,.5-.2c.283.076.373.449.368.723a3.247,3.247,0,0,1-.265,1.275c.049-.2,0,0,.121-.166a.476.476,0,0,1,.894.153,1.378,1.378,0,0,1,0,.575,7.284,7.284,0,0,1-1.275,3.022,1.451,1.451,0,0,1-.876-1.226,1.347,1.347,0,0,1-.975-.723,1.32,1.32,0,0,1,.031-1.208" transform="translate(-130.434 -168.605)" fill="#ffbf9d"/>
      <path id="Path_24297" data-name="Path 24297" d="M180.067,270.3a.486.486,0,0,0-.1.144,1.243,1.243,0,0,0-.112.5,1.348,1.348,0,0,0,.225.786,1.428,1.428,0,0,0,.921.6l-.09-.094a1.576,1.576,0,0,0,.93,1.347l.09.036.058-.076a7.32,7.32,0,0,0,1.082-2.115,5.8,5.8,0,0,0,.274-1.307.8.8,0,0,0-.328-.714.553.553,0,0,0-.449-.072.732.732,0,0,0-.359.225c-.045.045-.081.1-.085.1h.09c-.171,0-.162.1-.171.085a.189.189,0,0,0,0,.04v.076l.287.081a5.157,5.157,0,0,0,.243-.871,3.754,3.754,0,0,0,.027-.449,1.294,1.294,0,0,0-.081-.449.624.624,0,0,0-.35-.382.579.579,0,0,0-.512.072.714.714,0,0,0-.184.162l-.126.13a.9.9,0,0,0-.269.359l.251.108c.072-.148.225-.287.328-.494a.745.745,0,0,0-.049-.665.6.6,0,0,0-.557-.314.867.867,0,0,0-.521.265,3.983,3.983,0,0,0-.8,1.567,1.532,1.532,0,0,0,.027,1.141.418.418,0,0,0,.35.216c0-.027-.157-.045-.274-.256a1.527,1.527,0,0,1,.054-1.055,3.961,3.961,0,0,1,.8-1.451.647.647,0,0,1,.377-.189.355.355,0,0,1,.323.2.481.481,0,0,1,.031.427c-.063.144-.22.274-.332.481l.247.108a.741.741,0,0,1,.2-.251,1.535,1.535,0,0,0,.148-.148.449.449,0,0,1,.121-.1.283.283,0,0,1,.449.175,1.828,1.828,0,0,1,.027.772,5.425,5.425,0,0,1-.234.817l.283.081v-.072H182.2l-.031.139h0c.135,0,.135-.045.157-.054s.081-.1.108-.126a.328.328,0,0,1,.422-.1.53.53,0,0,1,.2.449,5.717,5.717,0,0,1-.251,1.226,7.185,7.185,0,0,1-1.015,2.052l.148-.04a1.347,1.347,0,0,1-.817-1.123v-.081h-.076a1.244,1.244,0,0,1-.822-.49,1.275,1.275,0,0,1-.247-.7A2.012,2.012,0,0,1,180.067,270.3Z" transform="translate(-130.393 -168.51)" fill="#ff9a6c"/>
      <path id="Path_24298" data-name="Path 24298" d="M183.9,272.895c-.054-.054-.566.386-.925,1.127a2.237,2.237,0,0,0-.314,1.428,11.94,11.94,0,0,0,.579-1.3A9.862,9.862,0,0,0,183.9,272.895Z" transform="translate(-132.043 -171.673)" fill="#ff9a6c"/>
      <path id="Path_24299" data-name="Path 24299" d="M181.837,269.184c-.058-.054-.521.368-.925,1.024a2.467,2.467,0,0,0-.5,1.284,5.148,5.148,0,0,0,.754-1.127A4.686,4.686,0,0,0,181.837,269.184Z" transform="translate(-130.815 -169.629)" fill="#ff9a6c"/>
      <path id="Path_24300" data-name="Path 24300" d="M187.3,277.4c.189-.242.386-.494.584-.754l.31-.409a1.266,1.266,0,0,0,.216-.534c0-1.455-.054-2.695-.09-3.62a7.634,7.634,0,0,0-.13-1.482,7.406,7.406,0,0,0-.076,1.486v3.566a.974.974,0,0,1-.166.418l-.3.4-.57.763-.952,1.307a7.711,7.711,0,0,0-.813,1.248,7.7,7.7,0,0,0,.984-1.123" transform="translate(-133.531 -170.412)" fill="#ff9a6c"/>
      <path id="Path_24301" data-name="Path 24301" d="M74.293,249.419a3.629,3.629,0,0,0,1.1,2.106,8.661,8.661,0,0,1,1.469,2.9s.871,4.042,1.087,5.389.269,2.528-.79,2.317-1.4-1-1.657-3.422l-.656-1.266-.534,1v3.9s2.695,2.474,2.551,3.211-.669.629-.669.629l-.422.422-4.136-2.789L70,258.688l.269-6.638-.193-7.54,4.724,1.213Z" transform="translate(-70 -156.039)" fill="#ffbf9d"/>
      <path id="Path_24302" data-name="Path 24302" d="M81.155,139.54s-3.961-1.325-4.814,3.233-2.573,16.185-2.807,18.1a61.66,61.66,0,0,1-2.214,10.63c-1.554,5.353-1.033,19.477-1.033,19.477h4.186s4.123-12.081,4.94-18.292,2.421-8.888,2.034-11.407,1.01-8.95,1.01-8.95Z" transform="translate(-70.112 -98.111)" fill="#ffbf9d"/>
      <path id="Path_24303" data-name="Path 24303" d="M137.589,411.723l-.49,10.226s10.073,3.943,10.163,5.838l-19.562-.256.121-15.961Z" transform="translate(-101.787 -248.073)" fill="#263238"/>
      <path id="Path_24304" data-name="Path 24304" d="M134.479,432.547a.808.808,0,0,0-.561.9.763.763,0,0,0,.9.575.853.853,0,0,0,.593-.975.79.79,0,0,0-.993-.494" transform="translate(-105.207 -259.611)" fill="#e0e0e0"/>
      <path id="Path_24305" data-name="Path 24305" d="M127.7,445.138l.072-1.608,18.727.849s.867.4.763,1.015Z" transform="translate(-101.787 -265.68)" fill="#455a64"/>
      <path id="Path_24306" data-name="Path 24306" d="M147.137,434.354c0,.1-.485.135-.957.449s-.732.71-.817.674.063-.6.642-.961S147.159,434.269,147.137,434.354Z" transform="translate(-111.506 -260.578)" fill="#fff"/>
      <path id="Path_24307" data-name="Path 24307" d="M152.277,436.392c.022.094-.4.256-.723.66s-.449.84-.525.831-.148-.552.269-1.051S152.277,436.3,152.277,436.392Z" transform="translate(-114.607 -261.726)" fill="#fff"/>
      <path id="Path_24308" data-name="Path 24308" d="M156.272,439.956c-.09,0-.216-.449.036-1s.7-.732.741-.651-.243.359-.449.8S156.367,439.956,156.272,439.956Z" transform="translate(-117.466 -262.793)" fill="#fff"/>
      <path id="Path_24309" data-name="Path 24309" d="M146.5,428.807c-.04.085-.476-.054-1.019-.022s-.961.2-1.01.112.359-.422,1-.449S146.563,428.731,146.5,428.807Z" transform="translate(-111.027 -257.371)" fill="#fff"/>
      <path id="Path_24310" data-name="Path 24310" d="M87.054,419.52l-1.078,12.341,1.931,10.006a1.262,1.262,0,0,1-1.033,1.5h0a1.23,1.23,0,0,1-1.073-.4c-1.742-1.931-8.124-9.063-7.994-9.961.144-1.042.265-13.091.265-13.091Z" transform="translate(-74.3 -252.453)" fill="#263238"/>
      <path id="Path_24311" data-name="Path 24311" d="M86.872,458.891,77.837,447.7l-.031.525a1.927,1.927,0,0,0,.368,1.262c.714.975,2.744,3.615,7.572,9a1.222,1.222,0,0,0,1.109.4Z" transform="translate(-74.298 -267.978)" fill="#455a64"/>
      <g id="Group_163400" data-name="Group 163400" transform="translate(5.156 175.754)" opacity="0.6">
        <path id="Path_24312" data-name="Path 24312" d="M82.612,439.006a.781.781,0,0,1,.144,1.015.723.723,0,0,1-.992.153.817.817,0,0,1-.144-1.073.75.75,0,0,1,1.046-.045" transform="translate(-81.481 -438.864)" fill="#fff"/>
      </g>
      <path id="Path_24313" data-name="Path 24313" d="M92.517,458.59a3.876,3.876,0,0,1,1.127-.9,3.664,3.664,0,0,1,1.419-.18c0-.031-.135-.139-.418-.2a1.985,1.985,0,0,0-1.972.831C92.517,458.4,92.485,458.581,92.517,458.59Z" transform="translate(-82.399 -273.259)" fill="#fff"/>
      <path id="Path_24314" data-name="Path 24314" d="M94.213,463.058a10,10,0,0,1,1.114-.449,10.44,10.44,0,0,1,1.2-.081,1.375,1.375,0,0,0-1.257-.184C94.541,462.519,94.155,463.022,94.213,463.058Z" transform="translate(-83.336 -276.015)" fill="#fff"/>
      <path id="Path_24315" data-name="Path 24315" d="M89.23,453.658a12.487,12.487,0,0,1,1.671-.831,15.087,15.087,0,0,1,1.832-.31,2.748,2.748,0,0,0-1.918.049A2.78,2.78,0,0,0,89.23,453.658Z" transform="translate(-80.594 -270.549)" fill="#fff"/>
      <path id="Path_24316" data-name="Path 24316" d="M89.26,446.3c.027.076.719-.162,1.594-.139s1.558.283,1.59.211a2.376,2.376,0,0,0-1.581-.481,2.4,2.4,0,0,0-1.6.409Z" transform="translate(-80.61 -266.976)" fill="#fff"/>
      <path id="Path_24317" data-name="Path 24317" d="M89.749,438.157a6.1,6.1,0,0,1,1.657-.193,6.012,6.012,0,0,1,1.6.521.973.973,0,0,0-.373-.373,2.7,2.7,0,0,0-2.439-.247C89.884,437.991,89.735,438.13,89.749,438.157Z" transform="translate(-80.879 -262.458)" fill="#fff"/>
      <path id="Path_24318" data-name="Path 24318" d="M91.545,433.728a.992.992,0,0,0,.045-.449,3.171,3.171,0,0,0-.265-1.244,1.424,1.424,0,0,0-.566-.728.49.49,0,0,0-.57.076.844.844,0,0,0-.229.543,1.8,1.8,0,0,0,1.442,1.756,2.043,2.043,0,0,0,2.079-.952.723.723,0,0,0,.067-.6.485.485,0,0,0-.494-.3,1.715,1.715,0,0,0-.831.373,3.592,3.592,0,0,0-.9.9,1.069,1.069,0,0,0-.216.413,5.685,5.685,0,0,1,1.208-1.159,1.572,1.572,0,0,1,.732-.305.269.269,0,0,1,.274.157.5.5,0,0,1-.072.391,1.823,1.823,0,0,1-1.8.808,1.549,1.549,0,0,1-1.244-1.473.624.624,0,0,1,.144-.391.274.274,0,0,1,.314-.045,1.311,1.311,0,0,1,.49.606,4.774,4.774,0,0,1,.386,1.621Z" transform="translate(-80.996 -258.915)" fill="#fff"/>
      <path id="Path_24319" data-name="Path 24319" d="M116.522,223.393a84.287,84.287,0,0,1,.135,13.473c-.211,2.748-8.533,78.272-8.533,78.272H95.782l3.467-71.473-1.01.225S91.5,274.369,90.955,279.3c-.494,4.437-6.539,39.3-6.539,39.3l-11.636-.13,4.329-45.008,5-40.6,1.707-11.353Z" transform="translate(-71.532 -143.373)" fill="#263238"/>
      <path id="Path_24320" data-name="Path 24320" d="M167.849,136.93a7.713,7.713,0,0,1,3.144,5.542l2.34,13.922-6.665,1.886-2.308-15.848Z" transform="translate(-121.984 -96.772)" fill="#ff725e"/>
      <path id="Path_24321" data-name="Path 24321" d="M120.445,124.608l7.468,4.316c.624,4.316-.319,28.7-.319,28.7l.35,23.38c-10.464,5.389-23.272,3.624-36.067-.7a4.109,4.109,0,0,1,.75-2.3l2.317-21.107s-.53-15.839-.53-16.136-1.141-15.013-1.141-15.013l12.283-3.8s5.209,4.491,9.364,4.7a2.949,2.949,0,0,0,3.4-3.144Z" transform="translate(-82.048 -88.514)" fill="#ff725e"/>
      <path id="Path_24322" data-name="Path 24322" d="M172.147,150.32a3.94,3.94,0,0,0-.045.71c0,.5,0,1.145-.04,1.927,0,1.671-.045,3.9-.072,6.364s-.085,4.729-.144,6.355c-.022.781-.045,1.433-.063,1.927a4.533,4.533,0,0,0,0,.71,3.717,3.717,0,0,0,.09-.705c.045-.449.094-1.109.139-1.922.1-1.626.175-3.876.207-6.364s.027-4.733,0-6.364c0-.781-.027-1.428-.036-1.927A5.039,5.039,0,0,0,172.147,150.32Z" transform="translate(-126.065 -104.149)" fill="#263238"/>
      <path id="Path_24323" data-name="Path 24323" d="M83.189,130.11c-.287.094-3.593,1.073-5.425,5.838s-4.2,17.227-4.2,17.227l11.358,2.295,1.7-15.44Z" transform="translate(-71.961 -93.015)" fill="#ff725e"/>
      <path id="Path_24324" data-name="Path 24324" d="M101.172,155a2.7,2.7,0,0,0-.108.552c-.058.4-.13.9-.216,1.513-.184,1.28-.449,3.045-.781,4.989s-.692,3.692-.952,4.94c-.121.6-.225,1.1-.31,1.5a2.618,2.618,0,0,0-.085.557,2.744,2.744,0,0,0,.171-.534c.1-.35.229-.858.382-1.486.3-1.257.678-3.009,1.015-4.94s.579-3.718.719-5c.072-.642.121-1.168.148-1.527a2.8,2.8,0,0,0,.018-.561Z" transform="translate(-85.822 -106.727)" fill="#263238"/>
      <path id="Path_24325" data-name="Path 24325" d="M95.72,133a10.617,10.617,0,0,1,2.569,2.326,10.473,10.473,0,0,1,1.482,3.144,2.856,2.856,0,0,0-.175-1.024,7.217,7.217,0,0,0-2.946-3.97A3.009,3.009,0,0,0,95.72,133Z" transform="translate(-84.169 -94.607)" fill="#263238"/>
      <path id="Path_24326" data-name="Path 24326" d="M133.91,315.47Z" transform="translate(-105.209 -195.131)" fill="#455a64"/>
      <path id="Path_24327" data-name="Path 24327" d="M133.91,315.47Z" transform="translate(-105.209 -195.131)" fill="#455a64"/>
      <path id="Path_24328" data-name="Path 24328" d="M93.538,227.47l18.862,6.314-.449,4.455-19.827-2.65S91.041,229.814,93.538,227.47Z" transform="translate(-82.06 -146.651)" fill="#455a64"/>
      <path id="Path_24329" data-name="Path 24329" d="M137.049,235.89s15.754-4.962,15.588-4.576,2.443,3.939-.063,6.947L136.6,240.345l.449-4.042" transform="translate(-106.69 -148.757)" fill="#455a64"/>
      <circle id="Ellipse_1848" data-name="Ellipse 1848" cx="3.494" cy="3.494" r="3.494" transform="translate(27.179 85.575)" fill="#455a64"/>
      <path id="Path_24330" data-name="Path 24330" d="M126.457,271.319c1.284-1.945.934-4.491.422-6.786-.808-3.552-1.9-7.073-2.124-10.711s1.41-6.651,3.84-9.373l-4.109-1.59c-5.977,8.4-7.576,20.946-5.061,30.942a4.011,4.011,0,0,0,.507,1.316,2.924,2.924,0,0,0,2.564,1.114,8.734,8.734,0,0,0,2.8-.763,9.448,9.448,0,0,0-.265-2.205A22.844,22.844,0,0,1,126.457,271.319Z" transform="translate(-96.597 -155.13)" fill="#455a64"/>
      <path id="Path_24331" data-name="Path 24331" d="M141.908,251.667c-1.828-3.117-2.919-4.01-3.593-8.187l-2.461.112c-1.347,6.188-.265,12.067.287,15.009.543,2.861.719,4.9,2.317,6.6,1.28,1.347,3.292,2.133,3.961,3.88l3.2-1.446c-.862-1.823-.054-3.952.049-5.968C145.833,258.053,143.736,254.784,141.908,251.667Z" transform="translate(-105.922 -155.471)" fill="#455a64"/>
      <path id="Path_24332" data-name="Path 24332" d="M136.892,241.268a.951.951,0,0,1,.09.13,2.389,2.389,0,0,1,.184.413,3.346,3.346,0,0,1,.121,1.662,3.593,3.593,0,0,1-1.222,2.138,3.66,3.66,0,0,1-5.389-1.042,3.593,3.593,0,0,1-.3-2.448,3.431,3.431,0,0,1,.754-1.482,2.1,2.1,0,0,1,.332-.31c.081-.067.126-.094.13-.09s-.157.153-.391.449a3.593,3.593,0,0,0-.665,1.46,3.378,3.378,0,0,0,5.371,3.287,3.53,3.53,0,0,0,1.15-3.593C136.973,241.479,136.865,241.277,136.892,241.268Z" transform="translate(-103.21 -153.686)" fill="#263238"/>
      <path id="Path_24333" data-name="Path 24333" d="M138.04,245.608c-.036,0-.135-.364-.386-.93a7.5,7.5,0,0,0-1.32-1.989,7.414,7.414,0,0,0-1.9-1.46,8.784,8.784,0,0,1-.9-.449,2.771,2.771,0,0,1,.97.305,6.373,6.373,0,0,1,1.994,1.446,6.44,6.44,0,0,1,1.3,2.088,2.735,2.735,0,0,1,.234.988Z" transform="translate(-105.005 -153.984)" fill="#263238"/>
      <path id="Path_24334" data-name="Path 24334" d="M127.52,248.058a4.042,4.042,0,0,1,.494-1.275,4.154,4.154,0,0,1,.705-1.172,4.185,4.185,0,0,1-.494,1.275,3.992,3.992,0,0,1-.705,1.172Z" transform="translate(-101.688 -156.645)" fill="#263238"/>
      <path id="Path_24335" data-name="Path 24335" d="M247.284,428.3l-.094-3.117s6.193-.067,6.171,0-.422,3.593-.422,3.593l-3.175,1.612Z" transform="translate(-167.615 -255.557)" fill="#e0e0e0"/>
      <path id="Path_24336" data-name="Path 24336" d="M246.981,433.815c.135.449,6.467,4.195,8.232,5.183a1.114,1.114,0,0,0,.921.067h0a.862.862,0,0,0,.521-1.226l-3.525-6.467s-.269-.759-.269-.772a5.952,5.952,0,0,1-5.838.3v.449l-.251,1.8a3.223,3.223,0,0,0,.211.674" transform="translate(-167.384 -258.557)" fill="#455a64"/>
      <path id="Path_24337" data-name="Path 24337" d="M260.29,438.625a6.943,6.943,0,0,1,.719-.66,7.524,7.524,0,0,1,.9-.449,1.307,1.307,0,0,0-1,.283C260.407,438.176,260.24,438.625,260.29,438.625Z" transform="translate(-174.828 -262.361)" fill="#263238"/>
      <path id="Path_24338" data-name="Path 24338" d="M259.134,436.707c.049.022.269-.364.719-.665a7.919,7.919,0,0,1,.9-.427,1.307,1.307,0,0,0-1,.283C259.25,436.231,259.066,436.681,259.134,436.707Z" transform="translate(-174.188 -261.314)" fill="#263238"/>
      <path id="Path_24339" data-name="Path 24339" d="M256.2,441.778a1.064,1.064,0,0,1-1.168.045c-4.886-2.762-7.8-4.464-8.533-5.245l.175-.858Z" transform="translate(-167.235 -261.378)" fill="#e0e0e0"/>
      <path id="Path_24340" data-name="Path 24340" d="M257.91,434.713a7.268,7.268,0,0,1,.719-.665,9.684,9.684,0,0,1,.9-.449,1.347,1.347,0,0,0-1,.287C258.027,434.223,257.86,434.7,257.91,434.713Z" transform="translate(-173.516 -260.204)" fill="#263238"/>
      <path id="Path_24341" data-name="Path 24341" d="M224.18,404.973l.9-1.823s5.542,2.371,5.483,2.421-1.841,2.632-1.841,2.632L225.128,408Z" transform="translate(-154.939 -243.435)" fill="#e0e0e0"/>
      <path id="Path_24342" data-name="Path 24342" d="M220.994,408.852c-.13.449,3.233,6.8,4.2,8.533a1.064,1.064,0,0,0,.741.49h0a.9.9,0,0,0,1.114-.79l.521-7.271s.184-.786.193-.795a5.843,5.843,0,0,1-5.156-2.659l-.238.391-1.19,1.406a3.013,3.013,0,0,0-.189.678" transform="translate(-153.182 -245.203)" fill="#455a64"/>
      <path id="Path_24343" data-name="Path 24343" d="M230.9,419.877a8.37,8.37,0,0,1,.975-.207,9.037,9.037,0,0,1,.993.076A1.689,1.689,0,0,0,230.9,419.877Z" transform="translate(-158.641 -252.437)" fill="#263238"/>
      <path id="Path_24344" data-name="Path 24344" d="M231,417.612a8.384,8.384,0,0,1,.975-.207,7.916,7.916,0,0,1,1,.076,1.347,1.347,0,0,0-1.01-.251A1.3,1.3,0,0,0,231,417.612Z" transform="translate(-158.696 -251.183)" fill="#263238"/>
      <path id="Path_24345" data-name="Path 24345" d="M225.846,419.895a1.037,1.037,0,0,1-1.019-.543c-2.659-4.787-4.217-7.693-4.437-8.735l.62-.647Z" transform="translate(-152.851 -247.192)" fill="#e0e0e0"/>
      <path id="Path_24346" data-name="Path 24346" d="M231,415.311a8.377,8.377,0,0,1,.975-.207,9.022,9.022,0,0,1,.992.076,1.32,1.32,0,0,0-1.006-.252,1.307,1.307,0,0,0-.961.382Z" transform="translate(-158.696 -249.915)" fill="#263238"/>
      <path id="Path_24347" data-name="Path 24347" d="M223.829,340.25a9.415,9.415,0,0,0-1.033,7.522c1.136,4.572,5.048,10.374,5.048,10.374s-4.118,8.084-4.325,9.525,6.1,4.527,6.1,4.527,7.738-8.982,9.391-12.889-4.4-14.789-4.4-14.789Z" transform="translate(-153.995 -208.783)" fill="#263238"/>
      <path id="Path_24348" data-name="Path 24348" d="M258.712,339.466v-.346l-12.619,3.57-.853,16.356a85.481,85.481,0,0,1,.04,9.206c-.287,3.557-.04,11.51-.04,11.51h7.994c.584-3.44,1.76-11.6,1.76-11.6s3.512-19.122,3.718-22.49A59.468,59.468,0,0,0,258.712,339.466Z" transform="translate(-166.486 -208.16)" fill="#263238"/>
      <path id="Path_24349" data-name="Path 24349" d="M245.671,357.35a1.252,1.252,0,0,1,.121.26c.067.171.171.427.292.754.247.665.588,1.626.966,2.829a36.585,36.585,0,0,1,1.1,4.3c.063.413.139.835.166,1.28a4.683,4.683,0,0,1,.027.669,2.609,2.609,0,0,1-.072.692,10.451,10.451,0,0,1-1.222,2.56,53.339,53.339,0,0,1-3.144,4.432c-1.024,1.316-1.98,2.474-2.793,3.44s-1.491,1.729-1.963,2.245l-.548.629c-.126.135-.2.207-.207.2a1.645,1.645,0,0,1,.171-.225l.516-.629,1.9-2.3c.8-.975,1.738-2.142,2.753-3.467s2.106-2.793,3.117-4.424a10.369,10.369,0,0,0,1.2-2.488,2.2,2.2,0,0,0,.063-.642,4.492,4.492,0,0,0-.022-.651,12.494,12.494,0,0,0-.157-1.257,38.857,38.857,0,0,0-1.046-4.289c-.355-1.208-.674-2.178-.9-2.847-.1-.314-.189-.57-.251-.772a1.092,1.092,0,0,1-.072-.3Z" transform="translate(-162.773 -218.203)" fill="#455a64"/>
      <path id="Path_24350" data-name="Path 24350" d="M224.106,273.82s-4.832.26-6.584.984c-1.464.606-8,3.943-8,3.943s3.965,8.658,4.042,8.51l4.459-2.3Z" transform="translate(-146.863 -172.186)" fill="#ff725e"/>
      <path id="Path_24351" data-name="Path 24351" d="M241.221,215.9a2.762,2.762,0,0,1,1.882,2.488s-.081-.175.687-.225a2.4,2.4,0,0,1,1.841.561c.449.449,1.379,1.8.71,2.933,1.141.741,0,4.311-.373,5.187-.521,1.257-.759,1.172-2,1.729-2,.9-2.425-.31-4.491-1.01a54.653,54.653,0,0,0-11.937-2.138,5.294,5.294,0,0,1,2.4-6.287c2.12-1.051,4.136-.292,6.777-1.711C236.708,217.429,239.281,215.4,241.221,215.9Z" transform="translate(-156.621 -140.234)" fill="#263238"/>
      <path id="Path_24352" data-name="Path 24352" d="M250.365,239.382A47.4,47.4,0,0,0,247.8,230.4c-1.01-2.892-5-4.94-7.85-3.808l-7.67,4.019.126,1.513,3.382,10.724,1.347,8.358,9.391-1.01-.139-4.491a5.614,5.614,0,0,0,3.979-6.323Z" transform="translate(-159.401 -145.993)" fill="#ffbf9d"/>
      <path id="Path_24353" data-name="Path 24353" d="M265.092,245.29a.647.647,0,0,1-.427.8.624.624,0,0,1-.808-.382.656.656,0,0,1,.427-.808.629.629,0,0,1,.808.386Z" transform="translate(-176.783 -156.235)" fill="#263238"/>
      <path id="Path_24354" data-name="Path 24354" d="M264.03,241.345c-.045.081-.548.2-1.132.584s-.925.831-1.01.835,0-.108.135-.305a3.293,3.293,0,0,1,.781-.714,2.9,2.9,0,0,1,.93-.418C263.954,241.278,264.053,241.3,264.03,241.345Z" transform="translate(-175.694 -154.27)" fill="#263238"/>
      <path id="Path_24355" data-name="Path 24355" d="M252.878,248.889a.656.656,0,0,1-.449.8.629.629,0,0,1-.808-.386.656.656,0,0,1,.449-.8.624.624,0,0,1,.808.386Z" transform="translate(-170.043 -158.217)" fill="#263238"/>
      <path id="Path_24356" data-name="Path 24356" d="M249.826,246.009c-.081.054-.579-.108-1.28-.054s-1.208.283-1.284.242.04-.108.265-.211a2.923,2.923,0,0,1,1.028-.251,2.645,2.645,0,0,1,1.015.1C249.8,245.905,249.871,245.986,249.826,246.009Z" transform="translate(-167.642 -156.706)" fill="#263238"/>
      <path id="Path_24357" data-name="Path 24357" d="M259.487,250.45c0-.031.027-.067.687-.337.171-.063.323-.135.328-.238a.621.621,0,0,0-.22-.364l-.781-.9a11.439,11.439,0,0,1-1.19-1.549c.067-.04.346.135,1.442,1.392l.763.9c.1.135.265.278.229.5a.449.449,0,0,1-.229.283,1.762,1.762,0,0,1-.287.117C259.554,250.49,259.487,250.45,259.487,250.45Z" transform="translate(-173.742 -157.443)" fill="#263238"/>
      <path id="Path_24358" data-name="Path 24358" d="M255.849,269.383a11.378,11.378,0,0,1-6.409-.1s1.19,2.528,6.453,1.639Z" transform="translate(-168.855 -169.685)" fill="#ff9a6c"/>
      <path id="Path_24359" data-name="Path 24359" d="M247.5,240.556c0,.234-.647.238-1.347.485s-1.217.611-1.347.449c-.058-.085,0-.31.2-.566a2,2,0,0,1,.939-.669,1.8,1.8,0,0,1,1.109-.027C247.341,240.3,247.507,240.448,247.5,240.556Z" transform="translate(-166.289 -153.638)" fill="#263238"/>
      <path id="Path_24360" data-name="Path 24360" d="M262.16,236.034c-.058.22-.6.207-1.181.409s-1.019.5-1.2.355c-.081-.072-.067-.278.085-.521a1.572,1.572,0,0,1,.849-.638,1.621,1.621,0,0,1,1.069,0C262.048,235.751,262.183,235.926,262.16,236.034Z" transform="translate(-174.524 -151.101)" fill="#263238"/>
      <path id="Path_24361" data-name="Path 24361" d="M225.01,232.63a3.791,3.791,0,0,0-2.537,4.451,10.387,10.387,0,0,0,4.8,7.392,6.3,6.3,0,0,0,3.022,1.033l.063-6.422Z" transform="translate(-153.968 -149.494)" fill="#263238"/>
      <path id="Path_24362" data-name="Path 24362" d="M243.559,226.916a7.406,7.406,0,0,0-5.335-2.138,12.2,12.2,0,0,0-5.641,1.531,36.421,36.421,0,0,0-4.909,3.269,1.949,1.949,0,0,0-.9,1.087,1.873,1.873,0,0,0,.144.948q1.293,3.889,2.582,7.774l1.15,1.424a3.147,3.147,0,0,0,1.8-1.841,12.206,12.206,0,0,0,.543-9.013,4.118,4.118,0,0,1,.777,1.015,1.347,1.347,0,0,0,1.028.692c.714,0,1.069-.9.988-1.621a6.181,6.181,0,0,1-.234-2.12,8.2,8.2,0,0,0,3.265,1.675,1.517,1.517,0,0,0,1.612-.292,1.1,1.1,0,0,0,0-1.168,3.31,3.31,0,0,0-.849-.9,6.422,6.422,0,0,0,3.534.988.9.9,0,0,0,.737-.269C244.085,227.648,243.833,227.2,243.559,226.916Z" transform="translate(-156.363 -145.168)" fill="#263238"/>
      <path id="Path_24363" data-name="Path 24363" d="M234.294,253.47c-.085,0-3.26-.022-2.3,2.937s3.732,1.388,3.709,1.3S234.294,253.47,234.294,253.47Z" transform="translate(-159.143 -160.975)" fill="#ffbf9d"/>
      <path id="Path_24364" data-name="Path 24364" d="M234.105,257.841a1.124,1.124,0,0,1-.067-.171,1.724,1.724,0,0,1-.094-.786.615.615,0,0,1,.26-.521.274.274,0,0,1,.346.045c.067.072.067.135.085.135s.049-.072,0-.184a.359.359,0,0,0-.18-.148.4.4,0,0,0-.31,0,.768.768,0,0,0-.391.633,1.828,1.828,0,0,0,.09.9,1.406,1.406,0,0,0,1.163,1.037.584.584,0,0,0,.449-.229c.067-.1.063-.175.049-.18s-.04.054-.112.121a.539.539,0,0,1-.386.135,1.262,1.262,0,0,1-.9-.786" transform="translate(-160.203 -162.467)" fill="#ff9a6c"/>
      <path id="Path_24365" data-name="Path 24365" d="M257.872,256.985l-2.317-.57a.238.238,0,0,0-.193,0,.193.193,0,0,0-.067.117,1.442,1.442,0,0,0,.4,1.437,1.275,1.275,0,0,0,1.37.234,1.428,1.428,0,0,0,.808-1.23Z" transform="translate(-172.051 -162.586)" fill="#ff9a6c"/>
      <path id="Path_24366" data-name="Path 24366" d="M230.792,232.05l.022.031.054.1.189.4a8.466,8.466,0,0,1,.516,1.536,6.059,6.059,0,0,1,.094,2.4,2.762,2.762,0,0,1-.543,1.316,1.563,1.563,0,0,1-.615.449,1.222,1.222,0,0,1-.781.054,1.76,1.76,0,0,1-.772-.5,4.459,4.459,0,0,1-.53-.687h.072c-.234.341-.391.714-.584,1.051a2.277,2.277,0,0,1-.728.835,1.136,1.136,0,0,1-.97.162,1.406,1.406,0,0,1-.7-.49,1.6,1.6,0,0,1-.287-.638,2.021,2.021,0,0,1-.045-.516,1.048,1.048,0,0,1,.027-.323.373.373,0,0,1,.027-.112s0,.04,0,.112a2.7,2.7,0,0,0,0,.323,2.048,2.048,0,0,0,.063.507,1.536,1.536,0,0,0,.287.611,1.32,1.32,0,0,0,.674.449,1.078,1.078,0,0,0,.9-.157,2.277,2.277,0,0,0,.7-.817c.184-.332.341-.71.579-1.06a.04.04,0,0,1,.058,0h0a4.587,4.587,0,0,0,.521.674,1.693,1.693,0,0,0,.732.472,1.154,1.154,0,0,0,.728-.049,1.536,1.536,0,0,0,.579-.427,2.7,2.7,0,0,0,.53-1.275,5.928,5.928,0,0,0-.076-2.367,9.048,9.048,0,0,0-.485-1.54c-.076-.175-.13-.31-.175-.4l-.045-.108Z" transform="translate(-155.493 -149.174)" fill="#455a64"/>
      <path id="Path_24367" data-name="Path 24367" d="M245.862,222.8v.126a.561.561,0,0,0,.184.287c.112.108.274.207.449.359a.764.764,0,0,1,.207.3.53.53,0,0,1-.031.4.741.741,0,0,1-.305.328,1.527,1.527,0,0,1-.449.171,7.156,7.156,0,0,1-1.037.139,7.055,7.055,0,0,1-2.376-.274,6.735,6.735,0,0,1-.943-.355l.063-.04a5.578,5.578,0,0,1-.027,1.064,1.9,1.9,0,0,1-.386.9,1.177,1.177,0,0,1-.763.449,1.383,1.383,0,0,1-.745-.144,2,2,0,0,1-.507-.368,3.222,3.222,0,0,1-.31-.346l-.18-.229c-.04-.054-.058-.085-.054-.085l.067.076.189.22a2.64,2.64,0,0,0,.817.678,1.347,1.347,0,0,0,.714.13,1.109,1.109,0,0,0,.714-.418,1.765,1.765,0,0,0,.359-.871,5.04,5.04,0,0,0,0-1.046.045.045,0,0,1,.045-.045h0a7.127,7.127,0,0,0,3.278.624,7.831,7.831,0,0,0,1.028-.13,1.446,1.446,0,0,0,.449-.157.692.692,0,0,0,.283-.3.449.449,0,0,0,.036-.359.714.714,0,0,0-.189-.278c-.153-.153-.314-.256-.449-.373a.552.552,0,0,1-.18-.31.323.323,0,0,1,0-.094A.108.108,0,0,1,245.862,222.8Z" transform="translate(-162.91 -144.078)" fill="#455a64"/>
      <path id="Path_24368" data-name="Path 24368" d="M220.358,230.6c-.022-.153.148-.332.481-.449a2.443,2.443,0,0,1,2.439.71c.22.269.269.516.166.633-.229.243-.871,0-1.612-.207S220.42,230.932,220.358,230.6Z" transform="translate(-152.832 -148.079)" fill="#263238"/>
      <path id="Path_24369" data-name="Path 24369" d="M226.045,230.149c-.274.162-.9-.391-1.159-1.316s-.049-1.72.269-1.733.624.633.853,1.406S226.328,229.987,226.045,230.149Z" transform="translate(-155.264 -146.447)" fill="#263238"/>
      <path id="Path_24370" data-name="Path 24370" d="M257.5,257.795a1.078,1.078,0,0,1-.8.494,1.4,1.4,0,0,1-1.033-.2,1.536,1.536,0,0,1-.692-1.073.813.813,0,0,1,.184-.7.485.485,0,0,1,.368-.094,1.682,1.682,0,0,1,.3.063c.373.094.7.193.97.287a3.225,3.225,0,0,1,.858.373,4.52,4.52,0,0,1-.9-.216c-.278-.072-.606-.153-.975-.238-.184-.04-.377-.09-.472,0a.62.62,0,0,0-.1.5,1.388,1.388,0,0,0,.57.943,1.316,1.316,0,0,0,.9.211A2.245,2.245,0,0,0,257.5,257.795Z" transform="translate(-171.897 -162.488)" fill="#263238"/>
      <path id="Path_24371" data-name="Path 24371" d="M277.662,285.29l5.7,6.885,4.172-3.409,4.087,2.964s-6.431,7.064-9.974,7.8c-3.876.808-8.87-10.895-8.87-10.895Z" transform="translate(-181.713 -178.505)" fill="#ffbf9d"/>
      <path id="Path_24372" data-name="Path 24372" d="M224.963,280,223,304.059s6.709,5.569,14.438,4.491,10.073-5.874,10.073-5.874-.557-9.691-.692-13.257c-.162-4.329.076-13.63.076-13.63l-5.533-2.151s-2.452,2.9-5.546,2.475a6.108,6.108,0,0,1-4.352-2.542l-3.548.745Z" transform="translate(-154.289 -172.048)" fill="#ff725e"/>
      <path id="Path_24373" data-name="Path 24373" d="M269.452,277.785a6.861,6.861,0,0,1,4.765,1.971c.723.66,6.036,7.7,6.036,7.7l-6.992,4.424-5.69-8.852Z" transform="translate(-178.843 -174.368)" fill="#ff725e"/>
      <path id="Path_24374" data-name="Path 24374" d="M226.008,286.87c.067,0,0,2.479-.148,5.533s-.314,5.528-.382,5.524,0-2.479.148-5.533S225.945,286.865,226.008,286.87Z" transform="translate(-155.64 -179.375)" fill="#263238"/>
      <path id="Path_24375" data-name="Path 24375" d="M275.432,288.25a84.18,84.18,0,0,1,.18,8.865,84.256,84.256,0,0,1-.18-8.865Z" transform="translate(-183.135 -180.135)" fill="#263238"/>
    </g>
  </g>
</svg>
