<svg xmlns="http://www.w3.org/2000/svg" width="53" height="53" viewBox="0 0 53 53">
  <path id="Exclusion_45" data-name="Exclusion 45" d="M26.5,53A26.507,26.507,0,0,1,16.185,2.083a26.507,26.507,0,0,1,20.63,48.835A26.335,26.335,0,0,1,26.5,53ZM20.584,12.083A7.84,7.84,0,0,0,12.767,19.9V32.594a7.84,7.84,0,0,0,7.817,7.817H33.278a7.84,7.84,0,0,0,7.817-7.817V19.9a7.84,7.84,0,0,0-7.817-7.817ZM33.278,37.9H20.584a5.319,5.319,0,0,1-5.3-5.3V19.9a5.319,5.319,0,0,1,5.3-5.3H33.278a5.319,5.319,0,0,1,5.306,5.3V32.594A5.319,5.319,0,0,1,33.278,37.9Zm-6.348-18.95a7.3,7.3,0,0,0,0,14.6h.006a7.3,7.3,0,0,0,0-14.6Zm7.608-2.132a1.842,1.842,0,0,0-.7,3.545,1.82,1.82,0,0,0,.7.14,1.842,1.842,0,1,0,0-3.685ZM26.931,31.034a4.786,4.786,0,0,1,0-9.572h.005a4.786,4.786,0,0,1,0,9.572Z" fill="#fff" opacity="0.5"/>
</svg>
