<svg xmlns="http://www.w3.org/2000/svg" width="53" height="53" viewBox="0 0 53 53">
  <path id="Exclusion_47" data-name="Exclusion 47" d="M26.5,53A26.507,26.507,0,0,1,16.185,2.083a26.507,26.507,0,0,1,20.63,48.835A26.332,26.332,0,0,1,26.5,53ZM22.167,37.586h.108a15.258,15.258,0,0,0,10.862-4.5,15.462,15.462,0,0,0,4.5-10.97c0-.214-.006-.437-.02-.7a10.8,10.8,0,0,0,2.73-2.822,11.331,11.331,0,0,1-3.136.859A5.4,5.4,0,0,0,39.6,16.444a10.845,10.845,0,0,1-3.45,1.316,5.435,5.435,0,0,0-9.407,3.718,5.589,5.589,0,0,0,.126,1.24,15.41,15.41,0,0,1-11.2-5.686A5.441,5.441,0,0,0,17.343,24.3a5.4,5.4,0,0,1-2.456-.67v.059a5.485,5.485,0,0,0,4.355,5.343,5.444,5.444,0,0,1-1.384.178H17.73a4.771,4.771,0,0,1-.943-.094,5.5,5.5,0,0,0,5.08,3.787,10.977,10.977,0,0,1-6.729,2.318H15.06a10.3,10.3,0,0,1-1.234-.074,15.27,15.27,0,0,0,8.289,2.439Z" fill="#fff" opacity="0.5"/>
</svg>
