<svg xmlns="http://www.w3.org/2000/svg" width="43" height="43" viewBox="0 0 43 43">
  <path id="Exclusion_115" data-name="Exclusion 115" d="M21.5,43A21.506,21.506,0,0,1,13.132,1.69,21.505,21.505,0,0,1,29.869,41.31,21.364,21.364,0,0,1,21.5,43ZM18.517,23.238l-6.629,6.389a1.517,1.517,0,0,0,.516.1H30.956a1.537,1.537,0,0,0,.742-.2l-6.84-6.385-2.692,2.59a.71.71,0,0,1-.968.008l-2.682-2.5ZM10.851,16.12V28.181a1.552,1.552,0,0,0,.066.4l6.547-6.3Zm21.607-.309-6.594,6.353,6.586,6.15c0-.022,0-.045,0-.066s0-.044,0-.067v-12.3a.115.115,0,0,1,.008-.035A.106.106,0,0,0,32.458,15.811ZM12.4,14.335a1.53,1.53,0,0,0-.974.363l10.245,9.556,10.063-9.693a1.53,1.53,0,0,0-.778-.227Z" fill="#fff" opacity="0.5"/>
</svg>
