<svg xmlns="http://www.w3.org/2000/svg" width="193.45" height="192.242" viewBox="0 0 193.45 192.242">
  <g id="Investment_data-cuate" data-name="Investment data-cuate" transform="translate(-47.31 -43.5)">
    <g id="freepik--background-complete--inject-15" transform="translate(47.31 43.5)">
      <path id="Path_24376" data-name="Path 24376" d="M78.115,233.44l-6.468.134-3.284.053c-1.1,0-2.2,0-3.3.024h-.21v-.215l-.024-5.342v-.243h.239l6.525.029c2.177,0,4.349.053,6.525.081h.129v.129c0,.9-.043,1.8-.062,2.7Zm0,0-.067-2.7c0-.888-.053-1.766-.062-2.64l.129.124c-2.177.029-4.349.076-6.525.081l-6.525.033.239-.239v5.342l-.215-.215h3.227l3.241.057Z" transform="translate(-56.467 -139.849)" fill="#ebebeb"/>
      <path id="Path_24377" data-name="Path 24377" d="M62.891,247.571l-6.468.158-3.284.053c-1.1,0-2.2,0-3.3.024h-.21V242h.239l6.526.029c2.177,0,4.349.053,6.525.081h.129v.129c0,.9-.043,1.8-.062,2.7Zm0,0-.067-2.707c0-.888-.053-1.766-.062-2.64l.129.124c-2.177.029-4.349.076-6.525.081l-6.525.048.239-.234v5.342l-.215-.215c1.074,0,2.148,0,3.227.024l3.241.053Z" transform="translate(-48.523 -147.244)" fill="#ebebeb"/>
      <path id="Path_24378" data-name="Path 24378" d="M350.745,354.79l-6.468.134-3.284.052c-1.1,0-2.2,0-3.3.024h-.21v-.215l-.024-5.342V349.2h.239l6.525.029c2.177,0,4.349.052,6.526.081h.129v.129c0,.9-.043,1.8-.062,2.7Zm0,0-.067-2.7c0-.888-.053-1.766-.062-2.64l.129.129c-2.177.024-4.349.072-6.525.076l-6.526.033.239-.239-.024,5.342-.215-.215c1.074,0,2.148,0,3.227.024l3.241.057Z" transform="translate(-198.954 -203.271)" fill="#ebebeb"/>
      <path id="Path_24379" data-name="Path 24379" d="M335.455,368.885l-6.468.134-3.284.053h-3.509v-.186l-.024-5.342V363.3h.239l6.526.029c2.177,0,4.349.052,6.526.081h.129v.129c0,.9-.043,1.8-.062,2.7Zm0,0-.067-2.7c0-.888-.052-1.766-.062-2.64l.129.124c-2.177.029-4.349.076-6.526.081l-6.525.033.239-.239,0,5.342-.215-.215c1.074,0,2.148,0,3.227.024l3.241.057Z" transform="translate(-190.963 -210.641)" fill="#ebebeb"/>
      <path id="Path_24380" data-name="Path 24380" d="M435.385,247.571l-6.468.134-3.284.053c-1.1,0-2.2,0-3.3.024h-.21v-.215l-.024-5.342V242h.239l6.526.029c2.177,0,4.349.053,6.525.081h.129v.129c0,.9-.043,1.8-.062,2.7Zm0,0-.067-2.7c0-.888-.053-1.766-.062-2.64l.129.124c-2.177.029-4.349.076-6.525.081l-6.526.029.239-.234v5.342l-.215-.215c1.074,0,2.148,0,3.227.024l3.241.053Z" transform="translate(-243.191 -147.244)" fill="#ebebeb"/>
      <path id="Path_24381" data-name="Path 24381" d="M420.13,49.085l-6.468.134-3.284.053c-1.1,0-2.2,0-3.3.029h-.21v-.215l-.029-5.346V43.5h.239l6.525.029c2.177,0,4.349.057,6.526.081h.153v.129c0,.907-.043,1.809-.062,2.7Zm0,0-.067-2.7c0-.893-.052-1.771-.062-2.645l.129.129c-2.177,0-4.349.076-6.526.081l-6.526.029.239-.239v5.342l-.215-.215c1.074,0,2.148,0,3.227.029l3.241.053Z" transform="translate(-235.215 -43.5)" fill="#ebebeb"/>
      <path id="Path_24382" data-name="Path 24382" d="M435.385,63.2l-6.468.134-3.284.053c-1.1,0-2.2,0-3.3.029h-.21V63.2l-.024-5.342V57.62h.239l6.526.029c2.177,0,4.349.057,6.525.081h.129v.129c0,.907-.043,1.809-.062,2.7Zm0,0-.067-2.7c0-.893-.053-1.771-.062-2.645l.129.129c-2.177,0-4.349.076-6.525.081l-6.526.029.239-.239V63.2l-.215-.215c1.074,0,2.148,0,3.227.029l3.241.053Z" transform="translate(-243.191 -50.88)" fill="#ebebeb"/>
      <path id="Path_24383" data-name="Path 24383" d="M78.11,49.085l-6.468.134-3.284.053c-1.1,0-2.2,0-3.3.029h-.21v-.215l-.029-5.346V43.5h.239l6.53.033c2.177,0,4.349.057,6.525.081h.129v.124c0,.907-.043,1.809-.062,2.7Zm0,0-.067-2.7c0-.893-.053-1.771-.062-2.645l.129.129c-2.177,0-4.349.076-6.525.081l-6.526.029.239-.239v5.342l-.215-.215c1.074,0,2.148,0,3.227.029l3.241.053Z" transform="translate(-56.461 -43.5)" fill="#ebebeb"/>
      <path id="Path_24384" data-name="Path 24384" d="M275.75,124.02l-6.468.134-3.284.057c-1.1,0-2.2,0-3.3.024h-.21v-.215l-.029-5.342v-.239h.239l6.526.033c2.177,0,4.349.053,6.526.076h.129v.124c0,.907-.043,1.809-.062,2.7Zm0,0-.067-2.7c0-.888-.052-1.771-.062-2.645l.129.129c-2.177.024-4.349.076-6.526.081l-6.525.029.239-.239v5.342l-.215-.21c1.079,0,2.148,0,3.227.024l3.241.053Z" transform="translate(-159.756 -82.667)" fill="#ebebeb"/>
      <path id="Path_24385" data-name="Path 24385" d="M62.415,48.06c-19.925,0-19.958,28.336,0,28.336S82.373,48.06,62.415,48.06Z" transform="translate(-47.388 -45.883)" fill="#ebebeb"/>
      <path id="Path_24386" data-name="Path 24386" d="M77.313,67.521c-1.036,4.879-5.1,9.1-12.115,9.1-16.564,0-16.54-23.515,0-23.515h.325c-15.567.286-15.49,22.555.306,22.555C72.268,75.67,76.106,71.942,77.313,67.521Z" transform="translate(-50.171 -48.523)" fill="#dbdbdb"/>
      <path id="Path_24387" data-name="Path 24387" d="M72.869,59.6a.5.5,0,0,1,.516.477v.792a7.394,7.394,0,0,1,3.819,1.38.546.546,0,0,1,.3.477.53.53,0,0,1-.559.477.544.544,0,0,1-.387-.138,6.468,6.468,0,0,0-3.213-1.294v5.523c3.279.63,4.659,1.752,4.659,3.685,0,2.091-1.909,3.571-4.616,3.652v1.537a.516.516,0,1,1-1.031,0V74.613A8.5,8.5,0,0,1,67.5,72.7a.511.511,0,0,1-.234-.415.539.539,0,0,1,.539-.477.563.563,0,0,1,.387.138A7.246,7.246,0,0,0,72.4,73.744V68.1c-3.236-.649-4.573-1.733-4.573-3.709s1.909-3.509,4.53-3.571v-.749a.5.5,0,0,1,.511-.473Zm-.477,7.495V61.7c-2.091.043-3.47,1.184-3.47,2.606.024,1.351.711,2.167,3.494,2.788Zm.955,1.2v5.447C75.5,73.706,76.9,72.56,76.9,71.061c.014-1.36-.74-2.2-3.556-2.764Z" transform="translate(-57.742 -51.914)" fill="#dbdbdb"/>
      <path id="Path_24388" data-name="Path 24388" d="M404.835,186.18c-19.925,0-19.958,28.336,0,28.336S424.784,186.18,404.835,186.18Z" transform="translate(-226.351 -118.07)" fill="#ebebeb"/>
      <path id="Path_24389" data-name="Path 24389" d="M419.732,205.646c-1.06,4.874-5.1,9.1-12.12,9.1-16.56,0-16.536-23.519,0-23.519h.325c-15.562.286-15.486,22.555.306,22.555C414.677,213.79,418.524,210.067,419.732,205.646Z" transform="translate(-229.132 -120.71)" fill="#dbdbdb"/>
      <path id="Path_24390" data-name="Path 24390" d="M415.3,197.719a.506.506,0,0,1,.516.477v.788a7.437,7.437,0,0,1,3.819,1.38.546.546,0,0,1,.3.477.53.53,0,0,1-.559.477.578.578,0,0,1-.391-.134,6.4,6.4,0,0,0-3.232-1.284v5.523c3.279.63,4.659,1.757,4.659,3.69,0,2.091-1.909,3.571-4.616,3.647V214.3a.52.52,0,0,1-1.036,0v-1.556a8.5,8.5,0,0,1-4.85-1.909.506.506,0,0,1-.234-.415.539.539,0,0,1,.539-.477.587.587,0,0,1,.387.138,7.246,7.246,0,0,0,4.2,1.795V206.22c-3.232-.649-4.568-1.733-4.568-3.7s1.909-3.513,4.525-3.571V198.2a.506.506,0,0,1,.539-.477Zm-.477,7.5v-5.385c-2.091.038-3.47,1.184-3.47,2.6C411.355,203.776,412.048,204.607,414.826,205.218Zm.955,1.2v5.442c2.158-.038,3.556-1.184,3.556-2.683,0-1.36-.759-2.186-3.561-2.735Z" transform="translate(-236.699 -124.1)" fill="#dbdbdb"/>
      <path id="Path_24391" data-name="Path 24391" d="M344.563,141.873c-11.934,8.659.888,26.326,12.827,17.662S356.5,133.195,344.563,141.873Z" transform="translate(-200.176 -93.693)" fill="#dbdbdb"/>
      <path id="Path_24392" data-name="Path 24392" d="M347.278,140.366c-11.356,8.254,1.432,25.921,12.827,17.662S358.678,132.1,347.278,140.366Z" transform="translate(-201.774 -93.003)" fill="#ebebeb"/>
      <path id="Path_24393" data-name="Path 24393" d="M363.835,149.681a8.347,8.347,0,0,1-2.788,10.693c-9.442,6.86-20.049-7.8-10.65-14.65l.191-.134c-8.745,6.626,1.384,20.469,10.383,13.929A7.977,7.977,0,0,0,363.835,149.681Z" transform="translate(-203.805 -96.856)" fill="#dbdbdb"/>
      <path id="Path_24394" data-name="Path 24394" d="M358.607,147.976a.372.372,0,0,1,.477.224l.2.578a4.95,4.95,0,0,1,2.9.119c.167.053.267.115.315.258a.387.387,0,0,1-.248.477.349.349,0,0,1-.291,0,4.349,4.349,0,0,0-2.478-.186l1.394,4.019c2.339-.3,3.542.2,4.029,1.609.53,1.523-.372,3.041-2.148,3.719l.387,1.122a.364.364,0,0,1-.687.239l-.391-1.136a5.69,5.69,0,0,1-3.714-.272.387.387,0,0,1-.263-.243.4.4,0,0,1,.234-.477.382.382,0,0,1,.291,0,4.926,4.926,0,0,0,3.256.334l-1.432-4.091c-2.32.272-3.485-.205-3.981-1.642s.377-2.993,2.115-3.642l-.191-.544A.377.377,0,0,1,358.607,147.976Zm1.575,5.566-1.356-3.919c-1.384.511-2.014,1.661-1.656,2.7s1.007,1.432,3.012,1.236Zm.955.654,1.375,3.962c1.432-.525,2.072-1.68,1.69-2.773-.363-.974-1.074-1.4-3.084-1.174Z" transform="translate(-208.812 -98.092)" fill="#dbdbdb"/>
      <path id="Path_24395" data-name="Path 24395" d="M86.172,112a6,6,0,0,1,6.048,6.043v3.093a51.153,51.153,0,0,1,21.772,7.752,7.521,7.521,0,0,1,4.22,6.745,7.743,7.743,0,0,1-7.872,7.733,8.115,8.115,0,0,1-4.22-1.265A51.845,51.845,0,0,0,91.642,135.9V162.89c21.367,5.342,30.5,13.915,30.5,28.957,0,15.466-12.087,25.725-29.94,27.415V227.7a6,6,0,0,1-6.048,6.043,6.12,6.12,0,0,1-6.206-6.043V219A60.863,60.863,0,0,1,51.129,208.02a7.775,7.775,0,1,1,8.554-12.956c6.607,4.774,13.075,8.015,20.8,9.423V176.8c-20.526-5.342-30.074-13.075-30.074-28.961,0-15.042,11.934-25.443,29.525-26.847v-2.931A6.12,6.12,0,0,1,86.172,112Zm-5.623,47.955v-24.88c-8.993.84-13.495,5.623-13.495,11.805C67.054,152.784,69.727,156.441,80.548,159.954ZM91.657,179.5v25.586c9-.983,13.915-5.48,13.915-12.23C105.572,186.667,102.478,182.868,91.657,179.5Z" transform="translate(-47.31 -79.3)" fill="#ebebeb"/>
    </g>
    <g id="freepik--Arrow--inject-15" transform="translate(54.046 82.734)">
      <path id="Path_24396" data-name="Path 24396" d="M131.95,238.96h12.173l25.629,40.456H157.584Z" transform="translate(-98.282 -184.89)" fill="#37474f"/>
      <path id="Path_24397" data-name="Path 24397" d="M269.62,191.18h12.168l25.634,40.461H295.249Z" transform="translate(-170.234 -159.918)" fill="#37474f"/>
      <path id="Path_24398" data-name="Path 24398" d="M107.242,238.96H95.074L61.42,292.076H73.593Z" transform="translate(-61.42 -184.89)" fill="#455a64"/>
      <path id="Path_24399" data-name="Path 24399" d="M237.942,191.18H225.774L185.69,254.444h12.168Z" transform="translate(-126.369 -159.918)" fill="#455a64"/>
      <path id="Path_24400" data-name="Path 24400" d="M375.432,143.4H363.264L323.18,206.669h12.173Z" transform="translate(-198.227 -134.946)" fill="#455a64"/>
      <path id="Path_24401" data-name="Path 24401" d="M401.23,134.144H419.1l-4.587-8.454Z" transform="translate(-239.019 -125.69)" fill="#455a64"/>
    </g>
    <g id="freepik--Character--inject-15" transform="translate(54.046 58.304)">
      <rect id="Rectangle_150011" data-name="Rectangle 150011" width="27.677" height="45.583" transform="translate(10.464 131.617)" fill="#ffc727"/>
      <rect id="Rectangle_150012" data-name="Rectangle 150012" width="27.677" height="45.583" transform="translate(10.464 131.617)" fill="#fff" opacity="0.6"/>
      <rect id="Rectangle_150013" data-name="Rectangle 150013" width="10.464" height="45.583" transform="translate(10.464 177.205) rotate(180)" fill="#ffc727"/>
      <rect id="Rectangle_150014" data-name="Rectangle 150014" width="10.464" height="45.583" transform="translate(10.464 177.205) rotate(180)" fill="#fff" opacity="0.4"/>
      <rect id="Rectangle_150015" data-name="Rectangle 150015" width="27.677" height="107.94" transform="translate(57.765 69.259)" fill="#ffc727"/>
      <rect id="Rectangle_150016" data-name="Rectangle 150016" width="27.677" height="107.94" transform="translate(57.765 69.259)" fill="#fff" opacity="0.6"/>
      <rect id="Rectangle_150017" data-name="Rectangle 150017" width="10.464" height="107.94" transform="translate(57.76 177.2) rotate(180)" fill="#ffc727"/>
      <rect id="Rectangle_150018" data-name="Rectangle 150018" width="10.464" height="107.94" transform="translate(57.76 177.2) rotate(180)" fill="#fff" opacity="0.4"/>
      <rect id="Rectangle_150019" data-name="Rectangle 150019" width="27.677" height="81.409" transform="translate(105.062 95.796)" fill="#ffc727"/>
      <rect id="Rectangle_150020" data-name="Rectangle 150020" width="27.677" height="81.409" transform="translate(105.062 95.796)" fill="#fff" opacity="0.6"/>
      <rect id="Rectangle_150021" data-name="Rectangle 150021" width="10.464" height="81.409" transform="translate(105.067 177.2) rotate(180)" fill="#ffc727"/>
      <rect id="Rectangle_150022" data-name="Rectangle 150022" width="10.464" height="81.409" transform="translate(105.067 177.2) rotate(180)" fill="#fff" opacity="0.4"/>
      <rect id="Rectangle_150023" data-name="Rectangle 150023" width="27.677" height="91.166" transform="translate(152.363 86.034)" fill="#ffc727"/>
      <rect id="Rectangle_150024" data-name="Rectangle 150024" width="27.677" height="91.166" transform="translate(152.363 86.034)" fill="#fff" opacity="0.6"/>
      <rect id="Rectangle_150025" data-name="Rectangle 150025" width="10.464" height="91.166" transform="translate(152.363 177.204) rotate(180)" fill="#ffc727"/>
      <rect id="Rectangle_150026" data-name="Rectangle 150026" width="10.464" height="91.166" transform="translate(152.363 177.204) rotate(180)" fill="#fff" opacity="0.4"/>
      <path id="Path_24402" data-name="Path 24402" d="M205.866,94.689a113.771,113.771,0,0,1,0,17.066c-.43,4.377-2.272,7.986-6.826,9.07-4.225,1-10.239.921-13.81-1.876a5.844,5.844,0,0,1-2.134-5.213c.153-2.864,2.43-18.588,3.108-23.491a50.875,50.875,0,0,1,1.747-8.893c1.962-6.053,4.984-6.167,5.4-6.287a8.041,8.041,0,0,1,5.9-.048,6.358,6.358,0,0,1,3.886,3.456C205.479,83.337,205.57,89.414,205.866,94.689Z" transform="translate(-125.006 -74.511)" fill="#263238"/>
      <path id="Path_24403" data-name="Path 24403" d="M191.273,77.746c-3.6,1.68-4.459,5.614-5.332,9.137-1.212,4.907-2.344,9.838-3.236,14.8q-.644,3.595-1.107,7.208a38.213,38.213,0,0,0-.582,7.1c.258,3.857,3.785,5.614,7.2,6.163a.131.131,0,1,0,.048-.258,9.966,9.966,0,0,1-5.38-2.387c-1.862-1.852-1.642-4.268-1.432-6.683q.559-6.144,1.733-12.211T185.8,88.539c.912-3.819,1.575-8.831,5.49-10.769C191.33,77.789,191.311,77.727,191.273,77.746Z" transform="translate(-123.908 -76.2)" fill="#263238"/>
      <path id="Path_24404" data-name="Path 24404" d="M222.7,84.1c-.683-2.95-2.215-5.819-5.318-6.683h0c4.01,1.294,4.988,5.676,5.547,9.347.563,3.852.955,7.724,1.255,11.609.267,3.733.477,7.5.382,11.242-.076,4.043-.807,7.829-3.194,11.161a.067.067,0,1,0,.1.086c2.349-2.692,3.127-6.406,3.318-9.881a104.822,104.822,0,0,0-.406-13.8A91.677,91.677,0,0,0,222.7,84.1Z" transform="translate(-142.931 -76.032)" fill="#263238"/>
      <path id="Path_24405" data-name="Path 24405" d="M296.532,284.648c-1.06.621-33.7,7.442-35.105,6.917-.535-.2-1.8-4.893-3.179-10.607q-.451-1.854-.893-3.819c-1.938-8.425-3.795-17.414-3.795-17.414l21.82-4.626,3.213,17.543.706,3.848s13.662,2.979,15.147,3.723S297.592,284.023,296.532,284.648Z" transform="translate(-161.84 -168.894)" fill="#eb9481"/>
      <path id="Path_24406" data-name="Path 24406" d="M264.49,307.668c1.16,4.688,2.182,8.254,2.649,8.425,1.408.53,34.045-6.3,35.1-6.917s-.635-3.685-2.11-4.435c-.917-.453-6.468-1.761-10.588-2.7,3.6.864,10.311,3.3-3.571,4.3C274.5,307.181,266.925,307.558,264.49,307.668Z" transform="translate(-167.553 -193.427)" fill="#263238"/>
      <path id="Path_24407" data-name="Path 24407" d="M243.13,311.814c-1.184.329-34.48-1.394-35.711-2.258-.267-.191.038-4.664.415-8.693.282-2.993,7.557-23.763,7.557-23.763l22.274,1.088-9.146,21.343s12.454,6.358,13.7,7.456S244.31,311.484,243.13,311.814Z" transform="translate(-137.672 -180.393)" fill="#eb9481"/>
      <path id="Path_24408" data-name="Path 24408" d="M207.419,336.378c1.232.874,34.523,2.592,35.711,2.263s.325-3.728-.912-4.826a71.046,71.046,0,0,0-6.64-3.776c3.819,2.153,9.886,6.96-27.811-1.609C207.423,332.244,207.166,336.206,207.419,336.378Z" transform="translate(-137.672 -207.22)" fill="#263238"/>
      <path id="Path_24409" data-name="Path 24409" d="M169.016,191.37c6.635,7.394,28.933,1.556,30.265,4.5,1.174,2.6-14.039,44.261-14.039,44.261l24.345,2.625s21-46.017,13.509-59.312c-4.062-7.16-21.959-4.3-32.733-5.633-3.256-.4-4.774-7.108-4.774-7.108H166.309S161.431,182.92,169.016,191.37Z" transform="translate(-115.432 -124.783)" fill="#263238"/>
      <path id="Path_24410" data-name="Path 24410" d="M216.32,179.321l-20.45,15.648c-6.788-.143-21.653,2.21-26.861-3.6-7.585-8.449-2.721-20.67-2.721-20.67h19.281s1.532,6.716,4.774,7.113C197.928,178.729,208.988,177.6,216.32,179.321Z" transform="translate(-115.426 -124.783)" fill="#37474f"/>
      <path id="Path_24411" data-name="Path 24411" d="M237,307.872c-.673-.21-6.984-.912-8.378-1.065-2.788-.3-11.562-1.122-13.151-1.117a.038.038,0,0,0,0,.076c1.384.286,6.984.955,8.373,1.084,2.793.286,12.378,1.217,13.156,1.141a.062.062,0,0,0,0-.119Z" transform="translate(-141.912 -195.335)" fill="#37474f"/>
      <path id="Path_24412" data-name="Path 24412" d="M205.565,195.033c-1.566-.778-13.433-.391-21.958-1.189-2.773-.263-5.556-.854-7.676-2.673a12.717,12.717,0,0,1-3.79-6.239,27.918,27.918,0,0,1-.592-8.927c.033-.735.081-1.465.129-2.2a.039.039,0,0,0-.076,0c-.649,5.337-1.146,11.3,2.33,15.925a11.118,11.118,0,0,0,6.206,4.072c5.136,1.356,24.446,1.017,25.123,1.537.816.621-11.671,38.628-11.934,39.353-.048.134.191.224.248.091C194.834,231.861,206.926,195.711,205.565,195.033Z" transform="translate(-118.763 -126.389)" fill="#37474f"/>
      <path id="Path_24413" data-name="Path 24413" d="M278.119,194.153c-1.15-2.917-3.771-4.731-7.638-5.423-.062,0-.057.081,0,.1,3.341.983,5.766,2.334,7.084,5.17a16.01,16.01,0,0,1,1.1,5.681c.8,12.445-10.058,40.69-10.278,41.182a.038.038,0,1,0,.062.038C270,238.323,282.854,206.177,278.119,194.153Z" transform="translate(-169.582 -134.207)" fill="#37474f"/>
      <path id="Path_24414" data-name="Path 24414" d="M232.539,226.291l-18.44,3.924s14.545-43.44,7.714-49.015c-1.909-1.551-6.02-2.1-10.927,0-7.327,3.165-15.805,9.614-23.8,11.977-7.485,2.205-16.373.177-19.428-3.189-6.425-7.074-1.594-20.441-1.594-20.441l26.517-1s-.4.325.869,1.432c0,0,15.586-3.532,22.355.6C228.019,178.088,232.539,226.291,232.539,226.291Z" transform="translate(-115.2 -123.66)" fill="#263238"/>
      <path id="Path_24415" data-name="Path 24415" d="M184.152,173.888a.048.048,0,0,0-.1,0,14.8,14.8,0,0,1-.229,2.974,5.127,5.127,0,0,1-1.332,2.468c-1.456,1.47-3.542,1.971-5.447,2.573-.1.033-.081.21.033.191,2.115-.325,4.334-.859,5.881-2.449a5.117,5.117,0,0,0,1.37-2.659A6.368,6.368,0,0,0,184.152,173.888Z" transform="translate(-121.818 -126.425)" fill="#37474f"/>
      <path id="Path_24416" data-name="Path 24416" d="M273.5,192.354c-2.831-1.776-7.265-.425-9.385.387-.043,0-.024.091,0,.072,1.952-.7,6.812-1.761,9.4.076,6,4.249-2.029,33.315-7.294,49.311-.081.248.119.181.229-.057.869-1.909,7.638-22.111,9.423-35.482C276.165,204.617,277.588,194.922,273.5,192.354Z" transform="translate(-167.342 -135.644)" fill="#37474f"/>
      <path id="Path_24417" data-name="Path 24417" d="M286.929,279.24c-.554,0-5.332,1.041-6.387,1.279-2.105.477-6.984,1.738-8.115,2.172-.029,0,0,.072.024.072,1.093-.105,3.638-.664,4.688-.907,2.1-.477,9.309-2.22,9.834-2.5C287.015,279.331,286.986,279.245,286.929,279.24Z" transform="translate(-171.695 -181.511)" fill="#37474f"/>
      <path id="Path_24418" data-name="Path 24418" d="M223.148,181.757a10.515,10.515,0,0,0-6.292-.955,22.174,22.174,0,0,0-6.435,2.038c-4.3,1.976-8.421,4.382-12.741,6.344a35.812,35.812,0,0,1-13.609,3.623c-4.043.124-9.161-.587-11.762-4.225-4.01-5.609-1.676-15.275-1.628-15.9,0-.048-.062-.043-.072,0-3.112,11.881.888,16.493,3.59,18.436,2.143,1.537,5.222,1.909,7.256,2.1a30.7,30.7,0,0,0,13.791-2.492c4.473-1.785,8.664-4.182,12.951-6.373,4.105-2.1,8.683-4.268,13.366-3.065a11.364,11.364,0,0,1,1.561.535C223.157,181.815,223.191,181.772,223.148,181.757Z" transform="translate(-117.895 -125.802)" fill="#37474f"/>
      <path id="Path_24419" data-name="Path 24419" d="M200.413,117.545c2.769,7.814,7.7,17,9.5,18.374,2.291,1.738,14.7,3.151,15.385,3.146,1.7-.024,2.979-11.428,1.155-11.48-2.778-.081-10.416.057-11.079-.477s-5.49-5.366-10.5-10.841C201.425,112.476,198.675,112.7,200.413,117.545Z" transform="translate(-133.783 -94.962)" fill="#eb9481"/>
      <path id="Path_24420" data-name="Path 24420" d="M251.733,153.828a35.458,35.458,0,0,0,4.774,1.432c1.289.215,5.022.745,5.4-.654.258-.955-1.909-1.518-3.413-1.957-.8-.229-1.833-.917-1.661-1.432.291-.9,2.353-.267,3.728.329,2.664,1.165,6.292,3.394,7.666,1.952.52-.549-.248-1.341-1.322-2.081,1.7.811,3.49,1.432,4.091.85a.84.84,0,0,0,.057-1.155,1.127,1.127,0,0,0,1.2-.334c.477-.6.11-1.37-.549-2.119a.644.644,0,0,0,.434-.363c.9-1.795-5.122-5.948-7.07-6.177a48.215,48.215,0,0,0-11.557.239C251.552,144.324,251.729,153.824,251.733,153.828Z" transform="translate(-160.882 -109.721)" fill="#eb9481"/>
      <path id="Path_24421" data-name="Path 24421" d="M267.643,154.2a9.547,9.547,0,0,1,3.881,1,27.047,27.047,0,0,1,3.89,2.716.032.032,0,0,1-.038.053c-.625-.477-3.189-2.148-3.843-2.525a9.07,9.07,0,0,0-3.89-1.222S267.629,154.195,267.643,154.2Z" transform="translate(-169.197 -116.159)" fill="#263238"/>
      <path id="Path_24422" data-name="Path 24422" d="M269.236,149a22.522,22.522,0,0,1,4.5,1,15.229,15.229,0,0,1,4.158,2.745c.769.635,1.528,1.284,2.263,1.952.033.029,0,.081-.038.053q-1.948-1.637-4-3.16a11.881,11.881,0,0,0-4.229-2.029c-.874-.224-1.761-.377-2.649-.535C269.217,149.024,269.222,149,269.236,149Z" transform="translate(-170.027 -113.442)" fill="#263238"/>
      <path id="Path_24423" data-name="Path 24423" d="M271.995,144.29a11.65,11.65,0,0,1,4.072.85,20.69,20.69,0,0,1,4.22,2.864c.7.6,1.38,1.212,2.053,1.838.029.029,0,.076-.043.048a48.18,48.18,0,0,0-4.836-3.795,9.647,9.647,0,0,0-2.606-1.3,17.486,17.486,0,0,0-2.864-.5Z" transform="translate(-171.473 -110.981)" fill="#263238"/>
      <path id="Path_24424" data-name="Path 24424" d="M226.388,126.5l-2.664,13.767s-11.724-1.933-14.058-3.933-7.49-13.108-9.266-18.579,1.079-5.661,4.086-2.43,10.473,11.041,10.86,11.189S226.388,126.5,226.388,126.5Z" transform="translate(-133.771 -94.733)" fill="#ffc727"/>
      <path id="Path_24425" data-name="Path 24425" d="M244.916,149.358c.325-1.628.668-3.251.955-4.883.148-.931.306-1.862.449-2.793,0-.038-.053-.053-.062,0-.391,1.618-.783,3.241-1.1,4.874s-.649,3.256-.955,4.883c-.167.955-.31,1.857-.42,2.8h.033C244.253,152.624,244.587,151,244.916,149.358Z" transform="translate(-156.729 -109.6)" fill="#263238"/>
      <path id="Path_24426" data-name="Path 24426" d="M223.994,138.882l-.263,1.37s-11.729-1.933-14.063-3.929-7.495-13.1-9.266-18.569c-1.294-4-.119-5.179,1.781-4.258C207.673,119.788,218.022,131.66,223.994,138.882Z" transform="translate(-133.773 -94.732)" opacity="0.1"/>
      <path id="Path_24427" data-name="Path 24427" d="M166.7,140.918l27.782.477-2.177-8.32a8.7,8.7,0,0,0,1.27-7.27c-.664-2.449-3.819-6.12-5.766-8.449-4.721-5.676-8.822-3.108-10.13-1.652C172.662,121.28,166.7,140.918,166.7,140.918Z" transform="translate(-116.444 -95.069)" fill="#ebebeb"/>
      <path id="Path_24428" data-name="Path 24428" d="M177.671,114.4s2.726,7.237,3.79,8.888a37.855,37.855,0,0,0,4.2,4.611,38.334,38.334,0,0,0,0-6.707,21.313,21.313,0,0,0-2.435-5.914,5.127,5.127,0,0,1,1.465,1.15c2.353,2.387,6.444,7.113,7.06,10.34a8.621,8.621,0,0,1-1.26,6.535l3.131,9.991-4.387,1.36-2.158-2.559-2.229,2.84-22.226-3.1,3.695-6.969s5.289-13.738,7.39-16.746C176.1,114.686,177.671,114.4,177.671,114.4Z" transform="translate(-114.311 -95.359)" fill="#ffc727"/>
      <path id="Path_24429" data-name="Path 24429" d="M204.725,152.953a24.169,24.169,0,0,1,3.575-.057c.592.043,1.174.11,1.761.191.291.043.587.072.878.105a4,4,0,0,0,.926,0c.029,0,.033.033,0,.043a7.41,7.41,0,0,1-.864.138,6.236,6.236,0,0,1-.845,0c-.6-.038-1.2-.1-1.8-.143-1.213-.091-2.42-.177-3.633-.177C204.672,153.053,204.668,152.958,204.725,152.953Z" transform="translate(-136.296 -115.457)" fill="#263238"/>
      <path id="Path_24430" data-name="Path 24430" d="M199.069,155.353a25.82,25.82,0,0,1,2.864-.664c.477-.081.955-.138,1.465-.177.234,0,.477-.038.7-.048s.52,0,.778,0c0,0,.033.038,0,.038-.243.024-.477.091-.721.129l-.73.11-1.432.229c-.955.143-1.938.3-2.907.477C199.017,155.444,199.017,155.368,199.069,155.353Z" transform="translate(-133.342 -116.296)" fill="#263238"/>
      <path id="Path_24431" data-name="Path 24431" d="M192.562,114.75c-.277,1.909-.6,3.848-.921,5.766l-.1-.158c1.131.3,2.258.621,3.384.931l.191.053-.081.181c-.334.74-.668,1.485-1.017,2.22l-.043-.205c1.193,1.041,2.387,2.062,3.58,3.122s2.387,2.105,3.528,3.189c-1.246-.955-2.473-1.981-3.695-2.988s-2.425-2.038-3.642-3.055l-.1-.086.057-.119c.329-.745.678-1.48,1.022-2.22l.11.234c-1.122-.329-2.248-.644-3.37-.988l-.124-.038v-.124C191.746,118.559,192.132,116.65,192.562,114.75Z" transform="translate(-129.322 -95.542)" fill="#263238"/>
      <path id="Path_24432" data-name="Path 24432" d="M207,117.13c.63.654,1.069,1.122,1.676,1.79s1.232,1.327,1.824,2.01l.124.143-.162.1-1.174.73.033-.263c.477.477.955.955,1.432,1.456l.062.067v.086c-.248,1.308-.477,2.625-.735,3.929s-.52,2.616-.816,3.919c.162-1.327.358-2.645.563-3.962s.43-2.63.64-3.943l.048.153c-.477-.477-.955-.955-1.432-1.465l-.153-.153.181-.11,1.189-.711-.038.239c-.592-.683-1.16-1.389-1.742-2.081S207.563,117.846,207,117.13Z" transform="translate(-137.506 -96.786)" fill="#263238"/>
      <path id="Path_24433" data-name="Path 24433" d="M211.75,146.38c.167.635.339,1.27.477,1.909s.3,1.275.439,1.909h0c.048,1.432.057,2.864.081,4.3s0,2.864,0,4.3c-.086-1.432-.143-2.864-.191-4.3s-.086-2.864-.1-4.3v.024c-.134-.644-.263-1.289-.377-1.933S211.869,147.024,211.75,146.38Z" transform="translate(-139.989 -112.073)" fill="#263238"/>
      <path id="Path_24434" data-name="Path 24434" d="M209.986,149.48a.46.46,0,1,1-.372-.468A.477.477,0,0,1,209.986,149.48Zm0,0a.3.3,0,0,0-.124-.248.315.315,0,0,0-.248-.038.291.291,0,0,0-.191.286.286.286,0,0,0,.191.282.3.3,0,0,0,.248-.038.3.3,0,0,0,.124-.243Z" transform="translate(-138.583 -113.445)" fill="#263238"/>
      <path id="Path_24435" data-name="Path 24435" d="M211.116,158.106a.46.46,0,1,1-.372-.453A.477.477,0,0,1,211.116,158.106Zm0,0a.3.3,0,0,0-.129-.248.3.3,0,0,0-.243-.038.306.306,0,0,0-.2.286.277.277,0,0,0,.439.243A.291.291,0,0,0,211.116,158.106Z" transform="translate(-139.173 -117.96)" fill="#263238"/>
      <path id="Path_24436" data-name="Path 24436" d="M211.521,166.036a.463.463,0,1,1-.377-.453A.477.477,0,0,1,211.521,166.036Zm0,0a.32.32,0,0,0-.129-.248.31.31,0,0,0-.248-.038.291.291,0,0,0-.191.286.286.286,0,0,0,.191.282.291.291,0,0,0,.248-.038.32.32,0,0,0,.129-.243Z" transform="translate(-139.382 -122.105)" fill="#263238"/>
      <path id="Path_24437" data-name="Path 24437" d="M196.58,106.226c0,.516,1.432,4.3,3.7,4.774.735.158,1.781-3.819,1.781-3.819l.148-.277,2.014-3.848-3.981-4.377-.6-.559s-.477,1.088-1.069,2.449c-.029.062-.057.124-.086.2s-.067.148-.1.22c-.091.2-.186.406-.272.616s-.129.31-.2.477-.129.329-.2.477a29.325,29.325,0,0,0-1.146,3.671Z" transform="translate(-132.06 -86.85)" fill="#eb9481"/>
      <path id="Path_24438" data-name="Path 24438" d="M200.8,100.569a8.7,8.7,0,0,0,3.618,6.368l2.014-3.848-3.981-4.377-.6-.592S201.373,99.208,200.8,100.569Z" transform="translate(-134.266 -86.85)" fill="#263238"/>
      <path id="Path_24439" data-name="Path 24439" d="M213.371,86.589c-.859,7.571-5.49,7.915-7.122,7.728-1.485-.167-6.511-.955-6.44-8.554s3.857-9.619,7.251-9.409S214.221,79.013,213.371,86.589Z" transform="translate(-133.747 -75.467)" fill="#eb9481"/>
      <path id="Path_24440" data-name="Path 24440" d="M225.2,93.82a3.7,3.7,0,0,1-.477-.177.883.883,0,0,1-.477-.277.272.272,0,0,1,.043-.329.673.673,0,0,1,.683-.067,1,1,0,0,1,.563.43.286.286,0,0,1-.334.42Z" transform="translate(-146.502 -84.126)" fill="#263238"/>
      <path id="Path_24441" data-name="Path 24441" d="M215.131,92a4.776,4.776,0,0,0,.525-.038.859.859,0,0,0,.53-.138.272.272,0,0,0,.043-.329.664.664,0,0,0-.635-.243.955.955,0,0,0-.664.263.286.286,0,0,0,.2.487Z" transform="translate(-141.608 -83.254)" fill="#263238"/>
      <path id="Path_24442" data-name="Path 24442" d="M216.646,97.53c0-.024-.043,0-.043.038-.043.52-.177,1.1-.664,1.222v.033C216.522,98.8,216.694,98.026,216.646,97.53Z" transform="translate(-142.179 -86.537)" fill="#263238"/>
      <path id="Path_24443" data-name="Path 24443" d="M215.741,96.288c-.821-.158-1.069,1.5-.31,1.647S216.419,96.417,215.741,96.288Z" transform="translate(-141.674 -85.887)" fill="#263238"/>
      <path id="Path_24444" data-name="Path 24444" d="M214.78,96.176c-.162.072-.329.215-.506.205s-.329-.205-.434-.391h-.033a.611.611,0,0,0,.353.759c.306.091.568-.158.7-.477C214.88,96.243,214.837,96.148,214.78,96.176Z" transform="translate(-141.047 -85.737)" fill="#263238"/>
      <path id="Path_24445" data-name="Path 24445" d="M223.308,98.21s.038.033.033.053c-.1.511-.124,1.112.31,1.356v.029C223.1,99.475,223.136,98.678,223.308,98.21Z" transform="translate(-145.971 -86.897)" fill="#263238"/>
      <path id="Path_24446" data-name="Path 24446" d="M223.882,97.248c.835.067.635,1.728-.138,1.666S223.185,97.186,223.882,97.248Z" transform="translate(-146.001 -86.394)" fill="#263238"/>
      <path id="Path_24447" data-name="Path 24447" d="M225.183,97.547c.119.105.234.282.387.31s.339-.129.477-.291c0,0,.029,0,.024.024-.029.32-.172.635-.477.659s-.453-.272-.477-.6C225.078,97.59,225.135,97.5,225.183,97.547Z" transform="translate(-146.968 -86.545)" fill="#263238"/>
      <path id="Path_24448" data-name="Path 24448" d="M215.926,106.326c.1.143.191.334.372.387a1.37,1.37,0,0,0,.573-.024v.033a.711.711,0,0,1-.7.148.558.558,0,0,1-.31-.53C215.854,106.307,215.893,106.307,215.926,106.326Z" transform="translate(-142.136 -91.132)" fill="#263238"/>
      <path id="Path_24449" data-name="Path 24449" d="M218.972,97.561a11.411,11.411,0,0,1-.053,1.141c0,.038-.1.038-.22.029h0a1.733,1.733,0,0,1-1.58-.878c0-.038.029-.067.062-.038a2.625,2.625,0,0,0,1.508.668c.038-.1-.043-1.341,0-1.337a3.175,3.175,0,0,1,.8.3c.048-1.633-.167-3.256-.091-4.879a.048.048,0,1,1,.1,0,26.257,26.257,0,0,1,.32,5.251C219.822,98,219.111,97.642,218.972,97.561Z" transform="translate(-142.795 -83.923)" fill="#263238"/>
      <path id="Path_24450" data-name="Path 24450" d="M218.387,104.366a2.115,2.115,0,0,1-.888.6.921.921,0,0,1-.578,0c-.411-.134-.4-.52-.3-.84a2.11,2.11,0,0,1,.22-.477A2.716,2.716,0,0,0,218.387,104.366Z" transform="translate(-142.506 -89.74)" fill="#263238"/>
      <path id="Path_24451" data-name="Path 24451" d="M217.5,105.49a.921.921,0,0,1-.578,0c-.411-.134-.4-.52-.3-.84a.955.955,0,0,1,.874.84Z" transform="translate(-142.506 -90.263)" fill="#ff9bbc"/>
      <path id="Path_24452" data-name="Path 24452" d="M199.434,85.874a3.17,3.17,0,0,0,2.186-2.229,8.287,8.287,0,0,0,3.776-2.067c-.081.148-.64,1.208-.955,1.742a8.542,8.542,0,0,0,7.074-3.47,8.34,8.34,0,0,1,1.556,3.4,9.127,9.127,0,0,0-.621-5.165,4.8,4.8,0,0,0-4.024-2.716,6.869,6.869,0,0,0-6.969.878C197.753,79.086,199.434,85.874,199.434,85.874Z" transform="translate(-133.353 -74.662)" fill="#263238"/>
      <path id="Path_24453" data-name="Path 24453" d="M215.416,87.846a9.07,9.07,0,0,1-2.616.477h0a7.566,7.566,0,0,0,3.914-1.532A7.184,7.184,0,0,0,218,85.526a5.017,5.017,0,0,0,.955-1.714.038.038,0,0,1,.072,0,5.828,5.828,0,0,1-.711,1.824,5.251,5.251,0,0,1-1.341,1.4,6.091,6.091,0,0,1-1.537.792Z" transform="translate(-140.537 -79.36)" fill="#263238"/>
      <path id="Path_24454" data-name="Path 24454" d="M197.6,96.278a1.374,1.374,0,0,0,.329.158,1.222,1.222,0,0,0,.348.081,1.012,1.012,0,0,0,.477-.053,1.213,1.213,0,0,0,.325-.162,1.4,1.4,0,0,0,.372-.363V93.862s-1.16-2.664-2.334-2.291S196.449,95.576,197.6,96.278Z" transform="translate(-131.992 -83.409)" fill="#eb9481"/>
      <path id="Path_24455" data-name="Path 24455" d="M198.146,93.77s-.029,0,0,.033a3.276,3.276,0,0,1,1.246,2.33.711.711,0,0,0-1-.4.029.029,0,0,0,0,.053.788.788,0,0,1,.8.444,3.723,3.723,0,0,1,.272.773c.024.086.172.072.162-.024h0C199.865,95.851,199.316,94.123,198.146,93.77Z" transform="translate(-132.872 -84.577)" fill="#263238"/>
      <path id="Path_24456" data-name="Path 24456" d="M170.082,118c-4.516,3.957-16.077,19.519-13.237,22.851s20.684,1.022,25.816-.821c1.528-.549-3.1-10.187-4.774-10.569-1.408-.32-9.032,2.282-9.2,1.843s1.322-3.881,3.709-10.025C175.132,114.168,172.072,116.254,170.082,118Z" transform="translate(-111.061 -96.353)" fill="#eb9481"/>
      <path id="Path_24457" data-name="Path 24457" d="M217.16,137.189c3.59-.134,4.535.382,7.5-1.346,1.948-1.131,3.509-.372,2.263,1.609-2.038,3.251-6.635,4.4-8.344,4.339Z" transform="translate(-142.816 -106.29)" fill="#eb9481"/>
      <path id="Path_24458" data-name="Path 24458" d="M196.74,141.7a36.614,36.614,0,0,1,8.01-2.334c2.64-.368,8.464-.516,13.395,5.728,1.17,1.475,1.79,4.411-1,2.692-1.981-1.222-2.864-2.592-4.148-3.093,0,0,.348,3.819-1.179,4.941a34.922,34.922,0,0,1-4.191,2.63,7.547,7.547,0,0,1-.563-.74,6.253,6.253,0,0,1-4.167.382Z" transform="translate(-132.144 -108.328)" fill="#eb9481"/>
      <path id="Path_24459" data-name="Path 24459" d="M216.916,139.63a20.881,20.881,0,0,1,5.136,4.482c1.7,2.287,4.349,7.16,2.649,8.378-1.246.9-2.42-.864-2.42-.864s.673,2.239-.63,2.812c-1.189.52-2.019-.9-2.019-.9s.177,1.432-1.065,1.709c-1.494.334-1.613-2.711-3.423-3.676C214.739,151.359,216.916,139.63,216.916,139.63Z" transform="translate(-141.737 -108.545)" fill="#eb9481"/>
      <path id="Path_24460" data-name="Path 24460" d="M224,151.928A11.352,11.352,0,0,1,226.964,158c0,.057-.033.1-.053.043A27.912,27.912,0,0,0,224,151.962Z" transform="translate(-146.391 -114.972)" fill="#263238"/>
      <path id="Path_24461" data-name="Path 24461" d="M219.244,155.658a12.815,12.815,0,0,1,2.6,6.239c0,.057-.038.091-.057.038a29.944,29.944,0,0,0-2.563-6.263S219.234,155.648,219.244,155.658Z" transform="translate(-143.893 -116.921)" fill="#263238"/>
      <path id="Path_24462" data-name="Path 24462" d="M230.771,150.589a9.6,9.6,0,0,1,2.721,1.871,14.624,14.624,0,0,0,1.394,1.093c.444.3,1.1.754,1.637.406a.955.955,0,0,0,.31-.921,4.774,4.774,0,0,0-.506-1.375s0-.033.029,0a6.5,6.5,0,0,1,.578,1.241,1.523,1.523,0,0,1,0,.912c-.234.616-.993.625-1.508.4a4.877,4.877,0,0,1-.864-.53c-.263-.186-.516-.387-.769-.6-.511-.425-1-.878-1.5-1.313a15.67,15.67,0,0,0-1.551-1.127C230.728,150.613,230.747,150.585,230.771,150.589Z" transform="translate(-149.911 -114.273)" fill="#263238"/>
      <path id="Path_24463" data-name="Path 24463" d="M232.444,154.88a36.927,36.927,0,0,0-2.034-4.3l.024-.024a18.827,18.827,0,0,1,2.3,4.115,6.306,6.306,0,0,1,.477,2.506,1.344,1.344,0,0,1-1.246,1.38,1.547,1.547,0,0,1-1.007-.267,3.227,3.227,0,0,1-.845-.955h.029a2.244,2.244,0,0,0,1.68,1.036,1.112,1.112,0,0,0,.788-.329,1.432,1.432,0,0,0,.286-.955,6.573,6.573,0,0,0-.449-2.21Z" transform="translate(-149.584 -114.257)" fill="#263238"/>
      <path id="Path_24464" data-name="Path 24464" d="M175.327,129.5l4.42,12.3s-22.321,2.711-23.825-1.275,8.468-18.016,12.722-21.959c4.931-4.578,5.327-2.812,3.9,1.542-1.489,4.554-4.134,11.094-4.134,11.094Z" transform="translate(-110.731 -96.129)" fill="#ffc727"/>
      <path id="Path_24465" data-name="Path 24465" d="M167.645,149.88a24.541,24.541,0,0,1,6.893-2.568c.683-.153,1.37-.272,2.057-.391,0,0,.024.029,0,.029a32.69,32.69,0,0,0-3.556.988c-1.16.387-2.31.788-3.456,1.217-.649.239-1.284.511-1.909.773a.028.028,0,1,1-.029-.048Z" transform="translate(-116.931 -112.355)" fill="#263238"/>
      <path id="Path_24466" data-name="Path 24466" d="M189.068,138.794c-.11,0-6.282,1.389-6.483,1.461.033-.091,1.432-3.155,1.628-3.6a1.139,1.139,0,0,1,.062-.134c.129-.2.258-.4.382-.6s.31-.516.477-.778l-.5.754c-.076.115-.148.234-.22.353.138-.315.272-.635.406-.955.215-.511.411-1.031.606-1.547,0,0,0-.024-.024,0-.411.893-.85,1.776-1.26,2.668s-1.981,4.177-1.971,4.172,6.807-1.656,6.941-1.7a.052.052,0,1,0-.043-.1Z" transform="translate(-124.529 -105.466)" fill="#263238"/>
      <path id="Path_24467" data-name="Path 24467" d="M193.167,153.427c-.477-1.375-.955-2.75-1.489-4.105-.305-.769-.6-1.542-.917-2.306,0-.029-.062,0-.053,0,.43,1.4.864,2.8,1.36,4.172s.955,2.745,1.48,4.11c.291.773.6,1.537.955,2.3h.029C194.132,156.186,193.654,154.807,193.167,153.427Z" transform="translate(-128.991 -112.399)" fill="#263238"/>
      <path id="Path_24468" data-name="Path 24468" d="M182.144,169.115c-.181-.382-.406-.955-.6-1.3-.053-.1-.129-.091-.086,0,.134.344.234.726.363,1.079l-.955.091-1.084.115c-.711.072-1.432.138-2.129.2q-2.153.181-4.3.267a83.348,83.348,0,0,1-8.669-.053c-.807-.053-1.613-.119-2.415-.21a23.426,23.426,0,0,1-2.363-.353c-.024,0-.029.029,0,.038a13.137,13.137,0,0,0,2.038.477c.726.11,1.432.2,2.182.263,1.456.129,2.912.181,4.373.2q4.339.038,8.669-.3c.807-.057,1.613-.129,2.42-.21.411-.038.816-.081,1.222-.129A7.558,7.558,0,0,0,182.144,169.115Z" transform="translate(-112.884 -123.236)" fill="#263238"/>
      <rect id="Rectangle_150027" data-name="Rectangle 150027" width="28.107" height="1.26" transform="translate(71.298 47.182)" fill="#c7c7c7"/>
      <path id="Path_24469" data-name="Path 24469" d="M248.739,173.35v1.26H229.63l.964-1.26Z" transform="translate(-149.333 -126.168)" fill="#a6a6a6"/>
      <path id="Path_24470" data-name="Path 24470" d="M237.73,156.987h24.6l3.561-17.357h-24.6Z" transform="translate(-153.567 -108.545)" fill="#a6a6a6"/>
      <path id="Path_24471" data-name="Path 24471" d="M240.14,156.987h24.6L268.3,139.63H243.7Z" transform="translate(-154.826 -108.545)" fill="#c7c7c7"/>
      <path id="Path_24472" data-name="Path 24472" d="M271.491,155.1a1.733,1.733,0,0,1-1.227,1.747,1.133,1.133,0,0,1-1.318-1.217,1.728,1.728,0,0,1,1.227-1.752C270.88,153.726,271.463,154.275,271.491,155.1Z" transform="translate(-169.881 -115.977)" fill="#fff"/>
    </g>
    <g id="freepik--Coins--inject-15" transform="translate(71.187 195.028)">
      <rect id="Rectangle_150028" data-name="Rectangle 150028" width="30.575" height="6.755" transform="translate(115.182 33.721)" fill="#ffc727"/>
      <g id="Group_163401" data-name="Group 163401" transform="translate(116.202 34.341)" opacity="0.1">
        <path id="Path_24473" data-name="Path 24473" d="M341,432.87a15.413,15.413,0,0,1,0,5.4,13.255,13.255,0,0,1-.239-2.7A13.6,13.6,0,0,1,341,432.87Z" transform="translate(-340.757 -432.87)"/>
        <path id="Path_24474" data-name="Path 24474" d="M345.739,432.87a15.413,15.413,0,0,1,0,5.4,15.415,15.415,0,0,1,0-5.4Z" transform="translate(-343.236 -432.87)"/>
        <path id="Path_24475" data-name="Path 24475" d="M348.1,432.87a15.414,15.414,0,0,1,0,5.4,13.255,13.255,0,0,1-.239-2.7A13.6,13.6,0,0,1,348.1,432.87Z" transform="translate(-344.468 -432.87)"/>
        <path id="Path_24476" data-name="Path 24476" d="M360.887,432.87a13.973,13.973,0,0,1,.239,2.7,13.605,13.605,0,0,1-.239,2.7,13.259,13.259,0,0,1-.239-2.7A13.608,13.608,0,0,1,360.887,432.87Z" transform="translate(-351.152 -432.87)"/>
        <path id="Path_24477" data-name="Path 24477" d="M364.347,432.87a13.971,13.971,0,0,1,.239,2.7,13.605,13.605,0,0,1-.239,2.7,13.256,13.256,0,0,1-.239-2.7A13.978,13.978,0,0,1,364.347,432.87Z" transform="translate(-352.961 -432.87)"/>
        <path id="Path_24478" data-name="Path 24478" d="M378.657,432.87a15.414,15.414,0,0,1,0,5.4,13.257,13.257,0,0,1-.239-2.7A13.608,13.608,0,0,1,378.657,432.87Z" transform="translate(-360.44 -432.87)"/>
        <path id="Path_24479" data-name="Path 24479" d="M381.959,432.87a15.415,15.415,0,0,1,0,5.4A15.412,15.412,0,0,1,381.959,432.87Z" transform="translate(-362.166 -432.87)"/>
        <path id="Path_24480" data-name="Path 24480" d="M388.034,432.87a15.412,15.412,0,0,1,0,5.4A15.721,15.721,0,0,1,388.034,432.87Z" transform="translate(-365.344 -432.87)"/>
        <path id="Path_24481" data-name="Path 24481" d="M375.889,432.87a15.416,15.416,0,0,1,0,5.4,15.412,15.412,0,0,1,0-5.4Z" transform="translate(-358.994 -432.87)"/>
        <path id="Path_24482" data-name="Path 24482" d="M352.329,432.87a15.415,15.415,0,0,1,0,5.4A15.412,15.412,0,0,1,352.329,432.87Z" transform="translate(-346.68 -432.87)"/>
        <path id="Path_24483" data-name="Path 24483" d="M368.9,432.87a15.413,15.413,0,0,1,0,5.4A15.414,15.414,0,0,1,368.9,432.87Z" transform="translate(-355.34 -432.87)"/>
        <path id="Path_24484" data-name="Path 24484" d="M371.289,432.87a15.415,15.415,0,0,1,0,5.4A15.413,15.413,0,0,1,371.289,432.87Z" transform="translate(-356.589 -432.87)"/>
        <path id="Path_24485" data-name="Path 24485" d="M395.947,432.87a15.413,15.413,0,0,1,0,5.4,13.257,13.257,0,0,1-.239-2.7A13.6,13.6,0,0,1,395.947,432.87Z" transform="translate(-369.476 -432.87)"/>
        <path id="Path_24486" data-name="Path 24486" d="M399.529,432.87a15.721,15.721,0,0,1,0,5.4A15.412,15.412,0,0,1,399.529,432.87Z" transform="translate(-371.349 -432.87)"/>
        <path id="Path_24487" data-name="Path 24487" d="M390.849,432.87a15.413,15.413,0,0,1,0,5.4A15.416,15.416,0,0,1,390.849,432.87Z" transform="translate(-366.812 -432.87)"/>
        <path id="Path_24488" data-name="Path 24488" d="M358.124,432.87a15.416,15.416,0,0,1,0,5.4A15.718,15.718,0,0,1,358.124,432.87Z" transform="translate(-349.711 -432.87)"/>
      </g>
      <path id="Path_24489" data-name="Path 24489" d="M369.19,431.57v1.437l-30.57.964v-2.4Z" transform="translate(-223.438 -397.849)" opacity="0.1"/>
      <rect id="Rectangle_150029" data-name="Rectangle 150029" width="30.575" height="6.755" transform="translate(112.628 26.966)" fill="#ffc727"/>
      <g id="Group_163402" data-name="Group 163402" transform="translate(113.65 27.567)" opacity="0.1">
        <path id="Path_24490" data-name="Path 24490" d="M394.178,424.084a13.971,13.971,0,0,1-.239-2.7,13.573,13.573,0,0,1,.239-2.7,13.228,13.228,0,0,1,.239,2.7,13.972,13.972,0,0,1-.239,2.7Z" transform="translate(-365.999 -418.68)"/>
        <path id="Path_24491" data-name="Path 24491" d="M389.408,424.084a13.976,13.976,0,0,1-.239-2.7,13.578,13.578,0,0,1,.239-2.7,13.23,13.23,0,0,1,.239,2.7A13.608,13.608,0,0,1,389.408,424.084Z" transform="translate(-363.506 -418.68)"/>
        <path id="Path_24492" data-name="Path 24492" d="M387.078,424.084a13.971,13.971,0,0,1-.239-2.7,13.576,13.576,0,0,1,.239-2.7,13.228,13.228,0,0,1,.239,2.7,13.974,13.974,0,0,1-.239,2.7Z" transform="translate(-362.288 -418.68)"/>
        <path id="Path_24493" data-name="Path 24493" d="M374.287,424.084a13.971,13.971,0,0,1-.239-2.7,13.23,13.23,0,0,1,.239-2.7,13.574,13.574,0,0,1,.239,2.7,13.974,13.974,0,0,1-.239,2.7Z" transform="translate(-355.603 -418.68)"/>
        <path id="Path_24494" data-name="Path 24494" d="M370.827,424.084a13.6,13.6,0,0,1-.239-2.7,13.225,13.225,0,0,1,.239-2.7,13.576,13.576,0,0,1,.239,2.7,13.971,13.971,0,0,1-.239,2.7Z" transform="translate(-353.795 -418.68)"/>
        <path id="Path_24495" data-name="Path 24495" d="M356.517,424.084a13.976,13.976,0,0,1-.239-2.7,13.233,13.233,0,0,1,.239-2.7,13.228,13.228,0,0,1,.239,2.7,13.974,13.974,0,0,1-.239,2.7Z" transform="translate(-346.316 -418.68)"/>
        <path id="Path_24496" data-name="Path 24496" d="M353.209,424.084a15.413,15.413,0,0,1,0-5.4,15.414,15.414,0,0,1,0,5.4Z" transform="translate(-344.588 -418.68)"/>
        <path id="Path_24497" data-name="Path 24497" d="M347.139,424.084a15.412,15.412,0,0,1,0-5.4,15.415,15.415,0,0,1,0,5.4Z" transform="translate(-341.415 -418.68)"/>
        <path id="Path_24498" data-name="Path 24498" d="M359.279,424.084a15.415,15.415,0,0,1,0-5.4,15.415,15.415,0,0,1,0,5.4Z" transform="translate(-347.76 -418.68)"/>
        <path id="Path_24499" data-name="Path 24499" d="M382.849,424.084a15.413,15.413,0,0,1,0-5.4,15.417,15.417,0,0,1,0,5.4Z" transform="translate(-360.079 -418.68)"/>
        <path id="Path_24500" data-name="Path 24500" d="M366.279,424.084a15.413,15.413,0,0,1,0-5.4,15.415,15.415,0,0,1,0,5.4Z" transform="translate(-351.419 -418.68)"/>
        <path id="Path_24501" data-name="Path 24501" d="M363.888,424.084a13.971,13.971,0,0,1-.239-2.7,13.576,13.576,0,0,1,.239-2.7,13.226,13.226,0,0,1,.239,2.7,13.6,13.6,0,0,1-.239,2.7Z" transform="translate(-350.168 -418.68)"/>
        <path id="Path_24502" data-name="Path 24502" d="M339.228,424.084a13.973,13.973,0,0,1-.239-2.7,13.574,13.574,0,0,1,.239-2.7,13.226,13.226,0,0,1,.239,2.7,13.976,13.976,0,0,1-.239,2.7Z" transform="translate(-337.28 -418.68)"/>
        <path id="Path_24503" data-name="Path 24503" d="M335.649,424.084a15.413,15.413,0,0,1,0-5.4,15.415,15.415,0,0,1,0,5.4Z" transform="translate(-335.41 -418.68)"/>
        <path id="Path_24504" data-name="Path 24504" d="M344.329,424.084a15.412,15.412,0,0,1,0-5.4A15.721,15.721,0,0,1,344.329,424.084Z" transform="translate(-339.947 -418.68)"/>
        <path id="Path_24505" data-name="Path 24505" d="M377.049,424.084a15.415,15.415,0,0,1,0-5.4,15.415,15.415,0,0,1,0,5.4Z" transform="translate(-357.047 -418.68)"/>
      </g>
      <path id="Path_24506" data-name="Path 24506" d="M363.845,417.42v1.437l-30.575.964v-2.4Z" transform="translate(-220.642 -390.454)" opacity="0.1"/>
      <rect id="Rectangle_150030" data-name="Rectangle 150030" width="30.575" height="6.755" transform="translate(114.986 20.264)" fill="#ffc727"/>
      <g id="Group_163403" data-name="Group 163403" transform="translate(116.007 20.884)" opacity="0.1">
        <path id="Path_24507" data-name="Path 24507" d="M340.587,404.68a15.413,15.413,0,0,1,0,5.4,13.226,13.226,0,0,1-.239-2.7A13.637,13.637,0,0,1,340.587,404.68Z" transform="translate(-340.347 -404.68)"/>
        <path id="Path_24508" data-name="Path 24508" d="M345.359,404.68a15.415,15.415,0,0,1,0,5.4A15.413,15.413,0,0,1,345.359,404.68Z" transform="translate(-342.842 -404.68)"/>
        <path id="Path_24509" data-name="Path 24509" d="M347.737,404.68a15.416,15.416,0,0,1,0,5.4,13.228,13.228,0,0,1-.239-2.7A13.644,13.644,0,0,1,347.737,404.68Z" transform="translate(-344.084 -404.68)"/>
        <path id="Path_24510" data-name="Path 24510" d="M360.477,404.68a14,14,0,0,1,.239,2.7,13.578,13.578,0,0,1-.239,2.7,13.228,13.228,0,0,1-.239-2.7A13.64,13.64,0,0,1,360.477,404.68Z" transform="translate(-350.742 -404.68)"/>
        <path id="Path_24511" data-name="Path 24511" d="M363.937,404.68a14,14,0,0,1,.239,2.7,13.574,13.574,0,0,1-.239,2.7,13.229,13.229,0,0,1-.239-2.7,14.008,14.008,0,0,1,.239-2.7Z" transform="translate(-352.551 -404.68)"/>
        <path id="Path_24512" data-name="Path 24512" d="M378.247,404.68a15.414,15.414,0,0,1,0,5.4,13.226,13.226,0,0,1-.239-2.7,13.638,13.638,0,0,1,.239-2.7Z" transform="translate(-360.03 -404.68)"/>
        <path id="Path_24513" data-name="Path 24513" d="M381.549,404.68a15.412,15.412,0,0,1,0,5.4A15.415,15.415,0,0,1,381.549,404.68Z" transform="translate(-361.756 -404.68)"/>
        <path id="Path_24514" data-name="Path 24514" d="M387.619,404.68a15.412,15.412,0,0,1,0,5.4A15.416,15.416,0,0,1,387.619,404.68Z" transform="translate(-364.928 -404.68)"/>
        <path id="Path_24515" data-name="Path 24515" d="M375.479,404.68a15.415,15.415,0,0,1,0,5.4A15.413,15.413,0,0,1,375.479,404.68Z" transform="translate(-358.584 -404.68)"/>
        <path id="Path_24516" data-name="Path 24516" d="M351.919,404.68a15.413,15.413,0,0,1,0,5.4A15.415,15.415,0,0,1,351.919,404.68Z" transform="translate(-346.27 -404.68)"/>
        <path id="Path_24517" data-name="Path 24517" d="M368.489,404.68a15.416,15.416,0,0,1,0,5.4A15.412,15.412,0,0,1,368.489,404.68Z" transform="translate(-354.93 -404.68)"/>
        <path id="Path_24518" data-name="Path 24518" d="M370.879,404.68a15.413,15.413,0,0,1,0,5.4A15.413,15.413,0,0,1,370.879,404.68Z" transform="translate(-356.179 -404.68)"/>
        <path id="Path_24519" data-name="Path 24519" d="M395.539,404.68a15.412,15.412,0,0,1,0,5.4A15.416,15.416,0,0,1,395.539,404.68Z" transform="translate(-369.068 -404.68)"/>
        <path id="Path_24520" data-name="Path 24520" d="M399.114,404.68a15.413,15.413,0,0,1,0,5.4A15.721,15.721,0,0,1,399.114,404.68Z" transform="translate(-370.939 -404.68)"/>
        <path id="Path_24521" data-name="Path 24521" d="M390.439,404.68a15.412,15.412,0,0,1,0,5.4A15.415,15.415,0,0,1,390.439,404.68Z" transform="translate(-366.402 -404.68)"/>
        <path id="Path_24522" data-name="Path 24522" d="M357.739,404.68a15.413,15.413,0,0,1,0,5.4A15.415,15.415,0,0,1,357.739,404.68Z" transform="translate(-349.312 -404.68)"/>
      </g>
      <path id="Path_24523" data-name="Path 24523" d="M368.78,403.39v1.432l-30.57.964v-2.4Z" transform="translate(-223.224 -383.121)" opacity="0.1"/>
      <rect id="Rectangle_150031" data-name="Rectangle 150031" width="30.575" height="6.755" transform="translate(21.787 33.721)" fill="#ffc727"/>
      <g id="Group_163404" data-name="Group 163404" transform="translate(22.807 34.341)" opacity="0.1">
        <path id="Path_24524" data-name="Path 24524" d="M145.348,432.87a13.6,13.6,0,0,1,.239,2.7,13.256,13.256,0,0,1-.239,2.7,13.6,13.6,0,0,1-.239-2.7,13.972,13.972,0,0,1,.239-2.7Z" transform="translate(-145.108 -432.87)"/>
        <path id="Path_24525" data-name="Path 24525" d="M150.118,432.87a13.6,13.6,0,0,1,.239,2.7,13.255,13.255,0,0,1-.239,2.7,13.606,13.606,0,0,1-.239-2.7A13.973,13.973,0,0,1,150.118,432.87Z" transform="translate(-147.601 -432.87)"/>
        <path id="Path_24526" data-name="Path 24526" d="M152.449,432.87a13.605,13.605,0,0,1,.239,2.7,13.256,13.256,0,0,1-.239,2.7A15.413,15.413,0,0,1,152.449,432.87Z" transform="translate(-148.82 -432.87)"/>
        <path id="Path_24527" data-name="Path 24527" d="M165.239,432.87a15.414,15.414,0,0,1,0,5.4A15.414,15.414,0,0,1,165.239,432.87Z" transform="translate(-155.504 -432.87)"/>
        <path id="Path_24528" data-name="Path 24528" d="M168.739,432.87a15.414,15.414,0,0,1,0,5.4A15.414,15.414,0,0,1,168.739,432.87Z" transform="translate(-157.334 -432.87)"/>
        <path id="Path_24529" data-name="Path 24529" d="M183.009,432.87a13.6,13.6,0,0,1,.239,2.7,13.256,13.256,0,0,1-.239,2.7A15.414,15.414,0,0,1,183.009,432.87Z" transform="translate(-164.792 -432.87)"/>
        <path id="Path_24530" data-name="Path 24530" d="M186.317,432.87a15.415,15.415,0,0,1,0,5.4,13.256,13.256,0,0,1-.239-2.7A13.6,13.6,0,0,1,186.317,432.87Z" transform="translate(-166.52 -432.87)"/>
        <path id="Path_24531" data-name="Path 24531" d="M192.387,432.87a15.414,15.414,0,0,1,0,5.4,13.256,13.256,0,0,1-.239-2.7A13.6,13.6,0,0,1,192.387,432.87Z" transform="translate(-169.693 -432.87)"/>
        <path id="Path_24532" data-name="Path 24532" d="M180.249,432.87a15.414,15.414,0,0,1,0,5.4A15.413,15.413,0,0,1,180.249,432.87Z" transform="translate(-163.349 -432.87)"/>
        <path id="Path_24533" data-name="Path 24533" d="M156.677,432.87a13.971,13.971,0,0,1,.239,2.7,13.6,13.6,0,0,1-.239,2.7,13.258,13.258,0,0,1-.239-2.7A13.606,13.606,0,0,1,156.677,432.87Z" transform="translate(-151.029 -432.87)"/>
        <path id="Path_24534" data-name="Path 24534" d="M173.259,432.87a15.414,15.414,0,0,1,0,5.4A15.413,15.413,0,0,1,173.259,432.87Z" transform="translate(-159.696 -432.87)"/>
        <path id="Path_24535" data-name="Path 24535" d="M175.638,432.87a13.972,13.972,0,0,1,.239,2.7,13.255,13.255,0,0,1-.239,2.7,13.605,13.605,0,0,1-.239-2.7A13.973,13.973,0,0,1,175.638,432.87Z" transform="translate(-160.939 -432.87)"/>
        <path id="Path_24536" data-name="Path 24536" d="M200.3,432.87a13.605,13.605,0,0,1,.239,2.7,13.253,13.253,0,0,1-.239,2.7,13.605,13.605,0,0,1-.239-2.7A13.973,13.973,0,0,1,200.3,432.87Z" transform="translate(-173.827 -432.87)"/>
        <path id="Path_24537" data-name="Path 24537" d="M203.877,432.87a15.414,15.414,0,0,1,0,5.4,13.256,13.256,0,0,1-.239-2.7,13.6,13.6,0,0,1,.239-2.7Z" transform="translate(-175.698 -432.87)"/>
        <path id="Path_24538" data-name="Path 24538" d="M195.209,432.87a15.413,15.413,0,0,1,0,5.4A15.414,15.414,0,0,1,195.209,432.87Z" transform="translate(-171.168 -432.87)"/>
        <path id="Path_24539" data-name="Path 24539" d="M162.477,432.87a15.414,15.414,0,0,1,0,5.4,13.256,13.256,0,0,1-.239-2.7A13.6,13.6,0,0,1,162.477,432.87Z" transform="translate(-154.06 -432.87)"/>
      </g>
      <path id="Path_24540" data-name="Path 24540" d="M173.54,431.57v1.437l-30.57.964v-2.4Z" transform="translate(-121.183 -397.849)" opacity="0.1"/>
      <rect id="Rectangle_150032" data-name="Rectangle 150032" width="30.575" height="6.755" transform="translate(19.696 26.966)" fill="#ffc727"/>
      <g id="Group_163405" data-name="Group 163405" transform="translate(20.717 27.587)" opacity="0.1">
        <path id="Path_24541" data-name="Path 24541" d="M140.968,418.72a13.578,13.578,0,0,1,.239,2.7,13.258,13.258,0,0,1-.239,2.7,13.6,13.6,0,0,1-.239-2.7A13.942,13.942,0,0,1,140.968,418.72Z" transform="translate(-140.728 -418.72)"/>
        <path id="Path_24542" data-name="Path 24542" d="M145.738,418.72a13.577,13.577,0,0,1,.239,2.7,13.257,13.257,0,0,1-.239,2.683,13.6,13.6,0,0,1-.239-2.7A13.939,13.939,0,0,1,145.738,418.72Z" transform="translate(-143.221 -418.72)"/>
        <path id="Path_24543" data-name="Path 24543" d="M148.068,418.72a13.577,13.577,0,0,1,.239,2.7,13.258,13.258,0,0,1-.239,2.7,13.6,13.6,0,0,1-.239-2.7A13.939,13.939,0,0,1,148.068,418.72Z" transform="translate(-144.439 -418.72)"/>
        <path id="Path_24544" data-name="Path 24544" d="M160.859,418.72a15.414,15.414,0,0,1,0,5.4A15.414,15.414,0,0,1,160.859,418.72Z" transform="translate(-151.124 -418.72)"/>
        <path id="Path_24545" data-name="Path 24545" d="M164.319,418.72a15.414,15.414,0,0,1,0,5.4A15.414,15.414,0,0,1,164.319,418.72Z" transform="translate(-152.933 -418.72)"/>
        <path id="Path_24546" data-name="Path 24546" d="M178.628,418.72a13.578,13.578,0,0,1,.239,2.7,13.256,13.256,0,0,1-.239,2.7,13.6,13.6,0,0,1-.239-2.7A13.94,13.94,0,0,1,178.628,418.72Z" transform="translate(-160.411 -418.72)"/>
        <path id="Path_24547" data-name="Path 24547" d="M181.939,418.72a15.414,15.414,0,0,1,0,5.4A15.414,15.414,0,0,1,181.939,418.72Z" transform="translate(-162.142 -418.72)"/>
        <path id="Path_24548" data-name="Path 24548" d="M188.007,418.72a15.414,15.414,0,0,1,0,5.4,13.256,13.256,0,0,1-.239-2.7,13.579,13.579,0,0,1,.239-2.7Z" transform="translate(-165.313 -418.72)"/>
        <path id="Path_24549" data-name="Path 24549" d="M175.869,418.72a15.414,15.414,0,0,1,0,5.4A15.414,15.414,0,0,1,175.869,418.72Z" transform="translate(-158.969 -418.72)"/>
        <path id="Path_24550" data-name="Path 24550" d="M152.3,418.72a13.939,13.939,0,0,1,.239,2.7,13.6,13.6,0,0,1-.239,2.7,13.258,13.258,0,0,1-.239-2.7,13.577,13.577,0,0,1,.239-2.7Z" transform="translate(-146.649 -418.72)"/>
        <path id="Path_24551" data-name="Path 24551" d="M168.879,418.72a15.414,15.414,0,0,1,0,5.4A15.414,15.414,0,0,1,168.879,418.72Z" transform="translate(-155.316 -418.72)"/>
        <path id="Path_24552" data-name="Path 24552" d="M171.258,418.72a13.94,13.94,0,0,1,.239,2.7,13.256,13.256,0,0,1-.239,2.7,13.6,13.6,0,0,1-.239-2.7A13.938,13.938,0,0,1,171.258,418.72Z" transform="translate(-156.559 -418.72)"/>
        <path id="Path_24553" data-name="Path 24553" d="M195.918,418.72a13.577,13.577,0,0,1,.239,2.7,13.256,13.256,0,0,1-.239,2.7,13.606,13.606,0,0,1-.239-2.7A13.942,13.942,0,0,1,195.918,418.72Z" transform="translate(-169.447 -418.72)"/>
        <path id="Path_24554" data-name="Path 24554" d="M199.5,418.72a15.414,15.414,0,0,1,0,5.4,13.258,13.258,0,0,1-.239-2.7,13.578,13.578,0,0,1,.239-2.7Z" transform="translate(-171.318 -418.72)"/>
        <path id="Path_24555" data-name="Path 24555" d="M190.829,418.72a15.414,15.414,0,0,1,0,5.4A15.414,15.414,0,0,1,190.829,418.72Z" transform="translate(-166.788 -418.72)"/>
        <path id="Path_24556" data-name="Path 24556" d="M158.1,418.72a15.414,15.414,0,0,1,0,5.4,13.256,13.256,0,0,1-.239-2.7,13.576,13.576,0,0,1,.239-2.7Z" transform="translate(-149.68 -418.72)"/>
      </g>
      <path id="Path_24557" data-name="Path 24557" d="M169.16,417.42v1.437l-30.57.964v-2.4Z" transform="translate(-118.894 -390.454)" opacity="0.1"/>
      <rect id="Rectangle_150033" data-name="Rectangle 150033" width="30.575" height="6.755" transform="translate(24.422 13.509)" fill="#ffc727"/>
      <g id="Group_163406" data-name="Group 163406" transform="translate(25.443 14.13)" opacity="0.1">
        <path id="Path_24558" data-name="Path 24558" d="M150.869,390.53a15.413,15.413,0,0,1,0,5.4A15.414,15.414,0,0,1,150.869,390.53Z" transform="translate(-150.63 -390.53)"/>
        <path id="Path_24559" data-name="Path 24559" d="M155.634,390.53a15.414,15.414,0,0,1,0,5.4A15.719,15.719,0,0,1,155.634,390.53Z" transform="translate(-153.123 -390.53)"/>
        <path id="Path_24560" data-name="Path 24560" d="M157.969,390.53a15.413,15.413,0,0,1,0,5.4A15.414,15.414,0,0,1,157.969,390.53Z" transform="translate(-154.341 -390.53)"/>
        <path id="Path_24561" data-name="Path 24561" d="M170.739,390.53a15.413,15.413,0,0,1,0,5.4A15.414,15.414,0,0,1,170.739,390.53Z" transform="translate(-161.015 -390.53)"/>
        <path id="Path_24562" data-name="Path 24562" d="M174.219,390.53a15.413,15.413,0,0,1,0,5.4A15.414,15.414,0,0,1,174.219,390.53Z" transform="translate(-162.834 -390.53)"/>
        <path id="Path_24563" data-name="Path 24563" d="M188.529,390.53a15.413,15.413,0,0,1,0,5.4A15.414,15.414,0,0,1,188.529,390.53Z" transform="translate(-170.313 -390.53)"/>
        <path id="Path_24564" data-name="Path 24564" d="M191.829,390.53a13.6,13.6,0,0,1,.239,2.7,13.228,13.228,0,0,1-.239,2.7A15.414,15.414,0,0,1,191.829,390.53Z" transform="translate(-172.037 -390.53)"/>
        <path id="Path_24565" data-name="Path 24565" d="M197.9,390.53a15.414,15.414,0,0,1,0,5.4A15.413,15.413,0,0,1,197.9,390.53Z" transform="translate(-175.21 -390.53)"/>
        <path id="Path_24566" data-name="Path 24566" d="M185.739,390.53a13.606,13.606,0,0,1,.239,2.7,13.228,13.228,0,0,1-.239,2.7A15.414,15.414,0,0,1,185.739,390.53Z" transform="translate(-168.855 -390.53)"/>
        <path id="Path_24567" data-name="Path 24567" d="M162.189,390.53a15.414,15.414,0,0,1,0,5.4A15.413,15.413,0,0,1,162.189,390.53Z" transform="translate(-156.546 -390.53)"/>
        <path id="Path_24568" data-name="Path 24568" d="M178.737,390.53a13.972,13.972,0,0,1,.239,2.7,13.576,13.576,0,0,1-.239,2.7,13.229,13.229,0,0,1-.239-2.7,13.972,13.972,0,0,1,.239-2.7Z" transform="translate(-165.195 -390.53)"/>
        <path id="Path_24569" data-name="Path 24569" d="M181.149,390.53a15.413,15.413,0,0,1,0,5.4A15.414,15.414,0,0,1,181.149,390.53Z" transform="translate(-166.456 -390.53)"/>
        <path id="Path_24570" data-name="Path 24570" d="M205.819,390.53a15.719,15.719,0,0,1,0,5.4A15.414,15.414,0,0,1,205.819,390.53Z" transform="translate(-179.349 -390.53)"/>
        <path id="Path_24571" data-name="Path 24571" d="M209.389,390.53a15.414,15.414,0,0,1,0,5.4A15.414,15.414,0,0,1,209.389,390.53Z" transform="translate(-181.215 -390.53)"/>
        <path id="Path_24572" data-name="Path 24572" d="M200.738,390.53a13.972,13.972,0,0,1,.239,2.7,13.229,13.229,0,0,1-.239,2.7,13.577,13.577,0,0,1-.239-2.7A13.973,13.973,0,0,1,200.738,390.53Z" transform="translate(-176.693 -390.53)"/>
        <path id="Path_24573" data-name="Path 24573" d="M167.989,390.53a15.413,15.413,0,0,1,0,5.4A15.414,15.414,0,0,1,167.989,390.53Z" transform="translate(-159.578 -390.53)"/>
      </g>
      <path id="Path_24574" data-name="Path 24574" d="M179.06,389.23v1.437l-30.57.964v-2.4Z" transform="translate(-124.068 -375.721)" opacity="0.1"/>
      <rect id="Rectangle_150034" data-name="Rectangle 150034" width="30.575" height="6.755" transform="translate(23.649 6.755)" fill="#ffc727"/>
      <g id="Group_163407" data-name="Group 163407" transform="translate(24.664 7.356)" opacity="0.1">
        <path id="Path_24575" data-name="Path 24575" d="M207.739,381.784a15.413,15.413,0,0,1,0-5.4,15.414,15.414,0,0,1,0,5.4Z" transform="translate(-179.573 -376.361)"/>
        <path id="Path_24576" data-name="Path 24576" d="M203.009,381.784a15.414,15.414,0,0,1,0-5.4,15.413,15.413,0,0,1,0,5.4Z" transform="translate(-177.101 -376.361)"/>
        <path id="Path_24577" data-name="Path 24577" d="M200.679,381.784a15.413,15.413,0,0,1,0-5.4,15.414,15.414,0,0,1,0,5.4Z" transform="translate(-175.883 -376.361)"/>
        <path id="Path_24578" data-name="Path 24578" d="M187.879,381.784a15.414,15.414,0,0,1,0-5.4,15.413,15.413,0,0,1,0,5.4Z" transform="translate(-169.193 -376.361)"/>
        <path id="Path_24579" data-name="Path 24579" d="M184.419,381.784a15.414,15.414,0,0,1,0-5.4,15.413,15.413,0,0,1,0,5.4Z" transform="translate(-167.385 -376.361)"/>
        <path id="Path_24580" data-name="Path 24580" d="M170.119,381.784a15.413,15.413,0,0,1,0-5.4,15.414,15.414,0,0,1,0,5.4Z" transform="translate(-159.911 -376.361)"/>
        <path id="Path_24581" data-name="Path 24581" d="M166.807,381.784a13.6,13.6,0,0,1-.239-2.7,13.226,13.226,0,0,1,.239-2.7,13.576,13.576,0,0,1,.239,2.7A13.972,13.972,0,0,1,166.807,381.784Z" transform="translate(-158.18 -376.361)"/>
        <path id="Path_24582" data-name="Path 24582" d="M160.737,381.784a13.607,13.607,0,0,1-.239-2.7,13.228,13.228,0,0,1,.239-2.7,13.576,13.576,0,0,1,.239,2.7A13.971,13.971,0,0,1,160.737,381.784Z" transform="translate(-155.007 -376.361)"/>
        <path id="Path_24583" data-name="Path 24583" d="M172.877,381.784a13.971,13.971,0,0,1-.239-2.7,13.228,13.228,0,0,1,.239-2.7,13.577,13.577,0,0,1,.239,2.7A13.971,13.971,0,0,1,172.877,381.784Z" transform="translate(-161.352 -376.361)"/>
        <path id="Path_24584" data-name="Path 24584" d="M196.447,381.784a13.606,13.606,0,0,1-.239-2.7,13.227,13.227,0,0,1,.239-2.7,15.414,15.414,0,0,1,0,5.4Z" transform="translate(-173.671 -376.361)"/>
        <path id="Path_24585" data-name="Path 24585" d="M179.868,381.784a13.972,13.972,0,0,1-.239-2.7,13.578,13.578,0,0,1,.239-2.7,13.227,13.227,0,0,1,.239,2.7A13.607,13.607,0,0,1,179.868,381.784Z" transform="translate(-165.006 -376.361)"/>
        <path id="Path_24586" data-name="Path 24586" d="M177.489,381.784a15.414,15.414,0,0,1,0-5.4,15.413,15.413,0,0,1,0,5.4Z" transform="translate(-163.763 -376.361)"/>
        <path id="Path_24587" data-name="Path 24587" d="M152.829,381.784a15.413,15.413,0,0,1,0-5.4,15.414,15.414,0,0,1,0,5.4Z" transform="translate(-150.875 -376.361)"/>
        <path id="Path_24588" data-name="Path 24588" d="M149.242,381.763a13.6,13.6,0,0,1-.243-2.721,13.227,13.227,0,0,1,.239-2.7,13.576,13.576,0,0,1,.239,2.7A13.973,13.973,0,0,1,149.242,381.763Z" transform="translate(-148.997 -376.34)"/>
        <path id="Path_24589" data-name="Path 24589" d="M157.918,381.784a13.973,13.973,0,0,1-.239-2.7,13.577,13.577,0,0,1,.239-2.7,13.23,13.23,0,0,1,.239,2.7A13.972,13.972,0,0,1,157.918,381.784Z" transform="translate(-153.534 -376.361)"/>
        <path id="Path_24590" data-name="Path 24590" d="M190.647,381.784a13.6,13.6,0,0,1-.239-2.7,13.226,13.226,0,0,1,.239-2.7,13.576,13.576,0,0,1,.239,2.7,13.971,13.971,0,0,1-.239,2.7Z" transform="translate(-170.64 -376.361)"/>
      </g>
      <path id="Path_24591" data-name="Path 24591" d="M177.44,375.08v1.437l-30.57.964v-2.4Z" transform="translate(-123.221 -368.325)" opacity="0.1"/>
      <rect id="Rectangle_150035" data-name="Rectangle 150035" width="30.575" height="6.755" transform="translate(21.787)" fill="#ffc727"/>
      <g id="Group_163408" data-name="Group 163408" transform="translate(22.808 0.621)" opacity="0.1">
        <path id="Path_24592" data-name="Path 24592" d="M145.349,362.23a15.414,15.414,0,0,1,0,5.4,15.414,15.414,0,0,1,0-5.4Z" transform="translate(-145.11 -362.23)"/>
        <path id="Path_24593" data-name="Path 24593" d="M150.119,362.23a13.576,13.576,0,0,1,.239,2.7,13.289,13.289,0,0,1-.239,2.7A15.414,15.414,0,0,1,150.119,362.23Z" transform="translate(-147.603 -362.23)"/>
        <path id="Path_24594" data-name="Path 24594" d="M152.449,362.23a15.414,15.414,0,0,1,0,5.4A15.413,15.413,0,0,1,152.449,362.23Z" transform="translate(-148.821 -362.23)"/>
        <path id="Path_24595" data-name="Path 24595" d="M165.239,362.23a15.414,15.414,0,0,1,0,5.4A15.414,15.414,0,0,1,165.239,362.23Z" transform="translate(-155.505 -362.23)"/>
        <path id="Path_24596" data-name="Path 24596" d="M168.739,362.23a15.414,15.414,0,0,1,0,5.4A15.414,15.414,0,0,1,168.739,362.23Z" transform="translate(-157.335 -362.23)"/>
        <path id="Path_24597" data-name="Path 24597" d="M183.009,362.23a15.415,15.415,0,0,1,0,5.4A15.414,15.414,0,0,1,183.009,362.23Z" transform="translate(-164.793 -362.23)"/>
        <path id="Path_24598" data-name="Path 24598" d="M186.317,362.23a13.939,13.939,0,0,1,.239,2.7,13.638,13.638,0,0,1-.239,2.7,13.291,13.291,0,0,1-.239-2.7A13.577,13.577,0,0,1,186.317,362.23Z" transform="translate(-166.521 -362.23)"/>
        <path id="Path_24599" data-name="Path 24599" d="M192.387,362.23a13.937,13.937,0,0,1,.239,2.7,13.638,13.638,0,0,1-.239,2.7,13.288,13.288,0,0,1-.239-2.7A13.94,13.94,0,0,1,192.387,362.23Z" transform="translate(-169.694 -362.23)"/>
        <path id="Path_24600" data-name="Path 24600" d="M180.247,362.23a13.939,13.939,0,0,1,.239,2.7,13.636,13.636,0,0,1-.239,2.7,13.289,13.289,0,0,1-.239-2.7,13.576,13.576,0,0,1,.239-2.7Z" transform="translate(-163.349 -362.23)"/>
        <path id="Path_24601" data-name="Path 24601" d="M156.678,362.23a13.939,13.939,0,0,1,.239,2.7,13.289,13.289,0,0,1-.239,2.7,13.637,13.637,0,0,1-.239-2.7,13.937,13.937,0,0,1,.239-2.7Z" transform="translate(-151.031 -362.23)"/>
        <path id="Path_24602" data-name="Path 24602" d="M173.259,362.23a15.414,15.414,0,0,1,0,5.4A15.413,15.413,0,0,1,173.259,362.23Z" transform="translate(-159.697 -362.23)"/>
        <path id="Path_24603" data-name="Path 24603" d="M175.639,362.23a13.576,13.576,0,0,1,.239,2.7,13.292,13.292,0,0,1-.239,2.7A15.414,15.414,0,0,1,175.639,362.23Z" transform="translate(-160.941 -362.23)"/>
        <path id="Path_24604" data-name="Path 24604" d="M200.3,362.23a15.415,15.415,0,0,1,0,5.4A15.413,15.413,0,0,1,200.3,362.23Z" transform="translate(-173.829 -362.23)"/>
        <path id="Path_24605" data-name="Path 24605" d="M203.877,362.23a13.941,13.941,0,0,1,.239,2.7,13.638,13.638,0,0,1-.239,2.7,13.291,13.291,0,0,1-.239-2.7A13.941,13.941,0,0,1,203.877,362.23Z" transform="translate(-175.699 -362.23)"/>
        <path id="Path_24606" data-name="Path 24606" d="M195.207,362.23a15.413,15.413,0,0,1,0,5.4,13.29,13.29,0,0,1-.239-2.7A13.577,13.577,0,0,1,195.207,362.23Z" transform="translate(-171.167 -362.23)"/>
        <path id="Path_24607" data-name="Path 24607" d="M162.477,362.23a13.939,13.939,0,0,1,.239,2.7,13.639,13.639,0,0,1-.239,2.7,13.291,13.291,0,0,1-.239-2.7,13.941,13.941,0,0,1,.239-2.7Z" transform="translate(-154.061 -362.23)"/>
      </g>
      <path id="Path_24608" data-name="Path 24608" d="M173.54,360.93v1.437l-30.57.964v-2.4Z" transform="translate(-121.183 -360.93)" opacity="0.1"/>
      <rect id="Rectangle_150036" data-name="Rectangle 150036" width="30.575" height="6.755" transform="translate(21.787 20.264)" fill="#ffc727"/>
      <g id="Group_163409" data-name="Group 163409" transform="translate(22.808 20.884)" opacity="0.1">
        <path id="Path_24609" data-name="Path 24609" d="M203.877,410.084a13.576,13.576,0,0,1-.239-2.7,13.29,13.29,0,0,1,.239-2.7,13.64,13.64,0,0,1,.239,2.7A13.941,13.941,0,0,1,203.877,410.084Z" transform="translate(-175.699 -404.68)"/>
        <path id="Path_24610" data-name="Path 24610" d="M199.107,410.084a13.94,13.94,0,0,1-.239-2.7,13.29,13.29,0,0,1,.239-2.7,13.636,13.636,0,0,1,.239,2.7,13.938,13.938,0,0,1-.239,2.7Z" transform="translate(-173.206 -404.68)"/>
        <path id="Path_24611" data-name="Path 24611" d="M196.737,410.084a13.576,13.576,0,0,1-.239-2.7,13.288,13.288,0,0,1,.239-2.7,13.641,13.641,0,0,1,.239,2.7A13.941,13.941,0,0,1,196.737,410.084Z" transform="translate(-171.967 -404.68)"/>
        <path id="Path_24612" data-name="Path 24612" d="M183.987,410.084a13.576,13.576,0,0,1-.239-2.7,13.288,13.288,0,0,1,.239-2.7A15.414,15.414,0,0,1,183.987,410.084Z" transform="translate(-165.303 -404.68)"/>
        <path id="Path_24613" data-name="Path 24613" d="M180.529,410.084a15.413,15.413,0,0,1,0-5.4,15.414,15.414,0,0,1,0,5.4Z" transform="translate(-163.497 -404.68)"/>
        <path id="Path_24614" data-name="Path 24614" d="M166.217,410.084a13.576,13.576,0,0,1-.239-2.7,13.289,13.289,0,0,1,.239-2.7,13.635,13.635,0,0,1,.239,2.7A13.937,13.937,0,0,1,166.217,410.084Z" transform="translate(-156.016 -404.68)"/>
        <path id="Path_24615" data-name="Path 24615" d="M162.909,410.084a15.413,15.413,0,0,1,0-5.4,15.415,15.415,0,0,1,0,5.4Z" transform="translate(-154.288 -404.68)"/>
        <path id="Path_24616" data-name="Path 24616" d="M156.839,410.084a15.414,15.414,0,0,1,0-5.4,13.289,13.289,0,0,1,.239,2.7,13.574,13.574,0,0,1-.239,2.7Z" transform="translate(-151.115 -404.68)"/>
        <path id="Path_24617" data-name="Path 24617" d="M168.979,410.084a15.414,15.414,0,0,1,0-5.4,15.414,15.414,0,0,1,0,5.4Z" transform="translate(-157.46 -404.68)"/>
        <path id="Path_24618" data-name="Path 24618" d="M192.549,410.084a15.414,15.414,0,0,1,0-5.4,13.289,13.289,0,0,1,.239,2.7A13.575,13.575,0,0,1,192.549,410.084Z" transform="translate(-169.779 -404.68)"/>
        <path id="Path_24619" data-name="Path 24619" d="M175.969,410.084a15.413,15.413,0,0,1,0-5.4,15.414,15.414,0,0,1,0,5.4Z" transform="translate(-161.113 -404.68)"/>
        <path id="Path_24620" data-name="Path 24620" d="M173.587,410.084a13.94,13.94,0,0,1-.239-2.7,13.289,13.289,0,0,1,.239-2.7,13.638,13.638,0,0,1,.239,2.7A13.938,13.938,0,0,1,173.587,410.084Z" transform="translate(-159.868 -404.68)"/>
        <path id="Path_24621" data-name="Path 24621" d="M148.927,410.084a13.575,13.575,0,0,1-.239-2.7,13.292,13.292,0,0,1,.239-2.7,13.638,13.638,0,0,1,.239,2.7A13.94,13.94,0,0,1,148.927,410.084Z" transform="translate(-146.98 -404.68)"/>
        <path id="Path_24622" data-name="Path 24622" d="M145.349,410.084a15.413,15.413,0,0,1,0-5.4,13.289,13.289,0,0,1,.239,2.7A13.575,13.575,0,0,1,145.349,410.084Z" transform="translate(-145.11 -404.68)"/>
        <path id="Path_24623" data-name="Path 24623" d="M154.019,410.084a15.414,15.414,0,0,1,0-5.4,15.413,15.413,0,0,1,0,5.4Z" transform="translate(-149.641 -404.68)"/>
        <path id="Path_24624" data-name="Path 24624" d="M186.739,410.084a15.413,15.413,0,0,1,0-5.4,13.292,13.292,0,0,1,.239,2.7,13.576,13.576,0,0,1-.239,2.7Z" transform="translate(-166.742 -404.68)"/>
      </g>
      <path id="Path_24625" data-name="Path 24625" d="M173.54,403.39v1.432l-30.57.964v-2.4Z" transform="translate(-121.183 -383.121)" opacity="0.1"/>
      <path id="Path_24626" data-name="Path 24626" d="M117.863,382.317c20.125,3.609,14.8,33.415-5.351,29.806S97.7,378.7,117.863,382.317Z" transform="translate(-98.626 -371.949)" fill="#ffc727"/>
      <path id="Path_24627" data-name="Path 24627" d="M117.863,382.317c20.125,3.609,14.8,33.415-5.351,29.806S97.7,378.7,117.863,382.317Z" transform="translate(-98.626 -371.949)" opacity="0.1"/>
      <path id="Path_24628" data-name="Path 24628" d="M114.677,381.636c19.18,3.437,13.843,33.253-5.346,29.806S95.468,378.185,114.677,381.636Z" transform="translate(-97.33 -371.607)" fill="#ffc727"/>
      <path id="Path_24629" data-name="Path 24629" d="M102.59,400.263a11.57,11.57,0,0,0,9.943,11.667c15.944,2.864,20.359-21.882,4.439-24.742l-.31-.048c14.922,2.988,10.645,26.4-4.554,23.677A11.065,11.065,0,0,1,102.59,400.263Z" transform="translate(-100.079 -374.628)" opacity="0.1"/>
      <g id="Group_163410" data-name="Group 163410" transform="translate(7.72 15.641)" opacity="0.1">
        <path id="Path_24630" data-name="Path 24630" d="M122.112,393.707a.511.511,0,0,1,.368.616l-.2.816a6.865,6.865,0,0,1,3.279,2.339.592.592,0,0,1,.172.544.539.539,0,0,1-.659.377.515.515,0,0,1-.334-.234,5.962,5.962,0,0,0-2.735-2.1L120.57,401.8c2.95,1.432,3.967,2.921,3.466,4.926-.539,2.167-2.745,3.246-5.323,2.692l-.4,1.594a.507.507,0,1,1-.983-.243l.406-1.618a7.953,7.953,0,0,1-4.11-3.131.534.534,0,1,1,.854-.635,6.84,6.84,0,0,0,3.523,2.864l1.461-5.814c-2.9-1.432-3.886-2.864-3.375-4.926s2.707-3.194,5.218-2.63l.2-.778a.511.511,0,0,1,.606-.391Zm-2.387,7.638,1.389-5.585c-1.991-.454-3.6.406-3.962,1.876-.348,1.418.091,2.439,2.573,3.733Zm.587,1.47-1.432,5.647c2.057.477,3.68-.387,4.067-1.943.377-1.384-.138-2.425-2.635-3.68Z" transform="translate(-113.501 -393.696)"/>
      </g>
    </g>
    <g id="freepik--Floor--inject-15" transform="translate(47.372 235.265)">
      <path id="Path_24631" data-name="Path 24631" d="M47.44,445.459l24.173-.115,24.173-.043,48.347-.081,48.347.081,24.173.043,24.173.115-24.173.119-24.173.043-48.347.076-48.347-.076-24.173-.043Z" transform="translate(-47.44 -445.22)" fill="#263238"/>
    </g>
    <g id="freepik--Chart--inject-15" transform="translate(152.131 43.992)">
      <rect id="Rectangle_150037" data-name="Rectangle 150037" width="0.477" height="15.423" transform="translate(38.32 2.406)" fill="#263238"/>
      <path id="Path_24632" data-name="Path 24632" d="M346.217,47.175a1.322,1.322,0,1,1,1.318-1.318,1.322,1.322,0,0,1-1.318,1.318Zm0-2.162a.845.845,0,1,0,.84.845A.845.845,0,0,0,346.217,45.012Z" transform="translate(-307.659 -44.53)" fill="#263238"/>
      <rect id="Rectangle_150038" data-name="Rectangle 150038" width="11.982" height="0.539" transform="translate(41.833 0.243)" fill="#263238"/>
      <rect id="Rectangle_150039" data-name="Rectangle 150039" width="6.783" height="0.539" transform="translate(41.833 1.327)" fill="#263238"/>
      <path id="Path_24633" data-name="Path 24633" d="M339.581,89.616h-.1l-.955-.329h-.052l-.535-.186h-.062l-.84-.291-.072-.029-.5-.234H336.4l-.955-.334-.081-.033-.582-.2-.091-.033-.726-.253-.1-.033-.635-.22-.105-.033-.878-.31-.091-.029-.673-.234L331.4,86.8l-.644-.22-.076-.029-.73-.258h-.076l-.635-.22-.062-.024-.917-.368H328.2l-.955-.329h-.052l-.721-.248h-.048l-.955-.329h-.038l-.788-.272h-.033l-.826-.286.783-.253h.033l.907-.291h.043l.773-.248h.048l.988-.32h.057l.664-.21h.062l1.432-.477h.072l.368-.115h.076l1.432-.477.091-.029h0l.31-.1.1-.029,1.461-.477h0l.11-.033.329-.105.105-.033,1.537-.477.115-.038.177-.053.105-.038,1.776-.759.1-.029h0l.158-.048.091-.029L339.733,79l.043.143h0a.154.154,0,0,0,.033.115h0v.033h0a.546.546,0,0,0,.043.143,17.589,17.589,0,0,1,.621,3.666h0v.148h0a15.535,15.535,0,0,1,0,1.7v.329h0A17.9,17.9,0,0,1,339.581,89.616Z" transform="translate(-296.626 -62.545)" fill="#c7c7c7"/>
      <path id="Path_24634" data-name="Path 24634" d="M325.523,84.022l.043.563h-.033l-.043-.539Zm.907-.291-.076,1.127h.038l.081-1.155Zm.864-.277h-.048l.081,1.733h.048Zm.988-.32-.162,2.33h.053l.191-2.387Zm.792-.248h-.062l.086,2.907h.062Zm1.217,1.432-.263,1.828.062.024.239-1.857.243-1.909H330.5Zm.754-2.053h-.076l-.215,4.115h.076Zm.516,4.42.076.029.921-4.936-.091.029Zm1.308-5.012-.587,5.251.086.033.6-5.323Zm1.556-.477-1.384,6.024.091.029,1.408-6.091-.11.033Zm.444-.143-.859,6.506.105.033.859-6.573Zm1.642-.53-1.761,7.289.1.033,1.766-7.394Zm.291-.091-1.236,7.633.091.033L336.9,80.36Zm1.819-.616L336.235,88.3l.081.033,2.387-8.545Zm.253-.081-1.556,8.931h.072l1.575-8.989Zm1.852-.31a.519.519,0,0,0-.033-.115l-2.788,9.547.072.029,2.75-9.471Zm0,.043-1.909,9.724h.062l1.909-9.6c-.048-.024-.057-.072-.076-.119Zm.673,3.962v-.148l-1.986,6.12h.053l1.919-5.943Zm0,1.7-1,4.611h.043l.955-4.3h0a.95.95,0,0,1-.014-.315Z" transform="translate(-297.519 -62.707)" fill="#dbdbdb"/>
      <path id="Path_24635" data-name="Path 24635" d="M338.154,95.063l-1.337-.143L321.05,89.43l1.337.143Z" transform="translate(-295.199 -67.997)" fill="#a6a6a6"/>
      <path id="Path_24636" data-name="Path 24636" d="M322.387,83.965l-1.337-.143L336.97,78.7l1.337.143Z" transform="translate(-295.199 -62.389)" fill="#a6a6a6"/>
      <path id="Path_24637" data-name="Path 24637" d="M305.26,53.77l-.11,17.185,16.12-5.2A16.7,16.7,0,0,0,305.26,53.77Z" transform="translate(-286.889 -49.359)" fill="#37474f"/>
      <path id="Path_24638" data-name="Path 24638" d="M305.772,53.79l-.5.845v-.1l.444-.745Zm.511.024-1.022,2.272v.129l1.079-2.387Zm1.857.22-2.893,4.774v.119l2.969-4.855Zm.4.076-3.313,7.07v.172l3.384-7.227Zm1.58,2.019.9-1.332-.076-.029-.888,1.313L307.4,60l-2.191,3.241v.143l2.263-3.342Zm1.017-1.289L305.2,65.223v.186l6.019-10.54Zm2.019.912L305.194,66.2v.158L313.247,55.8Zm.186.1L305.18,68.33v.2L313.434,55.9Zm1.738,1.107-9.9,11.891v.177l10-12Zm.205.153-9.237,13.562.2-.067L315.4,57.189Zm1.518,1.294L306.5,70.526l.229-.076L316.89,58.516Zm.167.162-8.115,11.189.177-.053,8.024-11.041c-.029-.033-.057-.067-.086-.1Zm1.332,1.494-8.592,9.423.205-.067,8.449-9.275Zm.21.267-6.206,8.316.153-.048,6.1-8.187Zm1.06,1.58-5.886,6.3.172-.057,5.728-6.163a.361.361,0,0,0-.014-.081Zm.158.267-4.249,5.451.129-.043,4.163-5.332Zm.893,1.781-2.936,2.96.143-.048,2.821-2.864Zm.153.368-1.757,2.162.11-.038,1.671-2.057a.371.371,0,0,0-.024-.067Z" transform="translate(-286.905 -49.37)" fill="#263238"/>
      <path id="Path_24639" data-name="Path 24639" d="M287.5,89.75l-16.12,5.2a16.832,16.832,0,0,0,32.169.21Z" transform="translate(-269.239 -68.164)" fill="#ffc727"/>
      <path id="Path_24640" data-name="Path 24640" d="M269.906,100.65H268.56a16.941,16.941,0,0,0,16.006,11.977h1.346A16.941,16.941,0,0,1,269.906,100.65Z" transform="translate(-267.765 -73.861)" fill="#ffc727"/>
      <g id="Group_163411" data-name="Group 163411" transform="translate(0.795 26.789)" opacity="0.1">
        <path id="Path_24641" data-name="Path 24641" d="M269.906,100.65H268.56a16.941,16.941,0,0,0,16.006,11.977h1.346A16.941,16.941,0,0,1,269.906,100.65Z" transform="translate(-268.56 -100.65)"/>
      </g>
      <path id="Path_24642" data-name="Path 24642" d="M272.716,94.955,272.53,96.7h0l.186-1.723Zm1.823-.587-1.351,3.743h0l1.356-3.762Zm.644-.205-.821,5.862h0l.821-5.9Zm1.155-.377-1.709,6.6h0l1.718-6.635Zm.453-.143-.9,8.239a.161.161,0,0,0,.029.029l.9-8.277Zm1.36-.444-2,8.96a.166.166,0,0,0,.029.029l2.01-9Zm.334-.105-.812,10.426.043.033.812-10.473Zm-.568,10.616.043.033,1.881-11.089h-.053Zm2.31-11.18-.148,12.583.062.033.143-12.636Zm.038,12.683.062.033L281.8,92.019h-.072Zm1.847-13.29h-.072l.115,14.125.076.033Zm.191,14.206.076.029,1.174-14.7-.086.029Zm1.5-14.755-.086.029.477,15.3h.1Zm.549,15.371h.1L285.538,90.8l-.105.033Zm2.143.32-.721-16.326-.105.033.716,16.311h.22l.568-16.817-.119.038Zm2.162,0L287.443,90.21l-.119.038,1.236,16.922a.387.387,0,0,0,.105,0h.115l.4-16.8-.11-.033Zm.726-16.631-.11-.033,1.532,16.555h.1Zm1.208.411.31,16.092h.1l-.315-16.049Zm.3.1-.1-.029,2.387,15.471h.076Zm2.215,12.435-.344-4.511-.578-7.485h-.076l.573,7.514.344,4.516.177,2.253.076.678.081-.029-.081-.687Zm-.654-11.905-.081-.029,3.294,13.944a.248.248,0,0,0,.062-.029Zm1.78.6,1.628,13.194.062-.029L294.3,92.086Zm.329.11H294.5l3.074,12.082.043-.033Zm4.005,1.351,1.108,9.07a.1.1,0,0,1,.033-.029L298.6,93.552Zm.387.134h-.033l2.334,7.2h.024Zm-2.63-.893,1.542,11.285.048-.029-1.547-11.237Zm1.508,4.186-1.041-3.666-.115-.4h-.043l.119.425,1.041,3.671,1.69,5.8h.029Zm2.205-2.931,1.418,6.588v-.024l-1.394-6.564Zm.339.115h-.024l2,5.17h0Zm1.045.348,1.117,4.473h0l-1.117-4.449Zm.573.2h0l1.432,2.592h0Zm1.05.353.606,1.666h0l-.606-1.652Zm.955.329h0a1.179,1.179,0,0,1,.091.124h0Z" transform="translate(-269.84 -68.404)" opacity="0.1"/>
      <path id="Path_24643" data-name="Path 24643" d="M286.74,53.77a17.044,17.044,0,0,0-17.023,17.066,16.431,16.431,0,0,0,.792,5.313l16.12-5.2Z" transform="translate(-268.369 -49.359)" fill="#455a64"/>
      <path id="Path_24644" data-name="Path 24644" d="M286.647,67.4v.129l-14.889-4.75.057-.11Zm-14.984-4.43,14.975,6.42v-.119l-14.922-6.411A.72.72,0,0,0,271.662,62.971Zm1.38-2.229c-.024.033-.052.067-.072.1l13.691,4.8v-.115Zm-.205.286,13.815,6.086v-.138l-13.743-6.053c-.024.029-.048.067-.072.1Zm3.494-3.68-.072.057,10.426,4.081V61.41Zm-.368.3,10.712,5.327v-.1l-10.621-5.3Zm-1.341,1.251c-.029.024-.053.053-.076.076l12.149,4.444v-.1Zm-.329.344L286.7,65.219V65.1l-12.359-5.948Zm7.16-4.611h-.062l5.361,2.649v-.033Zm-.754.263,6.043,3.7v-.062l-6.02-3.676Zm-2.186,1.026-.072.038,8.3,3.442v-.067Zm-.535.315,8.75,4.688v-.076l-8.683-4.654Zm6.344-2.277h-.053l2.5,1.327v-.029Zm-1.127.205,3.561,2.439V56.55l-3.513-2.387a.181.181,0,0,0-.086,0Zm2.783-.348h-.043l.835.616v-.048Zm-16.2,18.736,6.755,1.685.081-.029-6.841-1.685a.178.178,0,0,0,0,.029Zm-.029-.358v.053l9.137,1.232.129-.038Zm.372,2.563,2.625.7h.062l-2.7-.711S270.116,74.737,270.121,74.752Zm-.043-.2a.09.09,0,0,0,0,.038l4.01.42.1-.029Zm-.348-4.32,10.535,2.788L280.35,73l-10.64-2.821Zm0-.286v.072l13.552,2.024.162-.053Zm2.983-1.795-2.253-.706-.382-.119a.405.405,0,0,0,0,.081l.372.115,2.263.7,4.506,1.432,6.831,2.153.124-.043-6.931-2.186ZM270.1,67.2v.081l16.187,3.809.167-.057Zm.621-2.143L286.451,71l.143-.043-15.82-6a.764.764,0,0,0-.033.1Zm.091-.239a.568.568,0,0,0-.038.1l15.858,4.745v-.115Z" transform="translate(-268.366 -49.38)" fill="#37474f"/>
      <path id="Path_24645" data-name="Path 24645" d="M285.266,53.77H283.92A17.026,17.026,0,0,0,266.9,70.826a16.411,16.411,0,0,0,.792,5.313h1.346a16.431,16.431,0,0,1-.792-5.313A17.042,17.042,0,0,1,285.266,53.77Z" transform="translate(-266.895 -49.359)" fill="#37474f"/>
    </g>
    <g id="freepik--magnifying-glass--inject-15" transform="translate(166.563 45.894)">
      <rect id="Rectangle_150040" data-name="Rectangle 150040" width="4.85" height="19.08" transform="translate(51.227 50.747) rotate(138)" fill="#c7c7c7"/>
      <path id="Path_24646" data-name="Path 24646" d="M403.323,167.266l5.451-4.907h0L395.547,147.67h0l-5.447,4.907h0Z" transform="translate(-345.719 -100.338)" fill="#263238"/>
      <path id="Path_24647" data-name="Path 24647" d="M339.851,65.036a18.937,18.937,0,1,1-12.049-8.01,18.937,18.937,0,0,1,12.049,8.01Z" transform="translate(-301.346 -52.776)" fill="#fff"/>
      <path id="Path_24648" data-name="Path 24648" d="M316.408,93.736a22.1,22.1,0,1,1,25.959-17.4A22.1,22.1,0,0,1,316.408,93.736Zm.477-2.482a16.664,16.664,0,1,1,.033,0Z" transform="translate(-297.885 -49.263)" fill="#37474f"/>
      <path id="Path_24649" data-name="Path 24649" d="M339.552,66.481a20.221,20.221,0,1,0-11.468,23.325,20.211,20.211,0,0,0,11.468-23.325Zm-1.093,8.487a7.385,7.385,0,1,1,.019,0Zm1.093-8.487a20.221,20.221,0,1,0-11.468,23.325,20.211,20.211,0,0,0,11.468-23.325Zm-1.093,8.487a7.385,7.385,0,1,1,.019,0Zm3.556-9.094a4.919,4.919,0,1,0,.019,0Zm-1.031,9.6a21.448,21.448,0,1,1-.215-9.261,21.448,21.448,0,0,1,.215,9.261Zm-4.244-15.4a20.216,20.216,0,1,0-5.533,28.05,20.216,20.216,0,0,0,5.533-28.05ZM338.5,74.992a15.768,15.768,0,1,0-.019-.024Z" transform="translate(-297.127 -48.516)" fill="#37474f"/>
      <path id="Path_24650" data-name="Path 24650" d="M359.357,59.411V70.176h-.477V59.23C359.057,59.287,359.2,59.349,359.357,59.411Z" transform="translate(-329.402 -54.115)" fill="#263238"/>
      <g id="Group_163412" data-name="Group 163412" transform="translate(3.85 3.847)" opacity="0.3">
        <path id="Path_24651" data-name="Path 24651" d="M320.481,94.068A18.923,18.923,0,1,1,334.668,91.2,18.923,18.923,0,0,1,320.481,94.068Z" transform="translate(-305.192 -56.574)" fill="#fff"/>
      </g>
      <path id="Path_24652" data-name="Path 24652" d="M314.307,89.56a14.531,14.531,0,0,1-2.062-5.647,15.782,15.782,0,0,1-.162-3.079,16.2,16.2,0,0,1,.477-3.089,15.127,15.127,0,0,1,2.8-5.576,16.764,16.764,0,0,1,4.654-4.019,30.214,30.214,0,0,0-3.819,4.6,18.369,18.369,0,0,0-1.4,2.568,15.033,15.033,0,0,0-.955,2.726,18.679,18.679,0,0,0-.549,5.728A24.531,24.531,0,0,0,314.307,89.56Z" transform="translate(-304.935 -58.777)" fill="#fff"/>
      <path id="Path_24653" data-name="Path 24653" d="M350.558,90.671h-.105l-1.026-.358h-.062l-.582-.205-.072-.024-.926-.325-.076-.029-.568-.2-.081-.029h0l-1.069-.372L345.9,89.1l-.64-.22-.1-.033-.8-.282-.11-.033-.7-.248-.115-.038-.955-.334-.1-.038-.74-.258-.1-.033-.706-.243-.086-.029-.807-.282L339.865,87l-.7-.243H339.1l-.983-.344h-.072l-1.036-.363h-.057l-.792-.277H336.1l-1.026-.358h-.043l-.869-.3h-.038l-.907-.315.864-.277h.038l1-.32h.043l.854-.277h.048l1.093-.348h.057l.73-.234h.067l1.609-.516.076-.029.4-.129.086-.024,1.556-.783.1-.029h0l.348-.11.1-.033,1.613-.516h0l.119-.033.363-.119.119-.038,1.69-.554.124-.038.2-.062.119-.038,1.862-.6.11-.033h0l.172-.053.1-.029L350.725,79a.66.66,0,0,0,.048.158h0a1.323,1.323,0,0,1,.038.129h0v.038h0l.043.153a19.268,19.268,0,0,1,.683,4.038h0v.162h0a16.386,16.386,0,0,1,0,1.876,1.879,1.879,0,0,1-.024.363h0a19.909,19.909,0,0,1-.955,4.754Z" transform="translate(-315.991 -64.448)" fill="#c7c7c7"/>
      <path id="Path_24654" data-name="Path 24654" d="M351.393,90.8h.052l1.026-4.721h0a1.855,1.855,0,0,1,.024-.363Zm1.1-7.108-2.205,6.726.062.024,2.134-6.588h0A.474.474,0,0,0,352.491,83.693Zm-.726-4.2-2.115,10.7.072.024,2.091-10.573C351.8,79.6,351.78,79.549,351.766,79.492Zm-.052-.172-3.06,10.5h.072L351.751,79.4q-.015-.041-.033-.081Zm-2,.477L348,89.626h.072l1.738-9.872Zm-.282.091-2.592,9.3.091.033,2.611-9.4Zm-1.909.611-.086.029L346.1,88.953l.1.038,1.37-8.516Zm-.406.129-1.938,8.024.11.038,1.952-8.115Zm-1.809.582-.955,7.16.11.038.955-7.227Zm-.42.134h-.057L343.3,87.97l.1.038h0l1.547-6.683Zm-1.761.563-.649,5.786h0l.1.029.649-5.848Zm-.439.143-.993,5.366h0l.081.029,1-5.413Zm-1.59.511h-.062l-.234,4.53h.086l.234-4.578Zm-.544.177-.258,2.072-.258,2.034h.067l.263-2.043.267-2.11Zm-1.6.516h-.072l.1,3.2h.072Zm-.811.258h-.048l-.22,2.583h.057l.21-2.606Zm-1.136.368h-.053l.086,1.909h.052Zm-.955.306-.081,1.241h.043l.086-1.27Zm-.993.32h-.038l.048.592h.033Z" transform="translate(-316.932 -64.615)" fill="#dbdbdb"/>
      <path id="Path_24655" data-name="Path 24655" d="M348.938,96.656l-1.47-.158L330.12,90.46l1.47.158Z" transform="translate(-314.371 -70.438)" fill="#a6a6a6"/>
      <path id="Path_24656" data-name="Path 24656" d="M331.59,84.445l-1.47-.158,17.514-5.638,1.47.158Z" transform="translate(-314.371 -64.265)" fill="#a6a6a6"/>
      <path id="Path_24657" data-name="Path 24657" d="M330.4,67.939l-2.387.764-.115.038-1.308.425-.158.048-2.272.721h0l-.138.043h0l-1.766.568-.181.057h0l-1.36.434-.172.053-2.63.85-.224.076-.74.239-.2.057h0l-2.349.759-.243.081h0l-.282.1-.22.067-.955.315V65.213h0c.22-.31.453-.616.7-.912h0a18.937,18.937,0,0,1,2.487-2.482,2.517,2.517,0,0,1,.21-.172,18.7,18.7,0,0,1,3.523-2.277l.229-.119c.181-.091.372-.177.554-.253l.2-.091A18.3,18.3,0,0,1,323.188,58l.387.272a.612.612,0,0,1,.105.081l.119.086.11.086a17.45,17.45,0,0,1,1.561,1.337l.043.048a.248.248,0,0,1,.048.053.54.54,0,0,1,.091.091h.048l.043.053a16.933,16.933,0,0,1,1.375,1.542.316.316,0,0,1,.067.1,2.287,2.287,0,0,1,.162.2,1.1,1.1,0,0,1,.067.091,17.063,17.063,0,0,1,1.1,1.695.476.476,0,0,1,.048.081c.048.072.086.148.124.22l.029.038v.038a18.142,18.142,0,0,1,.931,1.881.315.315,0,0,1,.033.072c.048.11.1.224.138.334l.029.067A12.123,12.123,0,0,1,330.4,67.939Z" transform="translate(-305.266 -53.473)" fill="#37474f"/>
      <path id="Path_24658" data-name="Path 24658" d="M329.816,66.656h0l-1.909,2.387.115-.038,1.843-2.263Zm-.167-.406h0L326.427,69.5l.158-.048,3.1-3.127h0Zm-.955-1.909-.024-.043h0L324,70.283h0l.143-.048h0l4.573-5.862h0Zm-.2-.339-6.449,6.912h0l.181-.062,6.315-6.778a.477.477,0,0,0-.048-.057Zm-1.17-1.738-6.812,9.141.172-.053,6.683-9q-.019-.046-.043-.091Zm-.229-.3-9.437,10.363h0l.224-.076h0l9.261-10.2h0a.664.664,0,0,0-.048-.1Zm-1.432-1.594h-.024l-8.922,12.235h0l.2-.062,8.793-12.125h0Zm-.186-.181-.043-.048L314.106,73.472h0l.239-.076h0l11.17-13.151h0ZM323.8,58.717l-10.2,14.917.22-.067L323.887,58.8h0Zm-.224-.167-10.917,13.1v.2l10.979-13.2a.612.612,0,0,0-.086-.1Zm-3.174.716-7.738,11.8v.224l7.91-12.111Zm-.783.372-6.917,9.07v.172l7.16-9.366Zm-3.757,2.468-3.174,5.537v.191l3.389-5.934a2.52,2.52,0,0,0-.215.205Zm-3.16,3.408v.119l.7-1.031a10.863,10.863,0,0,0-.7.893Z" transform="translate(-305.245 -53.76)" fill="#263238"/>
      <path id="Path_24659" data-name="Path 24659" d="M326.59,96.585a.363.363,0,0,1-.029.1h0c-.143.477-.31.888-.477,1.322h0c-.086.205-.172.411-.263.611h0a18.5,18.5,0,0,1-.955,1.838h0c-.072.124-.143.248-.22.368h0c-.3.477-.621.955-.955,1.432h0c-.057.081-.115.158-.177.229v.029a18.138,18.138,0,0,1-1.7,1.876h0l-.038.029-.205.191h0a.152.152,0,0,1-.038.029,16.642,16.642,0,0,1-1.695,1.36h-.053c-.086.067-.177.129-.267.191l-.052.033a16.362,16.362,0,0,1-1.819,1.069.292.292,0,0,1-.067.033.91.91,0,0,1-.153.076h-.033a19.541,19.541,0,0,1-2.578,1.05l-.091.029h-.086c-.263.081-.53.162-.788.229a16.867,16.867,0,0,1-1.623-1.232l-.105-.091a1.546,1.546,0,0,1-.134-.115l-.119-.105a18.435,18.435,0,0,1-1.962-2.038l-.124-.153-.449-.573c-.048-.072-.1-.134-.143-.2-.148-.2-.3-.406-.43-.616a19.432,19.432,0,0,1-1.084-1.819h0c-.038-.076-.081-.153-.119-.239a14.4,14.4,0,0,1-.659-1.47c-.052-.115-.1-.229-.138-.348a18.494,18.494,0,0,1-.878-3.112c-.029-.153-.053-.3-.076-.449a18.618,18.618,0,0,1-.186-4.583l.573-.186h.043l.119-.038h.038l.115-.033,1.4-.477.138-.043.158-.053.129-.038.353-.115.186-.062h0l.158-.048h0l1.184.4.119.043.119.043,1.327.449.105.033.119.033.105.038,1.341.477.081.029.205.067.091.029,1.976.673.072.024.224.072h.067l1.938.649h.048l.291.1h.048l1.976.917h.038l.353.119h.033l1.212.411h0l.32.11h.029l1.146.387h0l.6.2h0l1.146.387h0l1.065.358Z" transform="translate(-301.533 -70.443)" fill="#ffc727"/>
      <path id="Path_24660" data-name="Path 24660" d="M326.6,97h0a.786.786,0,0,1,.1.138h0A1.611,1.611,0,0,0,326.6,97Zm-1.065-.358h0l.673,1.833h0Zm-1.155-.391h0l1.571,2.864h0Zm-.621-.21h0L325,100.944Zm-1.165-.391h-.029l2.177,5.695h0Zm-.348-.119h-.024l1.537,7.246h0ZM319.8,98.743l-1.146-4.034-.124-.439h-.048l.129.477,1.15,4.034,1.824,6.4a.046.046,0,0,0,.038-.029h0Zm-1.613-4.587h-.048l1.695,12.411h.053Zm2.864.955h-.033l2.568,7.924v-.029Zm-.387-.134h-.038l1.217,9.962.038-.029h0Zm-4.444-1.494h-.067l3.38,13.314.053-.033Zm-.291-.1-.072-.024,1.79,14.512a.292.292,0,0,0,.067-.033Zm-2.048-.7-.091-.029,3.637,15.323h.033Zm.955,16.35-.062-.759-.191-2.487-.382-4.965-.635-8.225-.081-.029.625,8.268.377,4.965.2,2.487.057.783h0ZM312.14,92.127l-.105-.038,2.606,17.027h.086Zm-.224-.072-.105-.033.315,16,.105.091Zm-1.432-.477-.119-.043,1.508,16.273.119.105Zm-2.143-.248-.129.038.983,13.476c.048.067.1.129.143.2Zm1.785.129-.339,14.158.124.153.334-14.278Zm-3.9.549H306.2l-.067.029-.32,4.74c.024.148.048.3.076.449l.353-5.251h0Zm.282-.086-.115.033.368,8.392c.043.119.086.234.138.348Zm1.4-.477-.353,10.707c.038.086.081.162.119.239l.372-10.979Zm-1.685.544H306.2l-.067.029-.32,4.74c.024.148.048.3.076.449l.353-5.251h0Zm0,0H306.2l-.067.029-.32,4.74c.024.148.048.3.076.449l.353-5.251h0Z" transform="translate(-301.665 -70.892)" opacity="0.1"/>
      <path id="Path_24661" data-name="Path 24661" d="M308.963,73.139v8.4h0l-.158.048h0l-.186.062-.353.115-.129.038-.158.053-.138.043-1.556.477-.119.038h-.043l-.573.186a1.4,1.4,0,0,1,.033-.372.581.581,0,0,1,0-.081c.038-.406.091-.8.162-1.208v-.1c.024-.138.048-.272.076-.411h0a.177.177,0,0,1,.024-.105c.076-.382.162-.759.267-1.131a.546.546,0,0,1,.029-.119c.043-.158.091-.315.138-.477a.165.165,0,0,1,.033-.115c.153-.477.325-.983.52-1.461a.481.481,0,0,1,.043-.124c.072-.162.138-.325.21-.477a.757.757,0,0,1,.057-.129c.172-.377.348-.749.549-1.112a.477.477,0,0,1,.057-.11c.067-.134.143-.267.215-.4a.656.656,0,0,1,.062-.1c.277-.477.582-.955.907-1.432Z" transform="translate(-301.529 -61.37)" fill="#455a64"/>
      <path id="Path_24662" data-name="Path 24662" d="M306.091,79.166a.542.542,0,0,0-.029.119l2.864.85v-.129Zm-.3,1.251a.163.163,0,0,1-.024.105l2.964,1.122.158-.048Zm-.1.525v.1l2.864.673.186-.062Zm-.177,1.3a.59.59,0,0,0,0,.081l.559.181h0l.119-.043Zm2.458-7.576a.657.657,0,0,0-.062.1l1.036.477v-.129Zm.955-1.5a.475.475,0,0,0-.062.081l.081.029v-.105Zm-1.852,3.213a.762.762,0,0,0-.057.129l1.909.84V77.2Zm.606-1.222a.478.478,0,0,0-.057.11l1.3.477v-.129Zm-1.432,3.418a.4.4,0,0,1-.033.115l2.688,1.16h0v-.134Zm.563-1.585c0,.043-.033.086-.043.124l2.148.692h0v-.143Z" transform="translate(-301.512 -61.401)" fill="#37474f"/>
    </g>
  </g>
</svg>
