<svg xmlns="http://www.w3.org/2000/svg" width="191.466" height="57.562" viewBox="0 0 191.466 57.562">
  <g id="Group_163211" data-name="Group 163211" transform="translate(2028 9395)">
    <path id="path0" d="M52.681,62.131V86.584H74.194V66.965L63.77,52.661C58.036,44.8,53.2,38.2,53.013,38.018c-.2-.209-.332,9.095-.332,24.113M77.78,69.5v17.08H99.651V82.326L89.383,68.23c-5.647-7.752-10.568-14.48-10.936-14.95-.654-.838-.668-.5-.668,16.224" transform="translate(-2080.681 -9433.015)" fill="#c7f861" fill-rule="evenodd"/>
    <path id="path0-2" data-name="path0" d="M436.1,119.923a3.09,3.09,0,0,0,2.454,5.215,3.652,3.652,0,0,0,3.119-3.216,2.988,2.988,0,0,0-3.227-2.88,2.9,2.9,0,0,0-2.346.881m-73.858.9c-5.147,1.68-7.933,6.42-6.6,11.225.855,3.081,3.68,4.979,10.034,6.743,6.613,1.834,8.178,2.963,7.752,5.586-.908,5.6-13.134,5.293-13.146-.327,0-.545-.378-.628-2.869-.628h-2.869l0,1.165c.029,9.727,19.626,12.484,23.875,3.359a8.8,8.8,0,0,0-4.678-12.082,100.532,100.532,0,0,0-9.692-2.839c-2.157,0-3.454-4.455-1.813-6.226,2.878-3.106,10.95-1.653,10.95,1.972,0,.6.309.668,2.914.668h2.914l-.235-1.472c-.968-6.053-9.11-9.569-16.542-7.143m27.442,8c-2.879.821-5.487,3.123-6.237,5.507-.431,1.371,4.731,1.771,5.623.437,2.337-3.5,8.5-2.441,8.5,1.457,0,1.7-.588,1.981-5.3,2.525-8.119.938-11.62,4.905-9.277,10.513,2,4.8,10.724,5.76,14.041,1.553l.884-1.122,0,1.7,0,1.7h5.411l-.106-9.8-.106-9.8-.987-1.491c-1.977-2.986-7.877-4.5-12.458-3.191m28.8-.07a8.273,8.273,0,0,0-2.779,2.158l-1.645,1.83v-4.022h-5.744l.093,16.762.093,16.762,2.779.105,2.779.1v-13.4l1.441,1.637c5.414,6.151,14.453,2.01,15.763-7.221,1.4-9.862-4.819-17.023-12.78-14.718m35.017-.058c-10.618,3.242-11.134,20.794-.71,24.16,5.371,1.734,12.011-.205,13.992-4.088,1.026-2.012.791-2.34-1.846-2.579-2.243-.2-2.257-.2-3.592,1.177-3.585,3.695-10.354,1.006-10.354-4.114v-.908h16.941l-.165-2.958c-.438-7.872-7.114-12.874-14.267-10.69m28.373.124A8.96,8.96,0,0,0,478,132.133c-.365.61-.43.414-.448-1.347l-.021-2.061H472.15V153.1h5.378l.015-7.081c.022-10.058.73-12.144,4.348-12.818,4.7-.876,5.676,1.109,5.676,11.527V153.1H493.3l0-9.232c0-8.971-.028-9.285-.858-11.068-1.724-3.7-6.184-5.381-10.565-3.981m-46.3,12.09V153.1h5.737V128.724h-5.737v12.19m24.359-7.236a6.007,6.007,0,0,1,2.393,3.562l.228,1.165H450.918l.246-.986c.994-3.98,5.726-6,8.773-3.741m-37.262.155c4.16,2.826,3.786,12.353-.565,14.418-5.064,2.4-9.451-3.524-7.715-10.42,1.066-4.234,5.081-6.172,8.28-4m-24.845,10c-.307,3.379-2.309,5.4-5.407,5.466-5.785.118-6.114-5.476-.385-6.563,1.171-.222,2.773-.543,3.562-.714,2.54-.548,2.45-.621,2.23,1.81" transform="translate(-2329.839 -9499.896)" fill="#13294b" fill-rule="evenodd"/>
  </g>
</svg>
