<svg xmlns="http://www.w3.org/2000/svg" width="235.12" height="200.833" viewBox="0 0 235.12 200.833">
  <g id="Ordinary_day-amico" data-name="Ordinary day-amico" transform="translate(-13.45 -60.473)">
    <g id="freepik--House--inject-35" transform="translate(13.45 62.847)">
      <path id="freepik--Grass--inject-35" d="M54.07,240.051l93.235,53.83L248.648,235.37l-93.235-53.83Z" transform="translate(-33.801 -123.503)" fill="#13294b"/>
      <g id="freepik--Plants--inject-35" transform="translate(41.785 83.313)">
        <path id="Path_24023" data-name="Path 24023" d="M111.254,244.977a20.718,20.718,0,0,0-1.417-5.953c-1.252-3.064-3.653-6.147-6.407-6.721s-3.912,1.277-3.328,3.1c.5,1.562,2.555,2.859,4.112,4.221s4.491,4.655,5.284,7.844l1.552.165Z" transform="translate(-98.575 -232.197)" fill="#13294b"/>
        <g id="Group_163397" data-name="Group 163397" transform="translate(1.379)" opacity="0.35">
          <path id="Path_24024" data-name="Path 24024" d="M111.254,244.977a20.718,20.718,0,0,0-1.417-5.953c-1.252-3.064-3.653-6.147-6.407-6.721s-3.912,1.277-3.328,3.1c.5,1.562,2.555,2.859,4.112,4.221s4.491,4.655,5.284,7.844l1.552.165Z" transform="translate(-99.954 -232.197)"/>
        </g>
        <path id="Path_24025" data-name="Path 24025" d="M111.931,247.618a.17.17,0,0,1-.17-.165c-.314-8.024-8.178-12.475-8.258-12.529a.174.174,0,0,1,.17-.3c.08.045,8.113,4.606,8.433,12.819a.17.17,0,0,1-.165.18Z" transform="translate(-100.31 -233.401)" fill="#fff"/>
        <path id="Path_24026" data-name="Path 24026" d="M109.166,265.953v.04a1.327,1.327,0,0,1-.868.424,3.518,3.518,0,0,1-2.435-.629,6.647,6.647,0,0,1-1.746-1.871,5.488,5.488,0,0,0-.729-1c-.609-.594-1.6-.574-2.39-.743a2.994,2.994,0,0,1-2.26-1.951,2.536,2.536,0,0,1,.748-2.874l-.8-.5a5.143,5.143,0,0,1-1-.778,1.736,1.736,0,0,1-.5-1.143,1.692,1.692,0,0,1,.978-1.452,3.563,3.563,0,0,1,1.861-.195,8.547,8.547,0,0,1,1.861.434,1.332,1.332,0,0,0,.5.115,1.367,1.367,0,0,0,.634-.294c1.357-.9,3.573-.843,4.311.848.1.25.17.5.284.763.429.908,1.617.634,2.385,1.058a1.936,1.936,0,0,1,.9,1.387,8.483,8.483,0,0,1-.254,2.824c-.16.868-.374,1.721-.614,2.57-.195.7-.409,1.387-.639,2.076A4.326,4.326,0,0,1,109.166,265.953Z" transform="translate(-97.19 -242.599)" fill="#13294b"/>
        <g id="Group_163398" data-name="Group 163398" transform="translate(0 10.36)" opacity="0.2">
          <path id="Path_24027" data-name="Path 24027" d="M109.166,265.953v.04a1.327,1.327,0,0,1-.868.424,3.518,3.518,0,0,1-2.435-.629,6.647,6.647,0,0,1-1.746-1.871,5.488,5.488,0,0,0-.729-1c-.609-.594-1.6-.574-2.39-.743a2.994,2.994,0,0,1-2.26-1.951,2.536,2.536,0,0,1,.748-2.874l-.8-.5a5.143,5.143,0,0,1-1-.778,1.736,1.736,0,0,1-.5-1.143,1.692,1.692,0,0,1,.978-1.452,3.563,3.563,0,0,1,1.861-.195,8.547,8.547,0,0,1,1.861.434,1.332,1.332,0,0,0,.5.115,1.367,1.367,0,0,0,.634-.294c1.357-.9,3.573-.843,4.311.848.1.25.17.5.284.763.429.908,1.617.634,2.385,1.058a1.936,1.936,0,0,1,.9,1.387,8.483,8.483,0,0,1-.254,2.824c-.16.868-.374,1.721-.614,2.57-.195.7-.409,1.387-.639,2.076A4.326,4.326,0,0,1,109.166,265.953Z" transform="translate(-97.19 -252.959)"/>
        </g>
        <path id="Path_24028" data-name="Path 24028" d="M111.382,264.86a12.475,12.475,0,0,0-3.263-4.885.145.145,0,0,0-.075-.07,16.966,16.966,0,0,0-1.322-1.113,6.681,6.681,0,0,1,.439-3.543.14.14,0,0,0-.07-.185.135.135,0,0,0-.185.065,6.926,6.926,0,0,0-.5,3.428,21.546,21.546,0,0,0-6.132-3.034.145.145,0,0,0-.17.1.14.14,0,0,0,.095.17,20.887,20.887,0,0,1,7.28,3.992,9.553,9.553,0,0,0-4.491.674.145.145,0,0,0-.075.185.14.14,0,0,0,.13.085h.055c.025,0,2.824-1.153,4.81-.544a12.225,12.225,0,0,1,3.213,4.8.14.14,0,0,0,.135.095.075.075,0,0,0,.045,0,.14.14,0,0,0,.08-.215Z" transform="translate(-98.648 -243.647)" fill="#fff"/>
      </g>
      <g id="freepik--house--inject-35-2" data-name="freepik--house--inject-35" transform="translate(44.838)">
        <path id="Path_24029" data-name="Path 24029" d="M233.76,89.86l12.5,7.225v14.441l-12.5-7.22Z" transform="translate(-168.668 -77.57)" fill="#e0e0e0"/>
        <path id="Path_24030" data-name="Path 24030" d="M258.82,97.085l12.509-7.225v28.886l-12.509-7.22Z" transform="translate(-181.223 -77.57)" fill="#f0f0f0"/>
        <path id="Path_24031" data-name="Path 24031" d="M244.957,65.23,231.15,73.184V76.8l13.807,7.949L258.769,76.8V73.184Z" transform="translate(-167.36 -65.23)" fill="#455a64"/>
        <path id="Path_24032" data-name="Path 24032" d="M231.15,84.783l13.807,7.949V89.119L231.15,81.17Z" transform="translate(-167.36 -73.216)" fill="#37474f"/>
        <path id="Path_24033" data-name="Path 24033" d="M272.632,84.783,258.82,92.731V89.119l13.812-7.949Z" transform="translate(-181.223 -73.216)" fill="#263238"/>
        <path id="Path_24034" data-name="Path 24034" d="M240.43,75.864l9.176-5.284,9.181,5.284-9.176,5.284Z" transform="translate(-172.01 -67.91)" fill="#13294b"/>
        <path id="Path_24035" data-name="Path 24035" d="M249.606,70.58l0,10.568-9.181-5.284Z" transform="translate(-172.01 -67.91)" fill="#37474f"/>
        <path id="Path_24036" data-name="Path 24036" d="M258.82,70.58,268,75.864l-9.176,5.284Z" transform="translate(-181.223 -67.91)" fill="#263238"/>
        <path id="Path_24037" data-name="Path 24037" d="M119.06,230.063V180.29l60.806,35.1v49.773Z" transform="translate(-111.201 -122.877)" fill="#f0f0f0"/>
        <path id="Path_24038" data-name="Path 24038" d="M119.06,180.29l60.806,35.1v19.825L119.06,200.144Z" transform="translate(-111.201 -122.877)" fill="#e0e0e0"/>
        <path id="Path_24039" data-name="Path 24039" d="M298.443,217.23V167.481L269.656,150.89,240.92,200.663v49.773Z" transform="translate(-172.255 -108.147)" fill="#fafafa"/>
        <path id="Path_24040" data-name="Path 24040" d="M226.62,203.41l33.472-58.071V139.81L221.83,206.175Z" transform="translate(-162.691 -102.596)" fill="#37474f"/>
        <path id="Path_24041" data-name="Path 24041" d="M141.577,71.31l59.134,34.18-38.262,66.365-59.139-34.18Z" transform="translate(-103.31 -68.276)" fill="#455a64"/>
        <path id="Path_24042" data-name="Path 24042" d="M298.51,145.339l33.576,19.36,4.79-2.769L298.51,139.81Z" transform="translate(-201.109 -102.596)" fill="#263238"/>
        <path id="Path_24043" data-name="Path 24043" d="M322.57,232.4l11.257-6.457v16.591l-11.257,6.457Z" transform="translate(-213.163 -145.749)" fill="#455a64"/>
        <path id="Path_24044" data-name="Path 24044" d="M332.869,242.538V227.06l-10.3,5.9v15.483Z" transform="translate(-213.163 -146.31)" fill="#e0e0e0"/>
        <path id="Path_24045" data-name="Path 24045" d="M333.827,258.634l-.958-.554-10.3,5.9v1.108Z" transform="translate(-213.163 -161.851)" fill="#37474f"/>
        <path id="Path_24046" data-name="Path 24046" d="M322.57,247.91l11.257-6.457V240.34l-11.257,6.452Z" transform="translate(-213.163 -152.963)" fill="#455a64"/>
        <path id="Path_24047" data-name="Path 24047" d="M251.19,273.557l11.257-6.457v16.591l-11.257,6.457Z" transform="translate(-177.401 -166.371)" fill="#455a64"/>
        <path id="Path_24048" data-name="Path 24048" d="M261.484,283.693V268.21l-10.294,5.9v15.478Z" transform="translate(-177.401 -166.927)" fill="#e0e0e0"/>
        <path id="Path_24049" data-name="Path 24049" d="M262.447,299.794l-.963-.554-10.294,5.9v1.113Z" transform="translate(-177.401 -182.473)" fill="#37474f"/>
        <path id="Path_24050" data-name="Path 24050" d="M251.19,289.06l11.257-6.452V281.49l-11.257,6.457Z" transform="translate(-177.401 -173.58)" fill="#455a64"/>
        <path id="Path_24051" data-name="Path 24051" d="M284.11,192.438l14.371-8.3v12.445l-14.371,8.3Z" transform="translate(-193.894 -124.806)" fill="#455a64"/>
        <path id="Path_24052" data-name="Path 24052" d="M297.523,196.587V185.25l-13.413,7.744v11.332Z" transform="translate(-193.894 -125.362)" fill="#e0e0e0"/>
        <path id="Path_24053" data-name="Path 24053" d="M298.481,208.524l-.958-.554-13.413,7.739v1.113Z" transform="translate(-193.894 -136.745)" fill="#37474f"/>
        <path id="Path_24054" data-name="Path 24054" d="M360.99,186.914H356.2l0-2.764Z" transform="translate(-230.013 -124.811)"/>
        <path id="Path_24055" data-name="Path 24055" d="M281.54,278.682v-38.7l16.217-9.361v38.7Z" transform="translate(-192.607 -148.093)" fill="#37474f"/>
        <path id="Path_24056" data-name="Path 24056" d="M297.193,269.218V231.27l-15.653,9.037v37.948Z" transform="translate(-192.607 -148.419)" fill="#455a64"/>
        <path id="Path_24057" data-name="Path 24057" d="M313.474,230.62l-.564.324v37.948l.564.429Z" transform="translate(-208.323 -148.093)" fill="#263238"/>
        <path id="Path_24058" data-name="Path 24058" d="M202.962,264.357,191.73,257.87v16.556l11.237,6.487Z" transform="translate(-147.61 -161.746)" fill="#455a64"/>
        <path id="Path_24059" data-name="Path 24059" d="M193.65,274.428V258.98l10.274,5.933,0,15.448Z" transform="translate(-148.572 -162.302)" fill="#fafafa"/>
        <path id="Path_24060" data-name="Path 24060" d="M191.73,290.494l.958-.554,10.279,5.933v1.108Z" transform="translate(-147.61 -177.814)" fill="#37474f"/>
        <path id="Path_24061" data-name="Path 24061" d="M202.962,279.765l-11.232-6.442V272.21l11.232,6.442Z" transform="translate(-147.61 -168.931)" fill="#455a64"/>
        <path id="Path_24062" data-name="Path 24062" d="M193.65,258.98l10.274,5.933v2.051l-10.274-5.893Z" transform="translate(-148.572 -162.302)" fill="#f5f5f5"/>
        <path id="Path_24063" data-name="Path 24063" d="M148.852,233.072,137.62,226.63v16.556l11.232,6.442Z" transform="translate(-120.5 -146.094)" fill="#455a64"/>
        <path id="Path_24064" data-name="Path 24064" d="M139.54,243.188V227.74l10.274,5.888v15.448Z" transform="translate(-121.462 -146.651)" fill="#fafafa"/>
        <path id="Path_24065" data-name="Path 24065" d="M139.54,227.74l10.274,5.933v2.051l-10.274-5.893Z" transform="translate(-121.462 -146.651)" fill="#f5f5f5"/>
        <path id="Path_24066" data-name="Path 24066" d="M137.62,259.254l.958-.554,10.274,5.888V265.7Z" transform="translate(-120.5 -162.162)" fill="#37474f"/>
        <path id="Path_24067" data-name="Path 24067" d="M148.852,248.545,137.62,242.1V240.99l11.232,6.442Z" transform="translate(-120.5 -153.289)" fill="#455a64"/>
      </g>
      <g id="freepik--Tree--inject-35" transform="translate(187.024 44.403)">
        <rect id="Rectangle_150002" data-name="Rectangle 150002" width="11.906" height="0.973" transform="translate(21.226 47.74) rotate(-63.09)" fill="#455a64"/>
        <rect id="Rectangle_150003" data-name="Rectangle 150003" width="0.973" height="9.985" transform="matrix(0.85, -0.526, 0.526, 0.85, 15.795, 36.782)" fill="#455a64"/>
        <path id="Path_24068" data-name="Path 24068" d="M431.687,224.91V257a.414.414,0,0,1-.24.334,1.257,1.257,0,0,1-1.148,0,.414.414,0,0,1-.24-.334V224.91Z" transform="translate(-409.203 -189.636)" fill="#455a64"/>
        <circle id="Ellipse_1846" data-name="Ellipse 1846" cx="11.881" cy="11.881" r="11.881" transform="translate(15.644 36.137) rotate(-76.72)" fill="#13294b"/>
        <path id="Path_24069" data-name="Path 24069" d="M440.076,193.982c1.532-4.825,3.169-6.711,2.131-7.3a11.881,11.881,0,1,0,3.313,17.9C442,205.614,438.09,200.245,440.076,193.982Z" transform="translate(-406.405 -169.711)" opacity="0.2"/>
        <path id="Path_24070" data-name="Path 24070" d="M410.726,207.328A8.353,8.353,0,1,1,402.373,199a8.353,8.353,0,0,1,8.353,8.328Z" transform="translate(-391.147 -176.654)" fill="#13294b"/>
        <path id="Path_24071" data-name="Path 24071" d="M403.51,199a8.3,8.3,0,0,0-4.88,1.577c-.23,5.1,4.1,10.074,2.894,11.746s-4.2.644-5.234-.773A8.353,8.353,0,1,0,403.51,199Z" transform="translate(-392.284 -176.654)" opacity="0.2"/>
        <circle id="Ellipse_1847" data-name="Ellipse 1847" cx="15.324" cy="15.324" r="15.324" transform="translate(0 21.671) rotate(-45)" fill="#13294b"/>
        <path id="Path_24072" data-name="Path 24072" d="M431.211,187.756a15.324,15.324,0,1,1-22.454-16.836,15.469,15.469,0,0,0-3.588,2.809,15.533,15.533,0,0,0-.4,3.493,15.314,15.314,0,0,0,26.446,10.529Z" transform="translate(-394.626 -162.586)" opacity="0.1"/>
      </g>
      <g id="freepik--Sidewalk--inject-35" transform="translate(0 111.867)">
        <path id="Path_24073" data-name="Path 24073" d="M277.48,318.172l24.325,14.041,19.271-11.132L296.641,307.1Z" transform="translate(-145.734 -298.278)" fill="#f5f5f5"/>
        <path id="Path_24074" data-name="Path 24074" d="M228.3,289.42l20.274,11.7L126.958,371.333,13.45,305.8l20.269-11.7,93.235,53.83Z" transform="translate(-13.45 -289.42)" fill="#f5f5f5"/>
        <path id="Path_24075" data-name="Path 24075" d="M362.542,312.87v4.68L240.93,387.762v-4.68Z" transform="translate(-127.422 -301.169)" fill="#ebebeb"/>
        <path id="Path_24076" data-name="Path 24076" d="M126.958,387.781,13.45,322.25v4.68l113.508,65.531Z" transform="translate(-13.45 -305.868)" fill="#e0e0e0"/>
        <path id="Path_24077" data-name="Path 24077" d="M240.92,406.079l20.269,11.7,1.033-.6-20.269-11.7Z" transform="translate(-127.417 -347.568)" fill="#e0e0e0"/>
        <path id="Path_24078" data-name="Path 24078" d="M281.54,382.624l20.269,11.7,1.033-.6L282.573,382.02Z" transform="translate(-147.768 -335.814)" fill="#e0e0e0"/>
        <path id="Path_24079" data-name="Path 24079" d="M322.16,359.174l20.269,11.7,1.033-.6-20.269-11.7Z" transform="translate(-168.119 -324.065)" fill="#e0e0e0"/>
        <path id="Path_24080" data-name="Path 24080" d="M362.78,335.719l20.269,11.706,1.033-.6-20.269-11.7Z" transform="translate(-188.471 -312.317)" fill="#e0e0e0"/>
        <path id="Path_24081" data-name="Path 24081" d="M403.4,312.269l20.269,11.7,1.033-.6-20.269-11.7Z" transform="translate(-208.822 -300.568)" fill="#e0e0e0"/>
        <path id="Path_24082" data-name="Path 24082" d="M178.917,382.624l-20.269,11.7-1.028-.6,20.269-11.706Z" transform="translate(-85.682 -335.814)" fill="#e0e0e0"/>
        <path id="Path_24083" data-name="Path 24083" d="M138.3,359.174l-20.269,11.7-1.028-.6,20.269-11.7Z" transform="translate(-65.33 -324.065)" fill="#e0e0e0"/>
        <path id="Path_24084" data-name="Path 24084" d="M97.677,335.719,77.408,347.425l-1.028-.6,20.269-11.7Z" transform="translate(-44.979 -312.317)" fill="#e0e0e0"/>
        <path id="Path_24085" data-name="Path 24085" d="M57.057,312.269l-20.264,11.7-1.033-.6,20.269-11.7Z" transform="translate(-24.628 -300.568)" fill="#e0e0e0"/>
        <path id="Path_24086" data-name="Path 24086" d="M219.537,406.079l-20.269,11.7-1.028-.6,20.269-11.7Z" transform="translate(-106.033 -347.568)" fill="#e0e0e0"/>
      </g>
    </g>
    <g id="freepik--Shadows--inject-35" transform="translate(63.104 196.219)">
      <path id="freepik--Shadow--inject-35" d="M384.5,343.428c-5.229,2.495-13.712,2.495-18.961,0s-5.229-6.542,0-9.037,13.717-2.495,18.961,0S389.745,340.933,384.5,343.428Z" transform="translate(-237.536 -332.52)" fill="#e0e0e0"/>
      <path id="freepik--shadow--inject-35-2" data-name="freepik--shadow--inject-35" d="M168.853,388.807c-5.12,2.944-4.077,4.661,6.083,10.479,7.325,4.211,11.122,5.384,16.212,2.375s.04-5.763-6.986-9.88C175.694,386.816,173.124,386.352,168.853,388.807Z" transform="translate(-139.458 -359.996)" fill="#e0e0e0"/>
      <ellipse id="freepik--shadow--inject-35-3" data-name="freepik--shadow--inject-35" cx="12.11" cy="5.773" rx="12.11" ry="5.773" transform="translate(0 12.564)" fill="#e0e0e0"/>
    </g>
    <g id="freepik--character-2--inject-35" transform="translate(187.406 144.46)">
      <path id="Path_24087" data-name="Path 24087" d="M387.421,249.569a5.224,5.224,0,0,1,3.862,1.607c.843.843,2.844,6.721,2.056,10.683a4.907,4.907,0,0,1-6.986,3.218c-2.181-1.108-2.44-5.529-2.38-7.535S387.421,249.569,387.421,249.569Z" transform="translate(-373.041 -239.2)" fill="#13294b"/>
      <path id="Path_24088" data-name="Path 24088" d="M387.421,249.569a5.224,5.224,0,0,1,3.862,1.607c.843.843,2.844,6.721,2.056,10.683a4.907,4.907,0,0,1-6.986,3.218c-2.181-1.108-2.44-5.529-2.38-7.535S387.421,249.569,387.421,249.569Z" transform="translate(-373.041 -239.2)" opacity="0.3"/>
      <path id="Path_24089" data-name="Path 24089" d="M387.2,250.617a1.262,1.262,0,0,1,1.432-.249,12.374,12.374,0,0,1,1.866,3.673s.259,0,.095-.684a11.512,11.512,0,0,0-1.252-2.864c-.424-.569-.923-1.457-3.992-1.766a18.592,18.592,0,0,0-4.68.414c-1.337.464-1.078,1.232-1.078,1.232Z" transform="translate(-370.838 -238.772)" fill="#13294b"/>
      <path id="Path_24090" data-name="Path 24090" d="M387.2,250.617a1.262,1.262,0,0,1,1.432-.249,12.374,12.374,0,0,1,1.866,3.673s.259,0,.095-.684a11.512,11.512,0,0,0-1.252-2.864c-.424-.569-.923-1.457-3.992-1.766a18.592,18.592,0,0,0-4.68.414c-1.337.464-1.078,1.232-1.078,1.232Z" transform="translate(-370.838 -238.772)" opacity="0.5"/>
      <path id="Path_24091" data-name="Path 24091" d="M367.32,267.831a19.094,19.094,0,0,1-1.028,2.26c-1.148,1.966-2.4,2.455-2.929,2.42-1.5-.09-1.637-.868-.709-1.647a4.1,4.1,0,0,0,1.038-1.5,3.944,3.944,0,0,1-.828.269.5.5,0,0,1-.594-.369c0-.115.259-.145.639-.414a5.812,5.812,0,0,1,1.362-.883.968.968,0,0,0,.5-.459,27.726,27.726,0,0,0,1.756-5.229c.5-2,.923-4.99,1.457-7.445.559-2.565,1.317-3.278,3.094-3.608h1.058c1.906,1.277-.873,5.489-2.8,11.716C368.952,264.194,368.128,265.82,367.32,267.831Z" transform="translate(-362.071 -240.033)" fill="#ffa8a7"/>
      <path id="Path_24092" data-name="Path 24092" d="M374.24,239.538h5.529a4.571,4.571,0,0,0,4.571-4.571V233.84a5.05,5.05,0,0,0-5.05-5.05h0a5.05,5.05,0,0,0-5.05,5.05Z" transform="translate(-368.168 -228.79)" fill="#37474f"/>
      <path id="Path_24093" data-name="Path 24093" d="M404.431,328.776c.384-.195.629.294,1,.689a2.849,2.849,0,0,1,.684,1.028,2.148,2.148,0,0,1-.8,1.607,2.587,2.587,0,0,0-1.178,1.582,2.156,2.156,0,0,1-1.432,1.806,3.643,3.643,0,0,1-2.814,0c-.544-.349-.045-.733.714-1.821,1-1.417,1.761-2.43,1.761-3.752Z" transform="translate(-380.904 -278.863)" fill="#263238"/>
      <path id="Path_24094" data-name="Path 24094" d="M405.31,326.5l.813,1.193a1.138,1.138,0,0,1-.274,1.587h0a1.237,1.237,0,0,1-1.562-.244L403,327.668Z" transform="translate(-382.577 -277.745)" fill="#ffa8a7"/>
      <path id="Path_24095" data-name="Path 24095" d="M375.179,278.2a22.726,22.726,0,0,0,.06,4.641,31.032,31.032,0,0,0,1.447,5.988,26.687,26.687,0,0,0,2.31,4.745c.329.564,10.648,10.648,10.648,10.648a2.081,2.081,0,0,0,1.866-1.672s-4.7-7.445-5.539-8.8-3.837-3.448-3.837-3.448l.269-11.906Z" transform="translate(-368.593 -253.545)" fill="#37474f"/>
      <rect id="Rectangle_150004" data-name="Rectangle 150004" width="2.066" height="3.009" transform="translate(7.62 54.76) rotate(12.81)" fill="#ffa8a7"/>
      <path id="Path_24096" data-name="Path 24096" d="M377.7,278.2l8.573.334a8.348,8.348,0,0,1,.709,4.057c-.289,4.181-4.251,11.656-4.251,11.656a15.867,15.867,0,0,1-.254,5.07c-.853,3.338-3.288,10.069-3.288,10.069a2.721,2.721,0,0,1-2.186-.639s1.4-12.544,1.746-15.468c.374-3.179,1.342-8.982,1.342-8.982a14.468,14.468,0,0,1-1.731-2.071,6.147,6.147,0,0,1-1.3-4.017" transform="translate(-369.551 -253.545)" fill="#37474f"/>
      <path id="Path_24097" data-name="Path 24097" d="M372.067,342.119l.065-.289c-.215.04-1.118,1.542-2,2.2-1,.714-1.836,1.138-2.275,1.457-.589.434.264,1.312,1.707,1.392a4.372,4.372,0,0,0,2.425-.559c.4-.379.694-1,1-1.287s.963-.5,1.183-.868a2.5,2.5,0,0,0,.125-1.083c0-.379-.025-.793-.15-.788l-.05.22a2.5,2.5,0,0,1-1.228.269C372.531,342.763,371.9,342.683,372.067,342.119Z" transform="translate(-364.878 -285.425)" fill="#263238"/>
      <path id="Path_24098" data-name="Path 24098" d="M380.173,296.063s.858-6.093,1.088-7.036a9.67,9.67,0,0,1-1.911-1.367,15.71,15.71,0,0,0,1.307,1.632Z" transform="translate(-370.728 -258.285)" fill="#263238"/>
      <path id="Path_24099" data-name="Path 24099" d="M389.947,304.09a27.836,27.836,0,0,1-1.447,3.134s.1,1.956.09,2.35l.539.474a12.435,12.435,0,0,0-.24-2.64A16.05,16.05,0,0,0,389.947,304.09Z" transform="translate(-375.313 -266.517)" fill="#263238"/>
      <path id="Path_24100" data-name="Path 24100" d="M381.829,251.325a29.578,29.578,0,0,1,3.019.5c-2.789,1.961-.394,5.928-.394,5.928l-1.332,3.293a14.591,14.591,0,0,1,1.941,4.236c-.778.9-4.99,3.937-10.329.5,0,0,.14-3.687.5-6.8a3.256,3.256,0,0,1-.5-3.7,10.928,10.928,0,0,1,2.655-4.072h.923Z" transform="translate(-368.237 -240.023)" fill="#f0f0f0"/>
      <path id="Path_24101" data-name="Path 24101" d="M377.253,233.2c-.534.314-1.193,1.657-1.128,4.491.055,2.38.828,2.994,1.217,3.144a4.42,4.42,0,0,0,1.861-.055v1.427s-1,1.168-.938,1.826,1.452.808,2.39.17a7.57,7.57,0,0,0,1.731-1.891v-3.288s.429.414,1.153-.22a1.348,1.348,0,0,0,.334-1.881,1.048,1.048,0,0,0-1.662.329,5.729,5.729,0,0,1-2.7-.8A4.356,4.356,0,0,1,377.253,233.2Z" transform="translate(-369.111 -230.999)" fill="#ffa8a7"/>
      <path id="Path_24102" data-name="Path 24102" d="M381.469,240.7a.3.3,0,0,0,.279.324.314.314,0,0,0,.035-.624.3.3,0,0,0-.314.3Z" transform="translate(-371.79 -234.607)" fill="#263238"/>
      <path id="Path_24103" data-name="Path 24103" d="M380.609,245l-.7.22a.359.359,0,0,0,.454.249A.384.384,0,0,0,380.609,245Z" transform="translate(-371.009 -236.912)" fill="#f28f8f"/>
      <path id="Path_24104" data-name="Path 24104" d="M376.709,238.6l.709-.195a.349.349,0,0,0-.439-.264A.384.384,0,0,0,376.709,238.6Z" transform="translate(-369.4 -233.466)" fill="#263238"/>
      <path id="Path_24105" data-name="Path 24105" d="M376.819,240.225a.3.3,0,0,0,.284.324.309.309,0,1,0-.284-.324Z" transform="translate(-369.46 -234.372)" fill="#263238"/>
      <path id="Path_24106" data-name="Path 24106" d="M378.653,240.18l-.045,1.8-.948-.289Z" transform="translate(-369.882 -234.497)" fill="#f28f8f"/>
      <path id="Path_24107" data-name="Path 24107" d="M382.3,247.168c.768-.1,2.345-.554,2.59-1.178a1.607,1.607,0,0,1-.549.793,8.343,8.343,0,0,1-2.041.858Z" transform="translate(-372.206 -237.408)" fill="#f28f8f"/>
      <path id="Path_24108" data-name="Path 24108" d="M391.51,266.36l-2.22,2.919,1.3-.644Z" transform="translate(-375.708 -247.613)" fill="#e0e0e0"/>
      <path id="Path_24109" data-name="Path 24109" d="M388.284,251.492a4.76,4.76,0,0,0-1.692,3.633c-.319,6.422,3.892,8.143,3.892,8.143a2.656,2.656,0,0,0-.18-2.37,7.315,7.315,0,0,1-2-5.319c.115-2.34,1.277-3.653,1.861-3.832a3.4,3.4,0,0,0-1.886-.254Z" transform="translate(-374.348 -240.145)" fill="#13294b"/>
      <path id="Path_24110" data-name="Path 24110" d="M388.284,251.492a4.76,4.76,0,0,0-1.692,3.633c-.319,6.422,3.892,8.143,3.892,8.143a2.656,2.656,0,0,0-.18-2.37,7.315,7.315,0,0,1-2-5.319c.115-2.34,1.277-3.653,1.861-3.832a3.4,3.4,0,0,0-1.886-.254Z" transform="translate(-374.348 -240.145)" opacity="0.5"/>
      <path id="Path_24111" data-name="Path 24111" d="M392.038,264.775a8.518,8.518,0,0,1-2.495-1.731,26.009,26.009,0,0,1-2.46-3.059,3.875,3.875,0,0,0-.389-.419,4.061,4.061,0,0,1-.659-.738,3.059,3.059,0,0,1-.469-1.841,6.037,6.037,0,0,1,.334-2.58c.05-.115.334-.175.414-.155-.045.175-.08.344-.11.5a3.953,3.953,0,0,0,.629,1.073c.389.459.813.709.858.614s-.095-.4-.045-.883.18-.664.329-.7c.24-.06.234.195.334.584a4.491,4.491,0,0,1,.274,1.522,4.187,4.187,0,0,0,.2,1.372,11.173,11.173,0,0,0,1.956,2.181s-1.2-2.8-1.547-3.9c-.669-2.161.394-3.892,1.247-4.211.6,0,1.083.5,1.721,2.126a26.4,26.4,0,0,1,1.791,7.18C394.254,264.121,394.254,265.848,392.038,264.775Z" transform="translate(-373.831 -240.619)" fill="#ffa8a7"/>
      <path id="Path_24112" data-name="Path 24112" d="M395.729,268.054s1.193.893,1.527,1.232a3.563,3.563,0,0,1,.823,1.362,1.816,1.816,0,0,0-.394-1.267,11.527,11.527,0,0,0-2.225-1.961Z" transform="translate(-378.8 -248.144)" fill="#f28f8f"/>
    </g>
    <g id="freepik--character-1--inject-35" transform="translate(63.911 155.957)">
      <path id="Path_24113" data-name="Path 24113" d="M148.3,284.5a34.514,34.514,0,0,1-.439-8.592.319.319,0,0,1,.6-.135l2.2,4.072s.264,2.994.539,5.04a28.77,28.77,0,0,0,1.128,5.489,1.118,1.118,0,0,0,.534.589,6.486,6.486,0,0,1,1.417,1.163c.389.349.709.419.669.544a.594.594,0,0,1-.743.329,4.257,4.257,0,0,1-.908-.4,5.489,5.489,0,0,0,1,1.462c.938,1,1.028,1.637-.709,1.786-1.088.09-2-.5-2.994-2.849a19.431,19.431,0,0,1-.973-2.64C149.018,288,148.594,285.933,148.3,284.5Z" transform="translate(-131.209 -263.743)" fill="#b16668"/>
      <path id="Path_24114" data-name="Path 24114" d="M143.25,273.89c1.582,0,3.493.5,4.241,1.956.813,1.557,1.347,5.723,1.347,5.723s-.6,1.287-2.814,1.143Z" transform="translate(-128.943 -262.882)" fill="#13294b"/>
      <path id="Path_24115" data-name="Path 24115" d="M143.25,273.89c1.582,0,3.493.5,4.241,1.956.813,1.557,1.347,5.723,1.347,5.723s-.6,1.287-2.814,1.143Z" transform="translate(-128.943 -262.882)" opacity="0.4"/>
      <path id="Path_24116" data-name="Path 24116" d="M116.286,351.694c-.394-.2-.644.3-1,.7a2.994,2.994,0,0,0-.7,1.048,2.188,2.188,0,0,0,.818,1.632,2.563,2.563,0,0,1,1.193,1.607,2.191,2.191,0,0,0,1.457,1.841,3.747,3.747,0,0,0,2.864,0c.549-.354.045-.748-.729-1.851-1-1.442-1.791-2.495-1.791-3.817Z" transform="translate(-114.578 -301.841)" fill="#263238"/>
      <path id="Path_24117" data-name="Path 24117" d="M118.634,349.38l-.808,1.213a.968.968,0,0,0,.359,1.417,1.118,1.118,0,0,0,1.532-.03l1.292-1.412Z" transform="translate(-116.119 -300.704)" fill="#b16668"/>
      <path id="Path_24118" data-name="Path 24118" d="M134.763,304.061a24.251,24.251,0,0,1-1.582,8.572,46.515,46.515,0,0,1-2.026,5.06c-.334.579-10.02,9.98-10.02,9.98a2.116,2.116,0,0,1-1.906-1.712s3.992-6.746,4.83-8.133,3.9-3.493,3.9-3.493l-.279-12.105Z" transform="translate(-116.909 -277.081)" fill="#455a64"/>
      <rect id="Rectangle_150005" data-name="Rectangle 150005" width="2.101" height="3.059" transform="translate(17.627 57.485) rotate(167.19)" fill="#b16668"/>
      <path id="Path_24119" data-name="Path 24119" d="M139.863,301.544l-9.93-.364c-.085,1.088-.215,2.066-.264,4.7-.075,4.261,3.887,11.976,3.887,11.976a16.242,16.242,0,0,0,.269,5.194,93.3,93.3,0,0,0,3.238,9.131,2.737,2.737,0,0,0,2.22-.644s-1.312-11.656-1.667-14.645c-.379-3.228-1.362-9.131-1.362-9.131a15.079,15.079,0,0,0,1.756-2.106,10.479,10.479,0,0,0,1.866-4.087" transform="translate(-122.139 -276.555)" fill="#455a64"/>
      <path id="Path_24120" data-name="Path 24120" d="M122.172,288.252c.444-4.551,2.091-7.889,2.3-9.032l1.332,5.638a42.413,42.413,0,0,0-1.113,4.536,26.731,26.731,0,0,0-.5,5.274,1.053,1.053,0,0,0,.314.674,5.987,5.987,0,0,1,1,1.442c.254.424.5.574.454.674a.559.559,0,0,1-.763.095,3.738,3.738,0,0,1-.709-.614,5.145,5.145,0,0,0,.5,1.6c.584,1.153.5,1.761-1.128,1.422-1-.215-1.677-1-1.946-3.4a17.964,17.964,0,0,1-.16-2.655C121.873,291.62,122.043,289.629,122.172,288.252Z" transform="translate(-118.17 -265.553)" fill="#b16668"/>
      <path id="Path_24121" data-name="Path 24121" d="M129.921,273.99c-1.881.454-4.386,1.038-5.13,3.079a57.676,57.676,0,0,0-1.542,5.913,3.568,3.568,0,0,0,3.139.933l.434-1.522-.369,7.709c1.5,1.6,7.2,2.32,10.414-.03,0,0-.22-10.8-.22-12.435a3.522,3.522,0,0,0-3.418-3.747Z" transform="translate(-118.923 -262.882)" fill="#13294b"/>
      <path id="Path_24122" data-name="Path 24122" d="M129.921,273.99c-1.881.454-4.386,1.038-5.13,3.079a57.676,57.676,0,0,0-1.542,5.913,3.568,3.568,0,0,0,3.139.933l.434-1.522-.369,7.709c1.5,1.6,7.2,2.32,10.414-.03,0,0-.22-10.8-.22-12.435a3.522,3.522,0,0,0-3.418-3.747Z" transform="translate(-118.923 -262.882)" opacity="0.3"/>
      <path id="Path_24123" data-name="Path 24123" d="M130.3,287.944l.948-2.974-1.053,5.214Z" transform="translate(-122.405 -268.434)" opacity="0.2"/>
      <path id="Path_24124" data-name="Path 24124" d="M147.166,364.709l-.065-.289c.215.04,1.133,1.567,2.046,2.23,1,.724,1.866,1.153,2.31,1.5.6.439-.264,1.337-1.736,1.417a4.43,4.43,0,0,1-2.465-.574c-.409-.389-.7-1.028-1.028-1.307s-1-.524-1.208-.883a2.56,2.56,0,0,1-.125-1.1c0-.384.025-.8.155-.8l.05.225a2.61,2.61,0,0,0,1.247.274C146.692,365.363,147.336,365.283,147.166,364.709Z" transform="translate(-129.761 -308.24)" fill="#263238"/>
      <path id="Path_24125" data-name="Path 24125" d="M143.943,320.083s-.868-6.2-1.1-7.155a10.043,10.043,0,0,0,1.941-1.387,15.9,15.9,0,0,1-1.327,1.657Z" transform="translate(-128.738 -281.746)" fill="#37474f"/>
      <path id="Path_24126" data-name="Path 24126" d="M134.51,328.24a28.231,28.231,0,0,0,1.5,3.188s-.1,2-.09,2.39l-.554.5a12.36,12.36,0,0,1,.249-2.68A16.286,16.286,0,0,1,134.51,328.24Z" transform="translate(-124.564 -290.113)" fill="#37474f"/>
      <path id="Path_24127" data-name="Path 24127" d="M133.132,257.134a1.048,1.048,0,0,1,.569-.309l-.743-.4a.6.6,0,0,1,.823-.274.654.654,0,0,1,.279.823l.259,2.889.245-.025.1,1.682.03,1.4c-.674,0-1.178-.679-1.562-2.934C132.818,258.277,132.738,257.539,133.132,257.134Z" transform="translate(-123.741 -253.961)" fill="#263238"/>
      <path id="Path_24128" data-name="Path 24128" d="M149.376,255.584a.709.709,0,0,1,.14.3.9.9,0,0,1-.21.709,2.42,2.42,0,0,1-.284.269c-.04.035-.963.6-1,.439a2.964,2.964,0,0,0-.314-.639c-.095-.195-.19-.389-.289-.584a4.3,4.3,0,0,0,.908-.5,1,1,0,0,1,.679-.245.6.6,0,0,1,.369.245Z" transform="translate(-131.033 -253.588)" fill="#263238"/>
      <path id="Path_24129" data-name="Path 24129" d="M134.288,259.482c-.185.1-.439-.24-.659-.474a.783.783,0,0,0-1.312.215,1.661,1.661,0,0,0,.893,2c1,.309,1.128-.324,1.128-.324l.075,3.548a3.173,3.173,0,0,0,2.39,1.811c1.741.235,1.382-1.2.808-1.906V263.27a6.052,6.052,0,0,0,1.322.065,1.8,1.8,0,0,0,1.4-1.462,10.333,10.333,0,0,0,.19-4.745c-.329-2.709-3.493-2.734-5.179-1.667S134.288,259.482,134.288,259.482Z" transform="translate(-123.415 -253.32)" fill="#b16668"/>
      <path id="Path_24130" data-name="Path 24130" d="M135.588,258.292c-.095,0-.439-.569-.659-.773-.314-.279.09-2.839.09-2.839a1.741,1.741,0,0,1,.3-1.612c.614-.644,1.8-.534,2.67-.569a10.12,10.12,0,0,0,1.687-.17,10.516,10.516,0,0,1,1.926-.5,1.218,1.218,0,0,1,1.093.788,1.5,1.5,0,0,1-.215,1.357,2.994,2.994,0,0,1-1.257.813,3.807,3.807,0,0,1-1.267.309,16.924,16.924,0,0,1-3.188-.06c-.334-.045-.4.279-.589,1.163C136.023,256.975,135.9,258.287,135.588,258.292Z" transform="translate(-124.715 -251.83)" fill="#263238"/>
      <path id="Path_24131" data-name="Path 24131" d="M140.029,270.337a12.089,12.089,0,0,1-2.181-.629,1.846,1.846,0,0,1-.778-.768,2.5,2.5,0,0,0,.444.908c.409.529,2.495.918,2.495.918Z" transform="translate(-125.847 -260.402)" fill="#9a4a4d"/>
      <path id="Path_24132" data-name="Path 24132" d="M142.869,263a.324.324,0,1,1-.324-.339.334.334,0,0,1,.324.339Z" transform="translate(-128.428 -257.256)" fill="#263238"/>
      <path id="Path_24133" data-name="Path 24133" d="M142.086,260.673l-.694.384a.419.419,0,0,1,.16-.554.389.389,0,0,1,.534.17Z" transform="translate(-127.989 -256.152)" fill="#263238"/>
      <path id="Path_24134" data-name="Path 24134" d="M143.577,267.81l.738.279a.384.384,0,0,1-.5.245.419.419,0,0,1-.24-.524Z" transform="translate(-129.096 -259.836)" fill="#9a4a4d"/>
      <path id="Path_24135" data-name="Path 24135" d="M148.089,260.762l-.629-.5a.374.374,0,0,1,.544-.085.414.414,0,0,1,.085.584Z" transform="translate(-131.053 -255.972)" fill="#263238"/>
      <path id="Path_24136" data-name="Path 24136" d="M147.919,262.6a.324.324,0,1,1-.319-.334.329.329,0,0,1,.319.334Z" transform="translate(-130.958 -257.061)" fill="#263238"/>
      <path id="Path_24137" data-name="Path 24137" d="M145.39,262.54l.1,1.946,1.013-.349Z" transform="translate(-130.016 -257.196)" fill="#9a4a4d"/>
      <path id="Path_24138" data-name="Path 24138" d="M155.373,306.28v.3h-.9l26.306,35.637.729-.539Z" transform="translate(-134.565 -279.11)" fill="#13294b"/>
      <g id="Group_163399" data-name="Group 163399" transform="translate(19.905 27.17)" opacity="0.3">
        <path id="Path_24139" data-name="Path 24139" d="M155.373,306.28v.3h-.9l26.306,35.637.729-.539Z" transform="translate(-154.47 -306.28)"/>
      </g>
      <path id="Path_24140" data-name="Path 24140" d="M151.909,306.258c.5.244,2.33.349,2.68-.639l-.314-.439s-.7.943-2.615.324a1.178,1.178,0,0,0,.249.753Z" transform="translate(-133.157 -278.559)" fill="#13294b"/>
      <path id="Path_24141" data-name="Path 24141" d="M151.909,306.258c.5.244,2.33.349,2.68-.639l-.314-.439s-.7.943-2.615.324a1.178,1.178,0,0,0,.249.753Z" transform="translate(-133.157 -278.559)" opacity="0.3"/>
      <path id="Path_24142" data-name="Path 24142" d="M207.325,388.11c-.17,1.128,0,4.037-2.081,5.818a34,34,0,0,1-4.611,1.876s1.088.639.738,1-1.322.5-2.625-.4c-.9-.634-.19-1.382.609-1.826.539-.294,2-1.337,2.759-1.871a1.357,1.357,0,0,0,.689-1.237l-.075-1.886Z" transform="translate(-156.538 -320.109)" fill="#37474f"/>
      <path id="Path_24143" data-name="Path 24143" d="M184.7,370.273c-1.148-2.031-3.433-2.749-4.092-3.992-.918-1.712.225-3.039.195-3.6s-1.153-.175-1.527,1.692a4.052,4.052,0,0,0,1.123,3.688c.9,1,2.759,2.235,2.994,3.393Z" transform="translate(-146.954 -307.251)" fill="#37474f"/>
      <path id="Path_24144" data-name="Path 24144" d="M185.431,388.685c-.414.459-1.5,1.771-1.442,2.305a12.54,12.54,0,0,0,.5,1.737s.958.469,1.252.674.17,1.053-1,1.088-1.761-.349-2.036-.963c-.17-.384-.619-1.612-.938-2.495a3.338,3.338,0,0,1-.09-2,6.985,6.985,0,0,1,.684-1.786C182.871,386.515,185.431,388.685,185.431,388.685Z" transform="translate(-148.141 -319.601)" fill="#37474f"/>
      <path id="Path_24145" data-name="Path 24145" d="M189.223,372.88c-.958.853-4.67-.075-6.028-.888a6.557,6.557,0,0,0-5.848-.614c-1.657.758-3.164,1.891-3.608,6.986-.3.963-2.754,3.084-2.8,4.082a7.594,7.594,0,0,0,.045,2.206,1.7,1.7,0,0,0,.664,1.063.613.613,0,0,0,.155.07.664.664,0,0,0,.823-.279,1.687,1.687,0,0,0,.14-.833v-.634a1.761,1.761,0,0,1,.529-1.442,7.208,7.208,0,0,1,1.287-.783c.274-.175.564-.314.848-.464a6.087,6.087,0,0,0,.933-.6c.215-.165.414-.344.614-.529a6.486,6.486,0,0,1,.734-.743,11.3,11.3,0,0,1,3.313,2.086,43.994,43.994,0,0,1,3.952,2.994,15.731,15.731,0,0,1,1.1,2.67c.354,1,.9,3.109,1.033,3.692a1.751,1.751,0,0,0,1.657,1.5c1.223.195,2.041.1,2.2-.15.649-1.043-1.542-1.677-1.542-1.677s-.289-.9-.729-2.784a7.684,7.684,0,0,1-.314-3.243,6.661,6.661,0,0,0,4.1-2.615c1.078-1.532,1.133-2.056,1.342-4.231C193.14,375.14,191.982,373.119,189.223,372.88Z" transform="translate(-142.787 -311.505)" fill="#455a64"/>
      <path id="Path_24146" data-name="Path 24146" d="M211.313,379.92l-2.046.09-2.2-.684-1.652-1.716a3.882,3.882,0,0,0,2.615,3.453,4.426,4.426,0,0,0,3.064,0h0c.055-.339.12-.689.195-1.053Z" transform="translate(-160.092 -314.848)" fill="#37474f"/>
      <path id="Path_24147" data-name="Path 24147" d="M208.036,391.309a4.88,4.88,0,0,0-2.136,3.144,5.822,5.822,0,0,0,4.042-2.54,5.548,5.548,0,0,0,.8-1.292C209.662,391.673,208.774,390.859,208.036,391.309Z" transform="translate(-160.332 -321.366)" fill="#f5f5f5"/>
      <path id="Path_24148" data-name="Path 24148" d="M205.9,396.246a5.49,5.49,0,0,0,3.588-2c-.065.055-1.3,1.118-2,1.143s-.868-.529-.763-1.058A6.037,6.037,0,0,0,205.9,396.246Z" transform="translate(-160.332 -323.185)" fill="#e0e0e0"/>
      <path id="Path_24149" data-name="Path 24149" d="M217.94,363.28a1.158,1.158,0,0,1,1.377-.324,5.043,5.043,0,0,1,2.24,1.592c.354.734-1.377,3.807-2.35,3.049S217.94,363.28,217.94,363.28Z" transform="translate(-166.364 -307.454)" fill="#263238"/>
      <path id="Path_24150" data-name="Path 24150" d="M211.7,373.035c.035-.19.075-.384.125-.579a12.077,12.077,0,0,0,2.809.354l.225-.03a1.436,1.436,0,0,0,.2-.045,2.953,2.953,0,0,0,.828-.459,2.26,2.26,0,0,0,.454-.379l.115-.12a.045.045,0,0,0,0-.04h0a2.931,2.931,0,0,0,.4-.649c.269-.629-.614-1.237-.973-2.041s-.424-2.495-.963-3.668a3.669,3.669,0,0,0-3.907-1.637c-2.495.4-3.174,2.34-3.817,4.331a1.886,1.886,0,0,1-.968,1.2" transform="translate(-160.498 -307.873)" fill="#455a64"/>
      <path id="Path_24151" data-name="Path 24151" d="M216.791,374.5c-.6.195-.574.848-1,1.317s-2.3,1.412-3.184.833c-1.123-.729-2.36-.5-1.906.833s2.7,1.053,3.3.309h0a12.076,12.076,0,0,0,2.809.354l.225-.03a1.436,1.436,0,0,0,.2-.045,2.954,2.954,0,0,0,.828-.459,2.261,2.261,0,0,0,.454-.379l.115-.12a.045.045,0,0,0,0-.04h0a2.929,2.929,0,0,0,.4-.649c.21-.5-.279-.963-.674-1.527h0C218,374.422,217.929,374.138,216.791,374.5Z" transform="translate(-162.69 -313.207)" fill="#f5f5f5"/>
      <path id="Path_24152" data-name="Path 24152" d="M214.858,380.258a3.172,3.172,0,0,1-2.285-1,.878.878,0,0,0,.065,1.367C213.466,381.256,214.858,380.258,214.858,380.258Z" transform="translate(-163.527 -315.675)" fill="#e0e0e0"/>
      <path id="Path_24153" data-name="Path 24153" d="M211.359,377.367a3.793,3.793,0,0,1-3.9-.709,3.213,3.213,0,0,1-.928-3.169s-.968.16-1.193.833A3.373,3.373,0,0,0,206.4,377.4c.958.9,3.323,2,4.75.973A.868.868,0,0,0,211.359,377.367Z" transform="translate(-160.028 -312.784)" fill="#13294b"/>
      <path id="Path_24154" data-name="Path 24154" d="M210.8,363.978c-.379-.908-2.495-.748-3.7.344-.763.684-1,2.245-1.078,3.193-.06,1.078-.11,2.789,1.791,2.275.868-.24,1.432-2.061,1.6-2.894A5.446,5.446,0,0,1,210.8,363.978Z" transform="translate(-160.382 -307.722)" fill="#263238"/>
      <path id="Path_24155" data-name="Path 24155" d="M225.013,378.486a1.5,1.5,0,0,1-1.113-.684.659.659,0,0,1,.314-.893,2.36,2.36,0,0,1,1.2-.135.763.763,0,0,1,.424.728,1.242,1.242,0,0,1-.828.983Z" transform="translate(-169.316 -314.417)" fill="#263238"/>
      <path id="Path_24156" data-name="Path 24156" d="M223.34,371.309a.349.349,0,1,1,.349.349A.349.349,0,0,1,223.34,371.309Z" transform="translate(-169.07 -311.516)"/>
      <path id="Path_24157" data-name="Path 24157" d="M217.94,371.894a.4.4,0,0,1,.793,0,.4.4,0,0,1-.4.4.394.394,0,0,1-.394-.4Z" transform="translate(-166.364 -311.787)"/>
    </g>
    <g id="freepik--Clouds--inject-35" transform="translate(29.722 60.473)">
      <path id="Path_24158" data-name="Path 24158" d="M66.413,62.368l-3.468,2V62.9c0-1.786-1.252-2.495-2.8-1.617A5.424,5.424,0,0,0,58.5,62.9c-.249-2.25-2-3.089-4.157-1.851a9.264,9.264,0,0,0-4.2,7.265v1.5a3.992,3.992,0,0,0,.369,1.751l-2.9,1.652a3.433,3.433,0,0,0-1.557,2.695c0,1,.694,1.392,1.557.9l18.8-10.843a3.433,3.433,0,0,0,1.572-2.695C67.985,62.273,67.272,61.874,66.413,62.368Z" transform="translate(-46.06 -60.473)" fill="#ebebeb"/>
      <path id="Path_24159" data-name="Path 24159" d="M101.174,83.094l-2.62,1.5a2.786,2.786,0,0,0,0-.349V83.5c0-1.347-.943-1.9-2.116-1.223a4.082,4.082,0,0,0-1.257,1.213c-.195-1.7-1.527-2.325-3.144-1.392a6.986,6.986,0,0,0-3.164,5.489v1.133a3.034,3.034,0,0,0,.264,1.317l-2.171,1.252a2.6,2.6,0,0,0-1.158,2.021c0,.748.529,1.048,1.178.674l14.186-8.158a2.59,2.59,0,0,0,1.2-2.056C102.371,83.019,101.822,82.72,101.174,83.094Z" transform="translate(-65.975 -71.09)" fill="#ebebeb"/>
      <path id="Path_24160" data-name="Path 24160" d="M398.139,99.87l-2.62,1.5a2.668,2.668,0,0,0,.025-.344v-.758c0-1.352-.948-1.9-2.116-1.223a4.1,4.1,0,0,0-1.262,1.213c-.195-1.7-1.5-2.33-3.144-1.4a7.011,7.011,0,0,0-3.164,5.489v1.138a2.924,2.924,0,0,0,.269,1.312l-2.176,1.257a2.59,2.59,0,0,0-1.173,2.031c0,.748.524,1.053,1.173.679l14.186-8.188a2.6,2.6,0,0,0,1.173-2.036C399.311,99.8,398.787,99.5,398.139,99.87Z" transform="translate(-214.763 -79.488)" fill="#ebebeb"/>
    </g>
  </g>
</svg>
