<svg xmlns="http://www.w3.org/2000/svg" width="41.447" height="41.453" viewBox="0 0 41.447 41.453">
  <path id="Subtração_8" data-name="Subtração 8" d="M20.726,41.453h0l-4.65-3.372-5.713.6L8.025,33.431,2.775,31.1l.6-5.712L0,20.726l3.372-4.65-.6-5.713L8.022,8.025l2.336-5.25,5.712.6L20.726,0l4.65,3.372,5.713-.6,2.338,5.253,5.25,2.336-.6,5.712,3.372,4.651-3.366,4.655.6,5.713-5.253,2.338L31.1,38.678l-5.712-.6-4.651,3.372ZM12.9,20.533a.666.666,0,0,0-.474.2l-1.9,1.889a.67.67,0,0,0,0,.949l5.693,5.7a.671.671,0,0,0,.949,0L30.444,15.991a.671.671,0,0,0,0-.947l-1.895-1.905a.67.67,0,0,0-.949,0l-10.906,10.9-3.319-3.317a.666.666,0,0,0-.478-.191Z" fill="#13294b"/>
</svg>
