<svg xmlns="http://www.w3.org/2000/svg" width="52.99" height="53" viewBox="0 0 52.99 53">
  <path id="Subtraction_1" data-name="Subtraction 1" d="M26.4,53h-.06A26.548,26.548,0,0,1,.5,31.837,26.966,26.966,0,0,1,9.416,6.226a26.3,26.3,0,0,1,13.716-6A27.286,27.286,0,0,1,26.608,0h.054A25.784,25.784,0,0,1,38.628,2.958a27.167,27.167,0,0,1,9.1,7.8A26.336,26.336,0,0,1,51.84,34.285a26.007,26.007,0,0,1-9.934,13.829,26.679,26.679,0,0,1-7.386,3.643A27.049,27.049,0,0,1,26.4,53Zm5.519-28.113a2.454,2.454,0,0,1,2.535,2.083l.123.413.016,4.93.016,4.93h5.465V32.17c0-3.229-.02-5.265-.055-5.587-.343-3.138-1.886-5.156-4.463-5.835a8.113,8.113,0,0,0-1.753-.164,5.177,5.177,0,0,0-1.012.076,7.125,7.125,0,0,0-3.594,2.3l-.219.258V20.94H23.513v16.3h5.469V32.5c0-5.273,0-5.273.323-5.929A2.848,2.848,0,0,1,31.922,24.887ZM15.092,20.942v16.3h5.47V20.94H15.1Zm2.823-7.866a4.048,4.048,0,0,0-1.024.136,2.809,2.809,0,0,0,.138,5.463,4.165,4.165,0,0,0,.836.088,3.138,3.138,0,0,0,2.254-.874,2.712,2.712,0,0,0,.783-1.972,2.835,2.835,0,0,0-2.98-2.841Z" transform="translate(-0.008)" fill="#fff" opacity="0.5"/>
</svg>
